<?xml version="1.0" encoding="utf-8"?>
<!-- Generator: Adobe Illustrator 22.1.0, SVG Export Plug-In . SVG Version: 6.00 Build 0)  -->
<svg version="1.1" id="Capa_1" xmlns="http://www.w3.org/2000/svg" xmlns:xlink="http://www.w3.org/1999/xlink" x="0px" y="0px"
	 viewBox="0 0 326.3 326.3" style="enable-background:new 0 0 326.3 326.3;" xml:space="preserve">
<style type="text/css">
	.st0{fill:#E6EAC0;}
</style>
<g>
	<path class="st0" d="M107.6,165.4h-63v64.8H51h53.9c19.1-0.4,29.6-11.7,29.6-31.7C134.5,172.3,116.9,165.4,107.6,165.4z
		 M104.7,217.3H57.4v-39.1h50.2c2.3,0,14.1,1.1,14.1,20.3C121.6,214.7,113,217.1,104.7,217.3z M127.8,118.7
		c0-21.1-13.2-26.7-20.2-26.7h-63v56.2h59.5C120,148.3,127.8,138.6,127.8,118.7z M57.4,104.9h50.2c0.1,0,7.3,0.2,7.3,13.8
		c0,16.7-5.3,16.7-10.8,16.7H57.4C57.4,135.4,57.4,104.9,57.4,104.9z M307.4,129.1c-12.9-14.7-31.7-22.2-55.8-22.2
		c-41.9,0-61.8,22.2-71.1,40.9c-4.9,9.8-7.4,19.6-8.7,27c-2.1-5.9-5.2-11.9-9.9-16.9c-2.6-2.7-5.5-5-8.7-6.8
		c8.5-6.5,15.6-17.6,15.6-35.5c0-35.3-24.1-58.2-61.4-58.2H0v207.2l107.4,0l0.9,0c4.5,0,20.5-0.6,36-8.5c11.9-6.1,25.6-17.8,30-39.7
		c2.8,9.6,7.8,20.2,16.4,29.4c14.2,15.2,34.7,22.9,60.6,22.9c0,0,0,0,0.1,0c0,0,1.1,0.1,3,0.1c34,0,70.3-15.3,70.3-58.2v-6.4h-47.4
		l0.4,6.8c0,0,0,4.1-3.4,7.7c-4,4.2-11.4,6.4-21.8,6.5l-0.8,0c-2.1,0-9.2-0.3-15.5-4c-5.9-3.5-9.4-9.2-10.6-17H325l0.7-5.6
		C326,196.9,331,155.9,307.4,129.1z M162.9,200.9c0,20.8-8.2,35.5-24.5,43.8c-13.2,6.8-27.4,7.1-30.1,7.1H12.9V70.3h94.7
		c30.4,0,48.6,17,48.6,45.3c0,27.7-21.3,30.4-23.7,30.6l0.5,12.8c8.4,0,14.9,2.5,19.7,7.6C163.9,178.6,162.9,200.4,162.9,200.9z
		 M313.4,191.3H212.2v6.4c0,19.9,9.5,29.8,17.4,34.5c8.8,5.2,18.4,5.8,22.1,5.8c0.7,0,1.2,0,1.3,0c13.7,0,24-3.5,30.6-10.4
		c3.4-3.5,5.1-7.3,6-10.5h21.9c-4.3,36-44.3,38.9-57.1,38.9c-1.4,0-2.2-0.1-2.7-0.1c-22.6,0-39.9-6.3-51.6-18.7
		c-18.4-19.6-16.7-48.5-16.7-49.2c0-0.2,0.1-17.4,8.6-34.5c11.2-22.4,31.3-33.8,59.6-33.8c20.2,0,35.7,6,46,17.7
		C312.8,154.7,313.8,180.1,313.4,191.3z M252.5,135.4c-28.2,0-38.9,23.2-40.6,35.5l-1,7.3h77.6l0.1-6.3c0-0.7,0.1-16.1-10.5-26.8
		C271.7,138.7,263.1,135.4,252.5,135.4z M226.7,165.4c3-7.2,10-17.1,25.7-17.1c7.1,0,12.6,2,16.4,5.8c3.4,3.4,5.1,7.8,5.9,11.3
		L226.7,165.4L226.7,165.4z M296.5,68.9h-93.1v36.8h93.1V68.9z M283.6,92.9h-67.3V81.8h67.3V92.9z"/>
</g>
</svg>
