<?xml version="1.0" standalone="no"?>
<!DOCTYPE svg PUBLIC "-//W3C//DTD SVG 20010904//EN"
 "http://www.w3.org/TR/2001/REC-SVG-20010904/DTD/svg10.dtd">
<svg version="1.0" xmlns="http://www.w3.org/2000/svg"
 width="800.000000pt" height="800.000000pt" viewBox="0 0 800.000000 800.000000"
 preserveAspectRatio="xMidYMid meet">
<metadata>
Created by potrace 1.11, written by Peter Selinger 2001-2013
</metadata>
<g transform="translate(0.000000,800.000000) scale(0.100000,-0.100000)"
fill="#000000" stroke="none">
<path d="M2589 7993 c-3 -24 -4 -1960 -1 -1970 3 -9 206 -12 885 -12 485 0
905 0 933 -1 l52 0 -2 -1582 c-2 -871 -5 -1594 -9 -1608 -3 -14 -8 -43 -12
-65 -7 -49 -39 -169 -56 -210 -7 -16 -13 -32 -14 -35 -13 -52 -117 -198 -173
-245 -14 -11 -37 -31 -53 -45 -67 -57 -229 -123 -334 -136 -21 -2 -51 -7 -65
-9 -29 -6 -199 -6 -250 -1 -180 20 -385 99 -543 209 -197 138 -411 341 -565
536 -13 17 -29 3 -115 -102 -18 -22 -40 -49 -51 -60 -10 -12 -37 -44 -60 -71
-22 -27 -49 -58 -58 -68 -10 -10 -18 -22 -18 -28 0 -5 -4 -10 -8 -10 -4 0 -48
-48 -97 -108 -50 -59 -95 -113 -102 -120 -7 -7 -29 -34 -50 -59 -21 -26 -45
-54 -53 -63 -8 -9 -34 -38 -57 -65 -23 -28 -50 -60 -60 -71 -10 -12 -34 -40
-53 -64 -19 -23 -40 -47 -45 -53 -20 -22 -230 -272 -245 -291 -8 -10 -28 -34
-45 -52 -16 -19 -34 -40 -40 -47 -17 -21 -118 -141 -135 -159 -8 -9 -29 -34
-47 -55 -17 -21 -45 -54 -62 -74 -30 -36 -30 -36 -11 -57 11 -12 20 -23 20
-26 0 -14 253 -257 360 -345 14 -11 30 -25 37 -31 7 -5 15 -10 18 -10 3 0 16
-9 28 -21 51 -47 351 -239 374 -239 6 0 13 -4 15 -8 5 -13 202 -106 343 -162
22 -9 45 -16 60 -20 6 -1 15 -5 20 -9 6 -5 24 -12 40 -16 35 -10 35 -10 55
-18 32 -13 116 -39 139 -43 14 -3 28 -7 33 -10 4 -3 16 -7 25 -9 129 -32 200
-52 211 -58 6 -5 12 -6 12 -4 0 3 19 0 43 -5 23 -5 53 -12 67 -14 14 -3 61
-12 104 -20 43 -9 95 -18 115 -20 20 -2 52 -6 71 -8 19 -3 55 -8 80 -11 25 -3
59 -7 75 -10 185 -26 787 -26 1040 1 139 15 348 43 365 50 8 3 29 8 45 10 36
5 55 9 115 24 25 6 54 12 65 14 85 16 283 76 425 131 100 38 391 178 413 198
6 7 29 21 50 32 20 11 37 23 37 27 0 5 4 8 10 8 5 0 29 14 52 30 24 17 54 38
68 48 14 9 30 21 36 27 6 5 28 23 50 40 127 96 429 435 485 543 8 15 17 29 20
32 22 18 166 304 212 420 30 75 88 248 112 335 17 59 20 72 30 118 2 12 8 36
12 52 4 17 7 32 8 35 1 3 5 25 10 50 5 25 9 47 10 50 0 3 4 27 9 53 4 27 9 56
11 65 1 10 6 42 9 72 4 30 8 66 11 80 2 14 7 57 10 95 4 39 9 90 12 115 3 25
8 1209 10 2633 l4 2587 -2236 0 c-1229 0 -2235 -3 -2236 -7z"/>
</g>
</svg>
