<?xml version="1.0" standalone="no"?>
<!DOCTYPE svg PUBLIC "-//W3C//DTD SVG 20010904//EN"
 "http://www.w3.org/TR/2001/REC-SVG-20010904/DTD/svg10.dtd">
<svg version="1.0" xmlns="http://www.w3.org/2000/svg"
 width="700.000000pt" height="700.000000pt" viewBox="0 0 700.000000 700.000000"
 preserveAspectRatio="xMidYMid meet">
<metadata>
Created by potrace 1.11, written by Peter Selinger 2001-2013
</metadata>
<g transform="translate(0.000000,700.000000) scale(0.100000,-0.100000)"
fill="#000000" stroke="none">
<path d="M4795 6964 c-115 -38 -338 -104 -375 -110 -14 -3 -31 -7 -39 -10 -18
-6 -264 -61 -311 -69 -19 -3 -84 -14 -145 -25 -60 -10 -132 -22 -160 -25 -27
-4 -61 -8 -75 -10 -14 -2 -50 -7 -80 -10 -30 -4 -68 -8 -85 -10 -43 -6 -237
-14 -480 -21 -235 -6 -301 -9 -395 -18 -36 -3 -94 -8 -130 -11 -58 -5 -141
-15 -265 -31 -84 -11 -113 -16 -195 -31 -47 -8 -96 -17 -110 -19 -35 -6 -185
-43 -250 -61 -376 -106 -665 -252 -946 -478 -101 -82 -251 -230 -317 -314
l-35 -44 544 -544 c299 -298 546 -543 549 -543 3 0 48 38 100 84 138 123 374
276 425 276 5 0 18 4 28 10 30 16 278 83 354 94 21 3 57 10 80 15 45 10 89 17
173 26 28 3 66 8 85 10 222 28 606 42 612 22 2 -6 4 -599 3 -1317 -1 -1006 -4
-1320 -14 -1370 -16 -80 -65 -229 -97 -292 -121 -240 -337 -432 -586 -523 -40
-15 -77 -28 -83 -29 -5 -1 -37 -9 -70 -16 -67 -15 -293 -19 -370 -7 -68 11
-138 28 -150 37 -5 4 -28 13 -50 20 -162 50 -407 238 -578 444 -65 77 -192
265 -232 344 -15 28 -29 52 -31 52 -1 0 -249 -246 -549 -546 l-546 -546 27
-47 c14 -25 64 -102 110 -171 316 -473 779 -826 1325 -1010 130 -44 188 -61
279 -79 91 -19 101 -20 195 -36 156 -26 547 -26 713 -1 476 72 899 252 1259
537 403 319 702 744 861 1224 27 82 58 191 68 238 2 10 5 26 8 35 14 46 37
198 52 342 8 74 12 4591 4 4595 -3 1 -50 -13 -105 -31z"/>
<path d="M6105 1673 c-206 -38 -384 -152 -499 -321 -62 -92 -91 -160 -123
-287 -10 -40 -11 -235 -1 -277 5 -24 12 -54 14 -67 3 -13 16 -51 30 -85 86
-212 265 -379 479 -445 95 -30 133 -35 250 -34 148 2 325 60 428 142 214 169
321 390 313 646 -4 120 -24 203 -76 310 -146 303 -487 477 -815 418z"/>
</g>
</svg>
