<?xml version="1.0" standalone="no"?>
<!DOCTYPE svg PUBLIC "-//W3C//DTD SVG 20010904//EN"
 "http://www.w3.org/TR/2001/REC-SVG-20010904/DTD/svg10.dtd">
<svg version="1.0" xmlns="http://www.w3.org/2000/svg"
 width="70.000000pt" height="70.000000pt" viewBox="0 0 70.000000 70.000000"
 preserveAspectRatio="xMidYMid meet">
<metadata>
Created by potrace 1.11, written by Peter Selinger 2001-2013
</metadata>
<g transform="translate(0.000000,70.000000) scale(0.100000,-0.100000)"
fill="#000000" stroke="none">
<path d="M107 662 c-10 -10 -17 -35 -17 -55 0 -36 1 -37 35 -37 28 0 35 4 35
20 0 19 7 20 95 20 l95 0 0 -39 0 -39 -89 -4 c-87 -3 -91 -4 -125 -37 -45 -44
-59 -87 -54 -162 5 -66 24 -100 78 -136 31 -22 43 -23 217 -23 202 0 233 6
272 56 l22 29 -29 13 c-27 13 -31 13 -51 -7 -20 -20 -31 -21 -205 -21 -229 0
-231 1 -231 110 0 66 2 74 28 96 24 20 39 24 98 24 l69 0 0 -110 0 -110 35 0
35 0 0 110 0 110 66 0 c79 0 101 -11 120 -56 12 -30 19 -35 42 -32 27 3 27 3
27 88 l0 85 -28 3 c-22 3 -30 -1 -34 -18 -4 -16 -11 -20 -27 -16 -11 3 -54 6
-93 6 l-73 0 0 39 0 40 53 3 c51 3 52 4 55 36 l3 32 -204 0 c-185 0 -205 -2
-220 -18z"/>
<path d="M309 119 c-32 -35 -41 -39 -83 -39 -52 0 -78 10 -116 46 -25 23 -25
23 -50 4 -31 -24 -23 -41 39 -85 39 -27 50 -30 120 -30 70 0 81 3 114 28 31
23 77 91 77 112 0 3 -15 5 -32 4 -25 0 -42 -10 -69 -40z"/>
</g>
</svg>
