<svg id="b8615245-1a6a-4674-8600-c62acc32f9f5" data-name="Layer 2" xmlns="http://www.w3.org/2000/svg" viewBox="0 0 331 289.5"><title>DesignIconW</title><rect x="4.5" y="4.5" width="322" height="229" rx="13.68" stroke-width="9" stroke="#fff" stroke-linecap="round" stroke-linejoin="round" fill="none"/><polyline points="199.5 235 199.5 270 131.5 270 131.5 235" fill="none" stroke="#fff" stroke-linecap="round" stroke-linejoin="round" stroke-width="9"/><path d="M727,480.25H630.49a5.44,5.44,0,0,1-4.39-8.66l4.65-6.34h96l4.65,6.34A5.44,5.44,0,0,1,727,480.25Z" transform="translate(-513.25 -195.25)" fill="none" stroke="#fff" stroke-linecap="round" stroke-linejoin="round" stroke-width="9"/><line x1="5" y1="200" x2="327" y2="200" fill="none" stroke="#fff" stroke-linecap="round" stroke-linejoin="round" stroke-width="7"/><circle cx="165.5" cy="217" r="7" fill="none" stroke="#fff" stroke-linecap="round" stroke-linejoin="round" stroke-width="5"/><path d="M661.24,330.55a27.45,27.45,0,0,1-9.55,1.7H566.81a27.56,27.56,0,0,1-27.56-27.56V257.81a27.56,27.56,0,0,1,27.56-27.56h84.88a27.56,27.56,0,0,1,27.56,27.56l.25,18.69" transform="translate(-513.25 -195.25)" fill="none" stroke="#fff" stroke-linecap="round" stroke-linejoin="round" stroke-width="7"/><rect x="149" y="79" width="140" height="102" rx="27.56" stroke-width="7" stroke="#fff" stroke-linecap="round" stroke-linejoin="round" fill="none"/><path d="M654.25,254.25" transform="translate(-513.25 -195.25)" fill="none" stroke="#fff" stroke-linecap="round" stroke-linejoin="round" stroke-width="5"/><rect x="50" y="52" width="93" height="14" stroke-width="5" stroke="#fff" stroke-linecap="round" stroke-linejoin="round" fill="none"/><circle cx="62.5" cy="82.5" r="7.5" fill="none" stroke="#fff" stroke-linecap="round" stroke-linejoin="round" stroke-width="5"/><circle cx="96.5" cy="93.5" r="15.5" fill="none" stroke="#fff" stroke-linecap="round" stroke-linejoin="round" stroke-width="5"/><line x1="64" y1="121" x2="128" y2="121" fill="none" stroke="#fff" stroke-linecap="round" stroke-linejoin="round" stroke-width="5"/><line x1="122" y1="92" x2="122" y2="112" fill="none" stroke="#fff" stroke-linecap="round" stroke-linejoin="round" stroke-width="5"/><polygon points="267 116 216 167 267 167 267 116" fill="none" stroke="#fff" stroke-linecap="round" stroke-linejoin="round" stroke-width="5"/><path d="M720.76,339.71a24,24,0,0,1,34-33.95" transform="translate(-513.25 -195.25)" fill="none" stroke="#fff" stroke-linecap="round" stroke-linejoin="round" stroke-width="5"/><rect x="712.25" y="301.25" width="7" height="7" rx="1.47" transform="translate(-519.1 400.12) rotate(-45)" stroke-width="3" stroke="#fff" stroke-linecap="round" stroke-linejoin="round" fill="none"/><line x1="199.53" y1="112.53" x2="185.53" y2="126.53" fill="#fff" stroke="#fff" stroke-linecap="round" stroke-linejoin="round" stroke-width="4"/><line x1="220.53" y1="91.53" x2="206.53" y2="105.53" fill="#fff" stroke="#fff" stroke-linecap="round" stroke-linejoin="round" stroke-width="4"/><circle cx="182.5" cy="129.5" r="3.5" fill="none" stroke="#fff" stroke-linecap="round" stroke-linejoin="round" stroke-width="3"/><circle cx="223.5" cy="88.5" r="3.5" fill="none" stroke="#fff" stroke-linecap="round" stroke-linejoin="round" stroke-width="3"/></svg>