<svg id="fa72dc55-7598-49e7-9a4f-0efc5435abb3" data-name="Layer 2" xmlns="http://www.w3.org/2000/svg" viewBox="0 0 327.5 285.5"><title>DesignIcon</title><rect x="2.5" y="2.5" width="322" height="229" rx="13.68" stroke-width="5" stroke="#000" stroke-linecap="round" stroke-linejoin="round" fill="none"/><polyline points="197.5 233 197.5 268 129.5 268 129.5 233" fill="none" stroke="#000" stroke-linecap="round" stroke-linejoin="round" stroke-width="5"/><path d="M298,390.25H201.49a5.44,5.44,0,0,1-4.39-8.66l4.65-6.34h96l4.65,6.34A5.44,5.44,0,0,1,298,390.25Z" transform="translate(-86.25 -107.25)" fill="none" stroke="#000" stroke-linecap="round" stroke-linejoin="round" stroke-width="5"/><line x1="3" y1="198" x2="325" y2="198" fill="none" stroke="#000" stroke-linecap="round" stroke-linejoin="round" stroke-width="5"/><circle cx="163.5" cy="215" r="7" fill="none" stroke="#000" stroke-linecap="round" stroke-linejoin="round" stroke-width="5"/><rect x="24" y="33" width="140" height="102" rx="27.56" stroke-width="5" stroke="#000" stroke-linecap="round" stroke-linejoin="round" fill="none"/><rect x="147" y="77" width="140" height="102" rx="27.56" stroke-width="5" stroke="#000" stroke-linecap="round" stroke-linejoin="round" fill="#fff"/><path d="M225.25,164.25" transform="translate(-86.25 -107.25)" fill="none" stroke="#000" stroke-linecap="round" stroke-linejoin="round" stroke-width="5"/><rect x="48" y="50" width="93" height="14" stroke-width="5" stroke="#000" stroke-linecap="round" stroke-linejoin="round" fill="none"/><circle cx="60.5" cy="80.5" r="7.5" fill="none" stroke="#000" stroke-linecap="round" stroke-linejoin="round" stroke-width="5"/><circle cx="94.5" cy="91.5" r="15.5" fill="none" stroke="#000" stroke-linecap="round" stroke-linejoin="round" stroke-width="5"/><line x1="62" y1="119" x2="126" y2="119" fill="none" stroke="#000" stroke-linecap="round" stroke-linejoin="round" stroke-width="5"/><line x1="120" y1="90" x2="120" y2="110" fill="none" stroke="#000" stroke-linecap="round" stroke-linejoin="round" stroke-width="5"/><polygon points="265 114 214 165 265 165 265 114" fill="none" stroke="#000" stroke-linecap="round" stroke-linejoin="round" stroke-width="5"/><path d="M291.76,249.71a24,24,0,0,1,33.95-34" transform="translate(-86.25 -107.25)" fill="none" stroke="#000" stroke-linecap="round" stroke-linejoin="round" stroke-width="5"/><rect x="283.25" y="211.25" width="7" height="7" rx="1.47" transform="translate(-154.11 158.41) rotate(-45)" stroke-width="3" stroke="#000" stroke-linecap="round" stroke-linejoin="round" fill="none"/><line x1="197.53" y1="110.53" x2="183.53" y2="124.53" fill="#fff" stroke="#000" stroke-linecap="round" stroke-linejoin="round" stroke-width="4"/><line x1="218.53" y1="89.53" x2="204.53" y2="103.53" fill="#fff" stroke="#000" stroke-linecap="round" stroke-linejoin="round" stroke-width="4"/><circle cx="180.5" cy="127.5" r="3.5" fill="none" stroke="#000" stroke-linecap="round" stroke-linejoin="round" stroke-width="3"/><circle cx="221.5" cy="86.5" r="3.5" fill="none" stroke="#000" stroke-linecap="round" stroke-linejoin="round" stroke-width="3"/></svg>