<svg width="2690" height="398" viewBox="0 0 2690 398" fill="none" xmlns="http://www.w3.org/2000/svg">
<path d="M0 0H498L548 199L498 398H0V0Z" fill="#FDCC1D"/>
<path d="M548 0H1046L1096 199L1046 398H548L588 199L548 0Z" fill="#FDCC1D"/>
<path d="M1096 0H1594L1644 199L1594 398H1096L1136 199L1096 0Z" fill="#FDCC1D"/>
<path d="M1644 0H2142L2192 199L2142 398H1644L1684 199L1644 0Z" fill="#FDCC1D"/>
<path d="M2192 0H2690V199V398H2192L2232 199L2192 0Z" fill="#FDCC1D"/>
<path d="M165.842 107L157.054 94.52C161.942 92.804 165.166 88.644 165.166 83.34C165.166 76.268 159.446 71.276 151.698 71.276H135.63V107H143.274V95.404H148.942L157.106 107H165.842ZM143.274 78.296H150.866C154.662 78.296 157.262 80.272 157.262 83.34C157.262 86.408 154.662 88.384 150.866 88.384H143.274V78.296ZM183.352 100.916C180.18 100.916 177.84 98.94 176.956 96.028H196.352C196.352 85.888 191.412 79.492 182.988 79.492C175.136 79.492 169.156 85.368 169.156 93.48C169.156 101.748 175.396 107.624 183.404 107.624C187.356 107.624 191.984 105.96 194.376 103.464L189.54 98.524C188.084 99.928 185.484 100.916 183.352 100.916ZM183.3 86.2C186.368 86.2 188.344 87.916 189.072 90.568H177.06C178.048 87.864 180.44 86.2 183.3 86.2ZM211.576 107.624C218.18 107.624 222.496 104.244 222.496 98.94C222.496 93.064 217.348 91.504 212.72 90.308C209.08 89.32 207.988 88.904 207.988 87.448C207.988 86.512 209.288 85.836 211.16 85.836C213.448 85.836 216.256 86.72 218.7 88.228L221.768 82.82C218.804 80.844 215.008 79.492 211.16 79.492C204.816 79.492 200.604 83.132 200.656 88.228C200.708 93.532 204.972 95.04 210.484 96.392C213.24 97.12 215.216 97.64 215.216 99.304C215.216 100.5 213.76 101.332 211.732 101.332C208.144 101.332 205.128 100.032 202.736 98.316L199.46 103.568C202.684 106.168 207.26 107.624 211.576 107.624ZM240.278 100.916C237.106 100.916 234.766 98.94 233.882 96.028H253.278C253.278 85.888 248.338 79.492 239.914 79.492C232.062 79.492 226.082 85.368 226.082 93.48C226.082 101.748 232.322 107.624 240.33 107.624C244.282 107.624 248.91 105.96 251.302 103.464L246.466 98.524C245.01 99.928 242.41 100.916 240.278 100.916ZM240.226 86.2C243.294 86.2 245.27 87.916 245.998 90.568H233.986C234.974 87.864 237.366 86.2 240.226 86.2ZM270.426 79.492C266.682 79.492 262.99 80.532 259.194 82.456L261.742 87.5C263.874 86.408 266.214 85.576 268.71 85.576C273.13 85.576 274.898 88.072 274.898 90.932V91.452C272.61 90.568 270.218 90.1 268.034 90.1C261.794 90.1 256.854 93.74 256.854 99.044C256.854 104.192 261.274 107.624 266.994 107.624C269.906 107.624 272.974 106.48 274.898 104.296V107H282.23V90.932C282.23 83.912 277.446 79.492 270.426 79.492ZM268.71 102.372C266.11 102.372 264.186 101.02 264.186 98.836C264.186 96.652 266.37 95.04 269.126 95.04C271.206 95.04 273.182 95.404 274.898 96.028V98.524C274.378 101.02 271.622 102.372 268.71 102.372ZM296.221 85.108V80.116H288.629V107H296.221V94.156C296.221 89.112 299.809 85.888 305.425 85.888V79.492C301.317 79.492 297.989 81.624 296.221 85.108ZM322.961 107.624C327.433 107.624 331.073 105.804 333.725 102.892L328.681 98.628C327.277 100.188 325.093 101.228 323.013 101.228C319.009 101.228 315.681 97.692 315.681 93.48C315.681 89.372 319.009 85.888 322.961 85.888C325.041 85.888 327.173 86.876 328.525 88.384L333.569 84.068C330.969 81.26 327.381 79.492 323.013 79.492C315.057 79.492 308.297 85.888 308.297 93.532C308.297 101.176 315.005 107.624 322.961 107.624ZM353.841 79.492C350.409 79.492 347.445 81.052 345.781 83.392V70.652H338.189V107H345.781V91.088C345.781 88.176 348.225 85.888 351.397 85.888C354.413 85.888 356.493 88.176 356.493 91.504V107H363.825V89.892C363.825 83.808 359.665 79.492 353.841 79.492Z" fill="black"/>
<path d="M117.875 196.54C125.615 196.54 131.15 190.915 131.15 182.995V165.085H126.56V182.905C126.56 188.44 122.96 192.4 117.875 192.4C112.745 192.4 109.145 188.44 109.145 182.905V165.085H104.6V182.995C104.6 190.915 110.09 196.54 117.875 196.54ZM146.361 196.54C151.446 196.54 155.181 193.75 155.181 189.34C155.181 184.705 151.086 183.445 147.261 182.32C143.346 181.105 141.906 180.565 141.906 178.765C141.906 177.01 143.706 176.02 146.001 176.02C148.026 176.02 150.366 176.785 152.616 178.18L154.596 174.895C152.076 173.23 149.016 172.195 146.001 172.195C141.051 172.195 137.496 174.985 137.541 179.26C137.541 183.04 140.196 184.57 145.551 186.055C148.431 186.865 150.816 187.54 150.816 189.7C150.816 191.5 149.016 192.715 146.406 192.715C143.661 192.715 141.006 191.68 138.531 189.88L136.416 193.075C139.206 195.325 142.941 196.54 146.361 196.54ZM171.023 192.58C167.018 192.58 164.183 189.79 163.598 185.92H181.913C181.913 177.595 177.818 172.195 170.708 172.195C164.273 172.195 159.098 177.325 159.098 184.3C159.098 191.455 164.588 196.54 171.068 196.54C174.353 196.54 178.403 195.145 180.473 192.94L177.683 190.06C176.288 191.5 173.453 192.58 171.023 192.58ZM170.888 176.155C174.893 176.155 177.098 178.765 177.593 182.365H163.643C164.363 178.585 167.288 176.155 170.888 176.155ZM191.757 177.19V172.735H187.302V196H191.757V182.77C192.162 178.72 195.582 176.065 200.397 176.065V172.195C196.392 172.195 193.242 174.13 191.757 177.19ZM213.158 196.54C218.243 196.54 221.978 193.75 221.978 189.34C221.978 184.705 217.883 183.445 214.058 182.32C210.143 181.105 208.703 180.565 208.703 178.765C208.703 177.01 210.503 176.02 212.798 176.02C214.823 176.02 217.163 176.785 219.413 178.18L221.393 174.895C218.873 173.23 215.813 172.195 212.798 172.195C207.848 172.195 204.293 174.985 204.338 179.26C204.338 183.04 206.993 184.57 212.348 186.055C215.228 186.865 217.613 187.54 217.613 189.7C217.613 191.5 215.813 192.715 213.203 192.715C210.458 192.715 207.803 191.68 205.328 189.88L203.213 193.075C206.003 195.325 209.738 196.54 213.158 196.54ZM249.796 172.195C247.231 172.195 244.306 172.87 240.976 174.535L242.596 177.82C244.621 176.785 246.871 175.885 249.166 175.885C253.801 175.885 255.151 178.99 255.151 181.915V182.635C252.901 181.87 250.426 181.375 248.131 181.375C243.001 181.375 238.816 184.48 238.816 189.115C238.816 193.66 242.461 196.54 247.411 196.54C250.246 196.54 253.441 195.235 255.151 192.805V196H259.516V181.915C259.516 176.155 256.051 172.195 249.796 172.195ZM248.266 193.03C245.341 193.03 243.091 191.5 243.091 188.98C243.091 186.46 245.701 184.705 248.806 184.705C251.101 184.705 253.261 185.02 255.151 185.605V188.71C254.386 191.59 251.146 193.03 248.266 193.03ZM277.794 172.195C274.644 172.195 271.809 173.815 270.414 176.11V172.735H265.959V196H270.414V180.925C270.774 178.18 273.564 176.065 276.804 176.065C279.954 176.065 282.159 178.495 282.159 181.96V196H286.524V181.195C286.524 175.93 282.924 172.195 277.794 172.195ZM310.807 164.545V176.74C309.007 173.905 306.127 172.195 302.527 172.195C296.407 172.195 291.817 177.235 291.817 184.345C291.817 191.5 296.407 196.54 302.527 196.54C306.127 196.54 309.007 194.83 310.807 191.95V196H315.217V164.545H310.807ZM303.607 192.67C299.332 192.67 296.317 189.205 296.317 184.345C296.317 179.485 299.332 176.065 303.607 176.065C307.792 176.065 310.807 179.485 310.807 184.345C310.807 189.205 307.792 192.67 303.607 192.67ZM345.667 191.815C345.172 192.31 344.272 192.67 343.282 192.67C341.977 192.67 340.897 191.5 340.897 189.88V176.515H346.387V172.735H340.897V166.345H336.532V172.735H333.022V176.515H336.532V190.195C336.532 193.93 339.052 196.54 342.652 196.54C344.317 196.54 346.027 195.91 347.287 194.875L345.667 191.815ZM363.663 172.195C360.468 172.195 357.633 173.86 356.238 176.2V164.545H351.828V196H356.238V181.555C356.238 178.54 359.163 176.065 362.673 176.065C365.823 176.065 368.028 178.495 368.028 181.96V196H372.393V181.195C372.393 175.93 368.793 172.195 363.663 172.195ZM389.431 192.58C385.426 192.58 382.591 189.79 382.006 185.92H400.321C400.321 177.595 396.226 172.195 389.116 172.195C382.681 172.195 377.506 177.325 377.506 184.3C377.506 191.455 382.996 196.54 389.476 196.54C392.761 196.54 396.811 195.145 398.881 192.94L396.091 190.06C394.696 191.5 391.861 192.58 389.431 192.58ZM389.296 176.155C393.301 176.155 395.506 178.765 396.001 182.365H382.051C382.771 178.585 385.696 176.155 389.296 176.155ZM122.15 214.545V226.74C120.35 223.905 117.47 222.195 113.87 222.195C107.75 222.195 103.16 227.235 103.16 234.345C103.16 241.5 107.75 246.54 113.87 246.54C117.47 246.54 120.35 244.83 122.15 241.95V246H126.56V214.545H122.15ZM114.95 242.67C110.675 242.67 107.66 239.205 107.66 234.345C107.66 229.485 110.675 226.065 114.95 226.065C119.135 226.065 122.15 229.485 122.15 234.345C122.15 239.205 119.135 242.67 114.95 242.67ZM144.269 246.54C150.884 246.54 156.464 240.96 156.464 234.345C156.464 227.73 150.884 222.195 144.269 222.195C137.609 222.195 131.984 227.73 131.984 234.345C131.984 240.96 137.609 246.54 144.269 246.54ZM144.269 242.67C139.994 242.67 136.439 238.89 136.439 234.345C136.439 229.845 139.994 226.065 144.269 226.065C148.454 226.065 152.009 229.845 152.009 234.345C152.009 238.89 148.454 242.67 144.269 242.67ZM187.687 222.195C184.177 222.195 181.207 223.995 180.127 226.875C178.777 223.995 176.032 222.195 172.657 222.195C169.687 222.195 167.257 223.68 166.087 225.975V222.735H161.632V246H166.087V231.465C166.087 228.27 168.427 226.065 171.757 226.065C174.682 226.065 176.707 228.45 176.707 231.87V246H181.072V231.465C181.072 228.27 183.412 226.065 186.742 226.065C189.667 226.065 191.692 228.45 191.692 231.87V246H196.057V231.195C196.057 225.93 192.547 222.195 187.687 222.195ZM212.223 222.195C209.658 222.195 206.733 222.87 203.403 224.535L205.023 227.82C207.048 226.785 209.298 225.885 211.593 225.885C216.228 225.885 217.578 228.99 217.578 231.915V232.635C215.328 231.87 212.853 231.375 210.558 231.375C205.428 231.375 201.243 234.48 201.243 239.115C201.243 243.66 204.888 246.54 209.838 246.54C212.673 246.54 215.868 245.235 217.578 242.805V246H221.943V231.915C221.943 226.155 218.478 222.195 212.223 222.195ZM210.693 243.03C207.768 243.03 205.518 241.5 205.518 238.98C205.518 236.46 208.128 234.705 211.233 234.705C213.528 234.705 215.688 235.02 217.578 235.605V238.71C216.813 241.59 213.573 243.03 210.693 243.03ZM230.591 218.865C232.031 218.865 233.246 217.605 233.246 216.165C233.246 214.77 232.031 213.51 230.591 213.51C229.061 213.51 227.891 214.77 227.891 216.165C227.891 217.605 229.061 218.865 230.591 218.865ZM228.341 246H232.796V222.735H228.341V246ZM251.075 222.195C247.925 222.195 245.09 223.815 243.695 226.11V222.735H239.24V246H243.695V230.925C244.055 228.18 246.845 226.065 250.085 226.065C253.235 226.065 255.44 228.495 255.44 231.96V246H259.805V231.195C259.805 225.93 256.205 222.195 251.075 222.195Z" fill="black"/>
<path d="M646.225 196.54C654.91 196.54 662.2 189.205 662.2 180.52C662.2 171.835 654.91 164.545 646.225 164.545C637.54 164.545 630.16 171.835 630.16 180.52C630.16 189.205 637.54 196.54 646.225 196.54ZM646.225 192.355C640.06 192.355 634.84 186.955 634.84 180.52C634.84 174.13 640.06 168.73 646.225 168.73C652.39 168.73 657.565 174.13 657.565 180.52C657.565 186.955 652.39 192.355 646.225 192.355ZM673.747 170.17C673.747 168.55 674.827 167.38 676.132 167.38C677.122 167.38 678.022 167.74 678.517 168.235L680.137 165.265C678.877 164.23 677.167 163.6 675.502 163.6C671.902 163.6 669.382 166.21 669.382 169.945V172.735H665.872V176.515H669.382V196H673.747V176.515H679.237V172.735H673.747V170.17ZM712.739 172.735V187.81C712.379 190.555 709.589 192.67 706.349 192.67C703.199 192.67 700.994 190.24 700.994 186.775V172.735H696.629V187.54C696.629 192.805 700.229 196.54 705.359 196.54C708.509 196.54 711.344 194.92 712.739 192.625V196H717.194V172.735H712.739ZM732.072 196.54C737.157 196.54 740.892 193.75 740.892 189.34C740.892 184.705 736.797 183.445 732.972 182.32C729.057 181.105 727.617 180.565 727.617 178.765C727.617 177.01 729.417 176.02 731.712 176.02C733.737 176.02 736.077 176.785 738.327 178.18L740.307 174.895C737.787 173.23 734.727 172.195 731.712 172.195C726.762 172.195 723.207 174.985 723.252 179.26C723.252 183.04 725.907 184.57 731.262 186.055C734.142 186.865 736.527 187.54 736.527 189.7C736.527 191.5 734.727 192.715 732.117 192.715C729.372 192.715 726.717 191.68 724.242 189.88L722.127 193.075C724.917 195.325 728.652 196.54 732.072 196.54ZM756.734 192.58C752.729 192.58 749.894 189.79 749.309 185.92H767.624C767.624 177.595 763.529 172.195 756.419 172.195C749.984 172.195 744.809 177.325 744.809 184.3C744.809 191.455 750.299 196.54 756.779 196.54C760.064 196.54 764.114 195.145 766.184 192.94L763.394 190.06C761.999 191.5 759.164 192.58 756.734 192.58ZM756.599 176.155C760.604 176.155 762.809 178.765 763.304 182.365H749.354C750.074 178.585 752.999 176.155 756.599 176.155ZM777.468 177.19V172.735H773.013V196H777.468V182.77C777.873 178.72 781.293 176.065 786.108 176.065V172.195C782.103 172.195 778.953 174.13 777.468 177.19ZM798.869 196.54C803.954 196.54 807.689 193.75 807.689 189.34C807.689 184.705 803.594 183.445 799.769 182.32C795.854 181.105 794.414 180.565 794.414 178.765C794.414 177.01 796.214 176.02 798.509 176.02C800.534 176.02 802.874 176.785 805.124 178.18L807.104 174.895C804.584 173.23 801.524 172.195 798.509 172.195C793.559 172.195 790.004 174.985 790.049 179.26C790.049 183.04 792.704 184.57 798.059 186.055C800.939 186.865 803.324 187.54 803.324 189.7C803.324 191.5 801.524 192.715 798.914 192.715C796.169 192.715 793.514 191.68 791.039 189.88L788.924 193.075C791.714 195.325 795.449 196.54 798.869 196.54ZM835.507 172.195C832.942 172.195 830.017 172.87 826.687 174.535L828.307 177.82C830.332 176.785 832.582 175.885 834.877 175.885C839.512 175.885 840.862 178.99 840.862 181.915V182.635C838.612 181.87 836.137 181.375 833.842 181.375C828.712 181.375 824.527 184.48 824.527 189.115C824.527 193.66 828.172 196.54 833.122 196.54C835.957 196.54 839.152 195.235 840.862 192.805V196H845.227V181.915C845.227 176.155 841.762 172.195 835.507 172.195ZM833.977 193.03C831.052 193.03 828.802 191.5 828.802 188.98C828.802 186.46 831.412 184.705 834.517 184.705C836.812 184.705 838.972 185.02 840.862 185.605V188.71C840.097 191.59 836.857 193.03 833.977 193.03ZM863.505 172.195C860.355 172.195 857.52 173.815 856.125 176.11V172.735H851.67V196H856.125V180.925C856.485 178.18 859.275 176.065 862.515 176.065C865.665 176.065 867.87 178.495 867.87 181.96V196H872.235V181.195C872.235 175.93 868.635 172.195 863.505 172.195ZM896.518 164.545V176.74C894.718 173.905 891.838 172.195 888.238 172.195C882.118 172.195 877.528 177.235 877.528 184.345C877.528 191.5 882.118 196.54 888.238 196.54C891.838 196.54 894.718 194.83 896.518 191.95V196H900.928V164.545H896.518ZM889.318 192.67C885.043 192.67 882.028 189.205 882.028 184.345C882.028 179.485 885.043 176.065 889.318 176.065C893.503 176.065 896.518 179.485 896.518 184.345C896.518 189.205 893.503 192.67 889.318 192.67ZM931.378 191.815C930.883 192.31 929.983 192.67 928.993 192.67C927.688 192.67 926.608 191.5 926.608 189.88V176.515H932.098V172.735H926.608V166.345H922.243V172.735H918.733V176.515H922.243V190.195C922.243 193.93 924.763 196.54 928.363 196.54C930.028 196.54 931.738 195.91 932.998 194.875L931.378 191.815ZM949.374 172.195C946.179 172.195 943.344 173.86 941.949 176.2V164.545H937.539V196H941.949V181.555C941.949 178.54 944.874 176.065 948.384 176.065C951.534 176.065 953.739 178.495 953.739 181.96V196H958.104V181.195C958.104 175.93 954.504 172.195 949.374 172.195ZM975.142 192.58C971.137 192.58 968.302 189.79 967.717 185.92H986.032C986.032 177.595 981.937 172.195 974.827 172.195C968.392 172.195 963.217 177.325 963.217 184.3C963.217 191.455 968.707 196.54 975.187 196.54C978.472 196.54 982.522 195.145 984.592 192.94L981.802 190.06C980.407 191.5 977.572 192.58 975.142 192.58ZM975.007 176.155C979.012 176.155 981.217 178.765 981.712 182.365H967.762C968.482 178.585 971.407 176.155 975.007 176.155ZM993.401 168.865C994.841 168.865 996.056 167.605 996.056 166.165C996.056 164.77 994.841 163.51 993.401 163.51C991.871 163.51 990.701 164.77 990.701 166.165C990.701 167.605 991.871 168.865 993.401 168.865ZM991.151 196H995.606V172.735H991.151V196ZM1006.73 177.19V172.735H1002.28V196H1006.73V182.77C1007.14 178.72 1010.56 176.065 1015.37 176.065V172.195C1011.37 172.195 1008.22 174.13 1006.73 177.19ZM648.925 222.735V226.47C647.17 223.86 644.2 222.195 640.69 222.195C634.57 222.195 630.115 226.74 630.115 233.22C630.115 239.7 634.57 244.29 640.69 244.29C644.2 244.29 647.08 242.715 648.925 240.06V243.435C648.925 247.485 645.91 249.87 640.915 249.87C638.125 249.87 635.335 248.925 633.625 247.305L631.87 250.635C634.075 252.435 637.675 253.74 641.59 253.74C648.475 253.74 653.38 249.51 653.38 243.525V222.735H648.925ZM641.815 240.42C637.675 240.42 634.75 237.45 634.75 233.22C634.75 229.035 637.675 226.065 641.815 226.065C645.955 226.065 648.925 229.035 648.925 233.22C648.925 237.45 645.955 240.42 641.815 240.42ZM671.049 246.54C677.664 246.54 683.244 240.96 683.244 234.345C683.244 227.73 677.664 222.195 671.049 222.195C664.389 222.195 658.764 227.73 658.764 234.345C658.764 240.96 664.389 246.54 671.049 246.54ZM671.049 242.67C666.774 242.67 663.219 238.89 663.219 234.345C663.219 229.845 666.774 226.065 671.049 226.065C675.234 226.065 678.789 229.845 678.789 234.345C678.789 238.89 675.234 242.67 671.049 242.67ZM698.222 222.195C695.657 222.195 692.732 222.87 689.402 224.535L691.022 227.82C693.047 226.785 695.297 225.885 697.592 225.885C702.227 225.885 703.577 228.99 703.577 231.915V232.635C701.327 231.87 698.852 231.375 696.557 231.375C691.427 231.375 687.242 234.48 687.242 239.115C687.242 243.66 690.887 246.54 695.837 246.54C698.672 246.54 701.867 245.235 703.577 242.805V246H707.942V231.915C707.942 226.155 704.477 222.195 698.222 222.195ZM696.692 243.03C693.767 243.03 691.517 241.5 691.517 238.98C691.517 236.46 694.127 234.705 697.232 234.705C699.527 234.705 701.687 235.02 703.577 235.605V238.71C702.812 241.59 699.572 243.03 696.692 243.03ZM714.385 246H718.795V214.545H714.385V246ZM733.698 246.54C738.783 246.54 742.518 243.75 742.518 239.34C742.518 234.705 738.423 233.445 734.598 232.32C730.683 231.105 729.243 230.565 729.243 228.765C729.243 227.01 731.043 226.02 733.338 226.02C735.363 226.02 737.703 226.785 739.953 228.18L741.933 224.895C739.413 223.23 736.353 222.195 733.338 222.195C728.388 222.195 724.833 224.985 724.878 229.26C724.878 233.04 727.533 234.57 732.888 236.055C735.768 236.865 738.153 237.54 738.153 239.7C738.153 241.5 736.353 242.715 733.743 242.715C730.998 242.715 728.343 241.68 725.868 239.88L723.753 243.075C726.543 245.325 730.278 246.54 733.698 246.54Z" fill="black"/>
<path d="M1190.92 180H1201.58C1211.57 180 1218.68 173.565 1218.68 164.52C1218.68 155.475 1211.57 149.085 1201.58 149.085H1190.92V180ZM1195.46 175.86V153.225H1201.85C1209.01 153.225 1214 157.905 1214 164.52C1214 171.18 1209.01 175.86 1201.85 175.86H1195.46ZM1235.18 176.58C1231.18 176.58 1228.34 173.79 1227.76 169.92H1246.07C1246.07 161.595 1241.98 156.195 1234.87 156.195C1228.43 156.195 1223.26 161.325 1223.26 168.3C1223.26 175.455 1228.75 180.54 1235.23 180.54C1238.51 180.54 1242.56 179.145 1244.63 176.94L1241.84 174.06C1240.45 175.5 1237.61 176.58 1235.18 176.58ZM1235.05 160.155C1239.05 160.155 1241.26 162.765 1241.75 166.365H1227.8C1228.52 162.585 1231.45 160.155 1235.05 160.155ZM1257.36 154.17C1257.36 152.55 1258.44 151.38 1259.74 151.38C1260.73 151.38 1261.63 151.74 1262.13 152.235L1263.75 149.265C1262.49 148.23 1260.78 147.6 1259.11 147.6C1255.51 147.6 1252.99 150.21 1252.99 153.945V156.735H1249.48V160.515H1252.99V180H1257.36V160.515H1262.85V156.735H1257.36V154.17ZM1269.66 152.865C1271.1 152.865 1272.31 151.605 1272.31 150.165C1272.31 148.77 1271.1 147.51 1269.66 147.51C1268.13 147.51 1266.96 148.77 1266.96 150.165C1266.96 151.605 1268.13 152.865 1269.66 152.865ZM1267.41 180H1271.86V156.735H1267.41V180ZM1290.14 156.195C1286.99 156.195 1284.16 157.815 1282.76 160.11V156.735H1278.31V180H1282.76V164.925C1283.12 162.18 1285.91 160.065 1289.15 160.065C1292.3 160.065 1294.51 162.495 1294.51 165.96V180H1298.87V165.195C1298.87 159.93 1295.27 156.195 1290.14 156.195ZM1307.45 152.865C1308.89 152.865 1310.1 151.605 1310.1 150.165C1310.1 148.77 1308.89 147.51 1307.45 147.51C1305.92 147.51 1304.75 148.77 1304.75 150.165C1304.75 151.605 1305.92 152.865 1307.45 152.865ZM1305.2 180H1309.65V156.735H1305.2V180ZM1326.99 175.815C1326.49 176.31 1325.59 176.67 1324.6 176.67C1323.3 176.67 1322.22 175.5 1322.22 173.88V160.515H1327.71V156.735H1322.22V150.345H1317.85V156.735H1314.34V160.515H1317.85V174.195C1317.85 177.93 1320.37 180.54 1323.97 180.54C1325.64 180.54 1327.35 179.91 1328.61 178.875L1326.99 175.815ZM1335.36 152.865C1336.8 152.865 1338.01 151.605 1338.01 150.165C1338.01 148.77 1336.8 147.51 1335.36 147.51C1333.83 147.51 1332.66 148.77 1332.66 150.165C1332.66 151.605 1333.83 152.865 1335.36 152.865ZM1333.11 180H1337.56V156.735H1333.11V180ZM1355.03 180.54C1361.64 180.54 1367.22 174.96 1367.22 168.345C1367.22 161.73 1361.64 156.195 1355.03 156.195C1348.37 156.195 1342.74 161.73 1342.74 168.345C1342.74 174.96 1348.37 180.54 1355.03 180.54ZM1355.03 176.67C1350.75 176.67 1347.2 172.89 1347.2 168.345C1347.2 163.845 1350.75 160.065 1355.03 160.065C1359.21 160.065 1362.77 163.845 1362.77 168.345C1362.77 172.89 1359.21 176.67 1355.03 176.67ZM1384.27 156.195C1381.12 156.195 1378.29 157.815 1376.89 160.11V156.735H1372.44V180H1376.89V164.925C1377.25 162.18 1380.04 160.065 1383.28 160.065C1386.43 160.065 1388.64 162.495 1388.64 165.96V180H1393V165.195C1393 159.93 1389.4 156.195 1384.27 156.195ZM1423.28 180.54C1429.89 180.54 1435.47 174.96 1435.47 168.345C1435.47 161.73 1429.89 156.195 1423.28 156.195C1416.62 156.195 1410.99 161.73 1410.99 168.345C1410.99 174.96 1416.62 180.54 1423.28 180.54ZM1423.28 176.67C1419 176.67 1415.45 172.89 1415.45 168.345C1415.45 163.845 1419 160.065 1423.28 160.065C1427.46 160.065 1431.02 163.845 1431.02 168.345C1431.02 172.89 1427.46 176.67 1423.28 176.67ZM1446.8 154.17C1446.8 152.55 1447.88 151.38 1449.19 151.38C1450.18 151.38 1451.08 151.74 1451.57 152.235L1453.19 149.265C1451.93 148.23 1450.22 147.6 1448.56 147.6C1444.96 147.6 1442.44 150.21 1442.44 153.945V156.735H1438.93V160.515H1442.44V180H1446.8V160.515H1452.29V156.735H1446.8V154.17ZM1485.8 156.735V171.81C1485.44 174.555 1482.65 176.67 1479.41 176.67C1476.26 176.67 1474.05 174.24 1474.05 170.775V156.735H1469.69V171.54C1469.69 176.805 1473.29 180.54 1478.42 180.54C1481.57 180.54 1484.4 178.92 1485.8 176.625V180H1490.25V156.735H1485.8ZM1505.13 180.54C1510.21 180.54 1513.95 177.75 1513.95 173.34C1513.95 168.705 1509.85 167.445 1506.03 166.32C1502.11 165.105 1500.67 164.565 1500.67 162.765C1500.67 161.01 1502.47 160.02 1504.77 160.02C1506.79 160.02 1509.13 160.785 1511.38 162.18L1513.36 158.895C1510.84 157.23 1507.78 156.195 1504.77 156.195C1499.82 156.195 1496.26 158.985 1496.31 163.26C1496.31 167.04 1498.96 168.57 1504.32 170.055C1507.2 170.865 1509.58 171.54 1509.58 173.7C1509.58 175.5 1507.78 176.715 1505.17 176.715C1502.43 176.715 1499.77 175.68 1497.3 173.88L1495.18 177.075C1497.97 179.325 1501.71 180.54 1505.13 180.54ZM1529.79 176.58C1525.79 176.58 1522.95 173.79 1522.37 169.92H1540.68C1540.68 161.595 1536.59 156.195 1529.48 156.195C1523.04 156.195 1517.87 161.325 1517.87 168.3C1517.87 175.455 1523.36 180.54 1529.84 180.54C1533.12 180.54 1537.17 179.145 1539.24 176.94L1536.45 174.06C1535.06 175.5 1532.22 176.58 1529.79 176.58ZM1529.66 160.155C1533.66 160.155 1535.87 162.765 1536.36 166.365H1522.41C1523.13 162.585 1526.06 160.155 1529.66 160.155ZM1550.53 161.19V156.735H1546.07V180H1550.53V166.77C1550.93 162.72 1554.35 160.065 1559.17 160.065V156.195C1555.16 156.195 1552.01 158.13 1550.53 161.19ZM1565.76 186.165C1568.64 182.88 1569.68 180.945 1569.68 178.83C1569.68 176.355 1568.42 174.555 1566.44 174.555C1564.73 174.555 1563.42 175.95 1563.42 177.525C1563.42 179.19 1564.73 180.54 1566.35 180.54C1565.99 181.935 1565.18 183.375 1563.87 184.725L1565.76 186.165ZM1203.16 206.195C1199.56 206.195 1196.68 207.905 1194.88 210.74V198.545H1190.47V230H1194.88V225.95C1196.68 228.83 1199.56 230.54 1203.16 230.54C1209.28 230.54 1213.87 225.5 1213.87 218.345C1213.87 211.235 1209.28 206.195 1203.16 206.195ZM1202.08 226.67C1197.89 226.67 1194.88 223.205 1194.88 218.345C1194.88 213.485 1197.89 210.065 1202.08 210.065C1206.35 210.065 1209.37 213.485 1209.37 218.345C1209.37 223.205 1206.35 226.67 1202.08 226.67ZM1235.26 206.735V221.81C1234.9 224.555 1232.11 226.67 1228.87 226.67C1225.72 226.67 1223.52 224.24 1223.52 220.775V206.735H1219.15V221.54C1219.15 226.805 1222.75 230.54 1227.88 230.54C1231.03 230.54 1233.87 228.92 1235.26 226.625V230H1239.72V206.735H1235.26ZM1254.6 230.54C1259.68 230.54 1263.42 227.75 1263.42 223.34C1263.42 218.705 1259.32 217.445 1255.5 216.32C1251.58 215.105 1250.14 214.565 1250.14 212.765C1250.14 211.01 1251.94 210.02 1254.24 210.02C1256.26 210.02 1258.6 210.785 1260.85 212.18L1262.83 208.895C1260.31 207.23 1257.25 206.195 1254.24 206.195C1249.29 206.195 1245.73 208.985 1245.78 213.26C1245.78 217.04 1248.43 218.57 1253.79 220.055C1256.67 220.865 1259.05 221.54 1259.05 223.7C1259.05 225.5 1257.25 226.715 1254.64 226.715C1251.9 226.715 1249.24 225.68 1246.77 223.88L1244.65 227.075C1247.44 229.325 1251.18 230.54 1254.6 230.54ZM1270.8 202.865C1272.24 202.865 1273.45 201.605 1273.45 200.165C1273.45 198.77 1272.24 197.51 1270.8 197.51C1269.27 197.51 1268.1 198.77 1268.1 200.165C1268.1 201.605 1269.27 202.865 1270.8 202.865ZM1268.55 230H1273V206.735H1268.55V230ZM1291.28 206.195C1288.13 206.195 1285.3 207.815 1283.9 210.11V206.735H1279.45V230H1283.9V214.925C1284.26 212.18 1287.05 210.065 1290.29 210.065C1293.44 210.065 1295.65 212.495 1295.65 215.96V230H1300.01V215.195C1300.01 209.93 1296.41 206.195 1291.28 206.195ZM1317.05 226.58C1313.05 226.58 1310.21 223.79 1309.63 219.92H1327.94C1327.94 211.595 1323.85 206.195 1316.74 206.195C1310.3 206.195 1305.13 211.325 1305.13 218.3C1305.13 225.455 1310.62 230.54 1317.1 230.54C1320.38 230.54 1324.43 229.145 1326.5 226.94L1323.71 224.06C1322.32 225.5 1319.48 226.58 1317.05 226.58ZM1316.92 210.155C1320.92 210.155 1323.13 212.765 1323.62 216.365H1309.67C1310.39 212.585 1313.32 210.155 1316.92 210.155ZM1341.52 230.54C1346.61 230.54 1350.34 227.75 1350.34 223.34C1350.34 218.705 1346.25 217.445 1342.42 216.32C1338.51 215.105 1337.07 214.565 1337.07 212.765C1337.07 211.01 1338.87 210.02 1341.16 210.02C1343.19 210.02 1345.53 210.785 1347.78 212.18L1349.76 208.895C1347.24 207.23 1344.18 206.195 1341.16 206.195C1336.21 206.195 1332.66 208.985 1332.7 213.26C1332.7 217.04 1335.36 218.57 1340.71 220.055C1343.59 220.865 1345.98 221.54 1345.98 223.7C1345.98 225.5 1344.18 226.715 1341.57 226.715C1338.82 226.715 1336.17 225.68 1333.69 223.88L1331.58 227.075C1334.37 229.325 1338.1 230.54 1341.52 230.54ZM1363.93 230.54C1369.02 230.54 1372.75 227.75 1372.75 223.34C1372.75 218.705 1368.66 217.445 1364.83 216.32C1360.92 215.105 1359.48 214.565 1359.48 212.765C1359.48 211.01 1361.28 210.02 1363.57 210.02C1365.6 210.02 1367.94 210.785 1370.19 212.18L1372.17 208.895C1369.65 207.23 1366.59 206.195 1363.57 206.195C1358.62 206.195 1355.07 208.985 1355.11 213.26C1355.11 217.04 1357.77 218.57 1363.12 220.055C1366 220.865 1368.39 221.54 1368.39 223.7C1368.39 225.5 1366.59 226.715 1363.98 226.715C1361.23 226.715 1358.58 225.68 1356.1 223.88L1353.99 227.075C1356.78 229.325 1360.51 230.54 1363.93 230.54ZM1380.18 236.165C1383.06 232.88 1384.1 230.945 1384.1 228.83C1384.1 226.355 1382.84 224.555 1380.86 224.555C1379.15 224.555 1377.84 225.95 1377.84 227.525C1377.84 229.19 1379.15 230.54 1380.77 230.54C1380.41 231.935 1379.6 233.375 1378.29 234.725L1380.18 236.165ZM1412.92 206.195C1410.36 206.195 1407.43 206.87 1404.1 208.535L1405.72 211.82C1407.75 210.785 1410 209.885 1412.29 209.885C1416.93 209.885 1418.28 212.99 1418.28 215.915V216.635C1416.03 215.87 1413.55 215.375 1411.26 215.375C1406.13 215.375 1401.94 218.48 1401.94 223.115C1401.94 227.66 1405.59 230.54 1410.54 230.54C1413.37 230.54 1416.57 229.235 1418.28 226.805V230H1422.64V215.915C1422.64 210.155 1419.18 206.195 1412.92 206.195ZM1411.39 227.03C1408.47 227.03 1406.22 225.5 1406.22 222.98C1406.22 220.46 1408.83 218.705 1411.93 218.705C1414.23 218.705 1416.39 219.02 1418.28 219.605V222.71C1417.51 225.59 1414.27 227.03 1411.39 227.03ZM1440.92 206.195C1437.77 206.195 1434.93 207.815 1433.54 210.11V206.735H1429.08V230H1433.54V214.925C1433.9 212.18 1436.69 210.065 1439.93 210.065C1443.08 210.065 1445.28 212.495 1445.28 215.96V230H1449.65V215.195C1449.65 209.93 1446.05 206.195 1440.92 206.195ZM1473.93 198.545V210.74C1472.13 207.905 1469.25 206.195 1465.65 206.195C1459.53 206.195 1454.94 211.235 1454.94 218.345C1454.94 225.5 1459.53 230.54 1465.65 230.54C1469.25 230.54 1472.13 228.83 1473.93 225.95V230H1478.34V198.545H1473.93ZM1466.73 226.67C1462.46 226.67 1459.44 223.205 1459.44 218.345C1459.44 213.485 1462.46 210.065 1466.73 210.065C1470.92 210.065 1473.93 213.485 1473.93 218.345C1473.93 223.205 1470.92 226.67 1466.73 226.67ZM1201.13 275.815C1200.64 276.31 1199.74 276.67 1198.75 276.67C1197.44 276.67 1196.36 275.5 1196.36 273.88V260.515H1201.85V256.735H1196.36V250.345H1192V256.735H1188.48V260.515H1192V274.195C1192 277.93 1194.52 280.54 1198.12 280.54C1199.78 280.54 1201.49 279.91 1202.75 278.875L1201.13 275.815ZM1217.96 276.58C1213.95 276.58 1211.12 273.79 1210.53 269.92H1228.85C1228.85 261.595 1224.75 256.195 1217.64 256.195C1211.21 256.195 1206.03 261.325 1206.03 268.3C1206.03 275.455 1211.52 280.54 1218 280.54C1221.29 280.54 1225.34 279.145 1227.41 276.94L1224.62 274.06C1223.22 275.5 1220.39 276.58 1217.96 276.58ZM1217.82 260.155C1221.83 260.155 1224.03 262.765 1224.53 266.365H1210.58C1211.3 262.585 1214.22 260.155 1217.82 260.155ZM1244.99 280.54C1248.45 280.54 1251.47 279.1 1253.72 276.805L1250.7 274.06C1249.26 275.68 1247.19 276.67 1245.03 276.67C1240.76 276.67 1237.25 272.89 1237.25 268.345C1237.25 263.845 1240.76 260.065 1244.99 260.065C1247.15 260.065 1249.17 261.01 1250.57 262.585L1253.58 259.795C1251.38 257.59 1248.36 256.195 1245.03 256.195C1238.37 256.195 1232.75 261.73 1232.75 268.345C1232.75 274.96 1238.37 280.54 1244.99 280.54ZM1270.32 256.195C1267.13 256.195 1264.29 257.86 1262.9 260.2V248.545H1258.49V280H1262.9V265.555C1262.9 262.54 1265.82 260.065 1269.33 260.065C1272.48 260.065 1274.69 262.495 1274.69 265.96V280H1279.05V265.195C1279.05 259.93 1275.45 256.195 1270.32 256.195ZM1297.26 256.195C1294.11 256.195 1291.28 257.815 1289.88 260.11V256.735H1285.43V280H1289.88V264.925C1290.24 262.18 1293.03 260.065 1296.27 260.065C1299.42 260.065 1301.63 262.495 1301.63 265.96V280H1305.99V265.195C1305.99 259.93 1302.39 256.195 1297.26 256.195ZM1314.57 252.865C1316.01 252.865 1317.22 251.605 1317.22 250.165C1317.22 248.77 1316.01 247.51 1314.57 247.51C1313.04 247.51 1311.87 248.77 1311.87 250.165C1311.87 251.605 1313.04 252.865 1314.57 252.865ZM1312.32 280H1316.77V256.735H1312.32V280ZM1334.2 280.54C1337.66 280.54 1340.68 279.1 1342.93 276.805L1339.91 274.06C1338.47 275.68 1336.4 276.67 1334.24 276.67C1329.97 276.67 1326.46 272.89 1326.46 268.345C1326.46 263.845 1329.97 260.065 1334.2 260.065C1336.36 260.065 1338.38 261.01 1339.78 262.585L1342.79 259.795C1340.59 257.59 1337.57 256.195 1334.24 256.195C1327.58 256.195 1321.96 261.73 1321.96 268.345C1321.96 274.96 1327.58 280.54 1334.2 280.54ZM1357.46 256.195C1354.9 256.195 1351.97 256.87 1348.64 258.535L1350.26 261.82C1352.29 260.785 1354.54 259.885 1356.83 259.885C1361.47 259.885 1362.82 262.99 1362.82 265.915V266.635C1360.57 265.87 1358.09 265.375 1355.8 265.375C1350.67 265.375 1346.48 268.48 1346.48 273.115C1346.48 277.66 1350.13 280.54 1355.08 280.54C1357.91 280.54 1361.11 279.235 1362.82 276.805V280H1367.18V265.915C1367.18 260.155 1363.72 256.195 1357.46 256.195ZM1355.93 277.03C1353.01 277.03 1350.76 275.5 1350.76 272.98C1350.76 270.46 1353.37 268.705 1356.47 268.705C1358.77 268.705 1360.93 269.02 1362.82 269.605V272.71C1362.05 275.59 1358.81 277.03 1355.93 277.03ZM1373.62 280H1378.03V248.545H1373.62V280ZM1409.23 256.195C1406.08 256.195 1403.25 257.815 1401.85 260.11V256.735H1397.4V280H1401.85V264.925C1402.21 262.18 1405 260.065 1408.24 260.065C1411.39 260.065 1413.6 262.495 1413.6 265.96V280H1417.96V265.195C1417.96 259.93 1414.36 256.195 1409.23 256.195ZM1435 276.58C1431 276.58 1428.16 273.79 1427.58 269.92H1445.89C1445.89 261.595 1441.8 256.195 1434.69 256.195C1428.25 256.195 1423.08 261.325 1423.08 268.3C1423.08 275.455 1428.57 280.54 1435.05 280.54C1438.33 280.54 1442.38 279.145 1444.45 276.94L1441.66 274.06C1440.27 275.5 1437.43 276.58 1435 276.58ZM1434.87 260.155C1438.87 260.155 1441.08 262.765 1441.57 266.365H1427.62C1428.34 262.585 1431.27 260.155 1434.87 260.155ZM1461.72 276.58C1457.72 276.58 1454.88 273.79 1454.3 269.92H1472.61C1472.61 261.595 1468.52 256.195 1461.41 256.195C1454.97 256.195 1449.8 261.325 1449.8 268.3C1449.8 275.455 1455.29 280.54 1461.77 280.54C1465.05 280.54 1469.1 279.145 1471.17 276.94L1468.38 274.06C1466.99 275.5 1464.15 276.58 1461.72 276.58ZM1461.59 260.155C1465.59 260.155 1467.8 262.765 1468.29 266.365H1454.34C1455.06 262.585 1457.99 260.155 1461.59 260.155ZM1495.68 248.545V260.74C1493.88 257.905 1491 256.195 1487.4 256.195C1481.28 256.195 1476.69 261.235 1476.69 268.345C1476.69 275.5 1481.28 280.54 1487.4 280.54C1491 280.54 1493.88 278.83 1495.68 275.95V280H1500.09V248.545H1495.68ZM1488.48 276.67C1484.21 276.67 1481.19 273.205 1481.19 268.345C1481.19 263.485 1484.21 260.065 1488.48 260.065C1492.67 260.065 1495.68 263.485 1495.68 268.345C1495.68 273.205 1492.67 276.67 1488.48 276.67ZM1515.19 280.54C1520.28 280.54 1524.01 277.75 1524.01 273.34C1524.01 268.705 1519.92 267.445 1516.09 266.32C1512.18 265.105 1510.74 264.565 1510.74 262.765C1510.74 261.01 1512.54 260.02 1514.83 260.02C1516.86 260.02 1519.2 260.785 1521.45 262.18L1523.43 258.895C1520.91 257.23 1517.85 256.195 1514.83 256.195C1509.88 256.195 1506.33 258.985 1506.37 263.26C1506.37 267.04 1509.03 268.57 1514.38 270.055C1517.26 270.865 1519.65 271.54 1519.65 273.7C1519.65 275.5 1517.85 276.715 1515.24 276.715C1512.49 276.715 1509.84 275.68 1507.36 273.88L1505.25 277.075C1508.04 279.325 1511.77 280.54 1515.19 280.54Z" fill="black"/>
<path d="M1752.92 180H1763.58C1773.57 180 1780.68 173.565 1780.68 164.52C1780.68 155.475 1773.57 149.085 1763.58 149.085H1752.92V180ZM1757.46 175.86V153.225H1763.85C1771.01 153.225 1776 157.905 1776 164.52C1776 171.18 1771.01 175.86 1763.85 175.86H1757.46ZM1797.18 176.58C1793.18 176.58 1790.34 173.79 1789.76 169.92H1808.07C1808.07 161.595 1803.98 156.195 1796.87 156.195C1790.43 156.195 1785.26 161.325 1785.26 168.3C1785.26 175.455 1790.75 180.54 1797.23 180.54C1800.51 180.54 1804.56 179.145 1806.63 176.94L1803.84 174.06C1802.45 175.5 1799.61 176.58 1797.18 176.58ZM1797.05 160.155C1801.05 160.155 1803.26 162.765 1803.75 166.365H1789.8C1790.52 162.585 1793.45 160.155 1797.05 160.155ZM1819.36 154.17C1819.36 152.55 1820.44 151.38 1821.74 151.38C1822.73 151.38 1823.63 151.74 1824.13 152.235L1825.75 149.265C1824.49 148.23 1822.78 147.6 1821.11 147.6C1817.51 147.6 1814.99 150.21 1814.99 153.945V156.735H1811.48V160.515H1814.99V180H1819.36V160.515H1824.85V156.735H1819.36V154.17ZM1831.66 152.865C1833.1 152.865 1834.31 151.605 1834.31 150.165C1834.31 148.77 1833.1 147.51 1831.66 147.51C1830.13 147.51 1828.96 148.77 1828.96 150.165C1828.96 151.605 1830.13 152.865 1831.66 152.865ZM1829.41 180H1833.86V156.735H1829.41V180ZM1852.14 156.195C1848.99 156.195 1846.16 157.815 1844.76 160.11V156.735H1840.31V180H1844.76V164.925C1845.12 162.18 1847.91 160.065 1851.15 160.065C1854.3 160.065 1856.51 162.495 1856.51 165.96V180H1860.87V165.195C1860.87 159.93 1857.27 156.195 1852.14 156.195ZM1869.45 152.865C1870.89 152.865 1872.1 151.605 1872.1 150.165C1872.1 148.77 1870.89 147.51 1869.45 147.51C1867.92 147.51 1866.75 148.77 1866.75 150.165C1866.75 151.605 1867.92 152.865 1869.45 152.865ZM1867.2 180H1871.65V156.735H1867.2V180ZM1888.99 175.815C1888.49 176.31 1887.59 176.67 1886.6 176.67C1885.3 176.67 1884.22 175.5 1884.22 173.88V160.515H1889.71V156.735H1884.22V150.345H1879.85V156.735H1876.34V160.515H1879.85V174.195C1879.85 177.93 1882.37 180.54 1885.97 180.54C1887.64 180.54 1889.35 179.91 1890.61 178.875L1888.99 175.815ZM1897.36 152.865C1898.8 152.865 1900.01 151.605 1900.01 150.165C1900.01 148.77 1898.8 147.51 1897.36 147.51C1895.83 147.51 1894.66 148.77 1894.66 150.165C1894.66 151.605 1895.83 152.865 1897.36 152.865ZM1895.11 180H1899.56V156.735H1895.11V180ZM1917.03 180.54C1923.64 180.54 1929.22 174.96 1929.22 168.345C1929.22 161.73 1923.64 156.195 1917.03 156.195C1910.37 156.195 1904.74 161.73 1904.74 168.345C1904.74 174.96 1910.37 180.54 1917.03 180.54ZM1917.03 176.67C1912.75 176.67 1909.2 172.89 1909.2 168.345C1909.2 163.845 1912.75 160.065 1917.03 160.065C1921.21 160.065 1924.77 163.845 1924.77 168.345C1924.77 172.89 1921.21 176.67 1917.03 176.67ZM1946.27 156.195C1943.12 156.195 1940.29 157.815 1938.89 160.11V156.735H1934.44V180H1938.89V164.925C1939.25 162.18 1942.04 160.065 1945.28 160.065C1948.43 160.065 1950.64 162.495 1950.64 165.96V180H1955V165.195C1955 159.93 1951.4 156.195 1946.27 156.195ZM1985.28 180.54C1991.89 180.54 1997.47 174.96 1997.47 168.345C1997.47 161.73 1991.89 156.195 1985.28 156.195C1978.62 156.195 1972.99 161.73 1972.99 168.345C1972.99 174.96 1978.62 180.54 1985.28 180.54ZM1985.28 176.67C1981 176.67 1977.45 172.89 1977.45 168.345C1977.45 163.845 1981 160.065 1985.28 160.065C1989.46 160.065 1993.02 163.845 1993.02 168.345C1993.02 172.89 1989.46 176.67 1985.28 176.67ZM2008.8 154.17C2008.8 152.55 2009.88 151.38 2011.19 151.38C2012.18 151.38 2013.08 151.74 2013.57 152.235L2015.19 149.265C2013.93 148.23 2012.22 147.6 2010.56 147.6C2006.96 147.6 2004.44 150.21 2004.44 153.945V156.735H2000.93V160.515H2004.44V180H2008.8V160.515H2014.29V156.735H2008.8V154.17ZM1770.15 198.545V210.74C1768.35 207.905 1765.47 206.195 1761.87 206.195C1755.75 206.195 1751.16 211.235 1751.16 218.345C1751.16 225.5 1755.75 230.54 1761.87 230.54C1765.47 230.54 1768.35 228.83 1770.15 225.95V230H1774.56V198.545H1770.15ZM1762.95 226.67C1758.68 226.67 1755.66 223.205 1755.66 218.345C1755.66 213.485 1758.68 210.065 1762.95 210.065C1767.14 210.065 1770.15 213.485 1770.15 218.345C1770.15 223.205 1767.14 226.67 1762.95 226.67ZM1791.91 226.58C1787.9 226.58 1785.07 223.79 1784.48 219.92H1802.8C1802.8 211.595 1798.7 206.195 1791.59 206.195C1785.16 206.195 1779.98 211.325 1779.98 218.3C1779.98 225.455 1785.47 230.54 1791.95 230.54C1795.24 230.54 1799.29 229.145 1801.36 226.94L1798.57 224.06C1797.17 225.5 1794.34 226.58 1791.91 226.58ZM1791.77 210.155C1795.78 210.155 1797.98 212.765 1798.48 216.365H1784.53C1785.25 212.585 1788.17 210.155 1791.77 210.155ZM1816.38 230.54C1821.46 230.54 1825.2 227.75 1825.2 223.34C1825.2 218.705 1821.1 217.445 1817.28 216.32C1813.36 215.105 1811.92 214.565 1811.92 212.765C1811.92 211.01 1813.72 210.02 1816.02 210.02C1818.04 210.02 1820.38 210.785 1822.63 212.18L1824.61 208.895C1822.09 207.23 1819.03 206.195 1816.02 206.195C1811.07 206.195 1807.51 208.985 1807.56 213.26C1807.56 217.04 1810.21 218.57 1815.57 220.055C1818.45 220.865 1820.83 221.54 1820.83 223.7C1820.83 225.5 1819.03 226.715 1816.42 226.715C1813.68 226.715 1811.02 225.68 1808.55 223.88L1806.43 227.075C1809.22 229.325 1812.96 230.54 1816.38 230.54ZM1832.58 202.865C1834.02 202.865 1835.23 201.605 1835.23 200.165C1835.23 198.77 1834.02 197.51 1832.58 197.51C1831.05 197.51 1829.88 198.77 1829.88 200.165C1829.88 201.605 1831.05 202.865 1832.58 202.865ZM1830.33 230H1834.78V206.735H1830.33V230ZM1858.91 206.735V210.47C1857.16 207.86 1854.19 206.195 1850.68 206.195C1844.56 206.195 1840.1 210.74 1840.1 217.22C1840.1 223.7 1844.56 228.29 1850.68 228.29C1854.19 228.29 1857.07 226.715 1858.91 224.06V227.435C1858.91 231.485 1855.9 233.87 1850.9 233.87C1848.11 233.87 1845.32 232.925 1843.61 231.305L1841.86 234.635C1844.06 236.435 1847.66 237.74 1851.58 237.74C1858.46 237.74 1863.37 233.51 1863.37 227.525V206.735H1858.91ZM1851.8 224.42C1847.66 224.42 1844.74 221.45 1844.74 217.22C1844.74 213.035 1847.66 210.065 1851.8 210.065C1855.94 210.065 1858.91 213.035 1858.91 217.22C1858.91 221.45 1855.94 224.42 1851.8 224.42ZM1881.85 206.195C1878.7 206.195 1875.86 207.815 1874.47 210.11V206.735H1870.01V230H1874.47V214.925C1874.83 212.18 1877.62 210.065 1880.86 210.065C1884.01 210.065 1886.21 212.495 1886.21 215.96V230H1890.58V215.195C1890.58 209.93 1886.98 206.195 1881.85 206.195ZM1918.24 230.54C1923.33 230.54 1927.06 227.75 1927.06 223.34C1927.06 218.705 1922.97 217.445 1919.14 216.32C1915.23 215.105 1913.79 214.565 1913.79 212.765C1913.79 211.01 1915.59 210.02 1917.88 210.02C1919.91 210.02 1922.25 210.785 1924.5 212.18L1926.48 208.895C1923.96 207.23 1920.9 206.195 1917.88 206.195C1912.93 206.195 1909.38 208.985 1909.42 213.26C1909.42 217.04 1912.08 218.57 1917.43 220.055C1920.31 220.865 1922.7 221.54 1922.7 223.7C1922.7 225.5 1920.9 226.715 1918.29 226.715C1915.54 226.715 1912.89 225.68 1910.41 223.88L1908.3 227.075C1911.09 229.325 1914.82 230.54 1918.24 230.54ZM1943.13 225.815C1942.64 226.31 1941.74 226.67 1940.75 226.67C1939.44 226.67 1938.36 225.5 1938.36 223.88V210.515H1943.85V206.735H1938.36V200.345H1934V206.735H1930.48V210.515H1934V224.195C1934 227.93 1936.52 230.54 1940.12 230.54C1941.78 230.54 1943.49 229.91 1944.75 228.875L1943.13 225.815ZM1953.97 211.19V206.735H1949.52V230H1953.97V216.77C1954.38 212.72 1957.8 210.065 1962.61 210.065V206.195C1958.61 206.195 1955.46 208.13 1953.97 211.19ZM1982.98 206.735V221.81C1982.62 224.555 1979.83 226.67 1976.59 226.67C1973.44 226.67 1971.23 224.24 1971.23 220.775V206.735H1966.87V221.54C1966.87 226.805 1970.47 230.54 1975.6 230.54C1978.75 230.54 1981.58 228.92 1982.98 226.625V230H1987.43V206.735H1982.98ZM2004.88 230.54C2008.34 230.54 2011.36 229.1 2013.61 226.805L2010.59 224.06C2009.15 225.68 2007.08 226.67 2004.92 226.67C2000.65 226.67 1997.14 222.89 1997.14 218.345C1997.14 213.845 2000.65 210.065 2004.88 210.065C2007.04 210.065 2009.06 211.01 2010.46 212.585L2013.47 209.795C2011.27 207.59 2008.25 206.195 2004.92 206.195C1998.26 206.195 1992.64 211.73 1992.64 218.345C1992.64 224.96 1998.26 230.54 2004.88 230.54ZM2029.26 225.815C2028.77 226.31 2027.87 226.67 2026.88 226.67C2025.57 226.67 2024.49 225.5 2024.49 223.88V210.515H2029.98V206.735H2024.49V200.345H2020.13V206.735H2016.62V210.515H2020.13V224.195C2020.13 227.93 2022.65 230.54 2026.25 230.54C2027.91 230.54 2029.62 229.91 2030.88 228.875L2029.26 225.815ZM2051.44 206.735V221.81C2051.08 224.555 2048.29 226.67 2045.05 226.67C2041.9 226.67 2039.7 224.24 2039.7 220.775V206.735H2035.33V221.54C2035.33 226.805 2038.93 230.54 2044.06 230.54C2047.21 230.54 2050.05 228.92 2051.44 226.625V230H2055.9V206.735H2051.44ZM2067.04 211.19V206.735H2062.59V230H2067.04V216.77C2067.45 212.72 2070.87 210.065 2075.68 210.065V206.195C2071.68 206.195 2068.53 208.13 2067.04 211.19ZM2090.69 226.58C2086.69 226.58 2083.85 223.79 2083.27 219.92H2101.58C2101.58 211.595 2097.49 206.195 2090.38 206.195C2083.94 206.195 2078.77 211.325 2078.77 218.3C2078.77 225.455 2084.26 230.54 2090.74 230.54C2094.02 230.54 2098.07 229.145 2100.14 226.94L2097.35 224.06C2095.96 225.5 2093.12 226.58 2090.69 226.58ZM2090.56 210.155C2094.56 210.155 2096.77 212.765 2097.26 216.365H2083.31C2084.03 212.585 2086.96 210.155 2090.56 210.155ZM1762.01 256.195C1759.44 256.195 1756.52 256.87 1753.19 258.535L1754.81 261.82C1756.83 260.785 1759.08 259.885 1761.38 259.885C1766.01 259.885 1767.36 262.99 1767.36 265.915V266.635C1765.11 265.87 1762.64 265.375 1760.34 265.375C1755.21 265.375 1751.03 268.48 1751.03 273.115C1751.03 277.66 1754.67 280.54 1759.62 280.54C1762.46 280.54 1765.65 279.235 1767.36 276.805V280H1771.72V265.915C1771.72 260.155 1768.26 256.195 1762.01 256.195ZM1760.48 277.03C1757.55 277.03 1755.3 275.5 1755.3 272.98C1755.3 270.46 1757.91 268.705 1761.02 268.705C1763.31 268.705 1765.47 269.02 1767.36 269.605V272.71C1766.6 275.59 1763.36 277.03 1760.48 277.03ZM1790 256.195C1786.85 256.195 1784.02 257.815 1782.62 260.11V256.735H1778.17V280H1782.62V264.925C1782.98 262.18 1785.77 260.065 1789.01 260.065C1792.16 260.065 1794.37 262.495 1794.37 265.96V280H1798.73V265.195C1798.73 259.93 1795.13 256.195 1790 256.195ZM1823.02 248.545V260.74C1821.22 257.905 1818.34 256.195 1814.74 256.195C1808.62 256.195 1804.03 261.235 1804.03 268.345C1804.03 275.5 1808.62 280.54 1814.74 280.54C1818.34 280.54 1821.22 278.83 1823.02 275.95V280H1827.43V248.545H1823.02ZM1815.82 276.67C1811.54 276.67 1808.53 273.205 1808.53 268.345C1808.53 263.485 1811.54 260.065 1815.82 260.065C1820 260.065 1823.02 263.485 1823.02 268.345C1823.02 273.205 1820 276.67 1815.82 276.67ZM1853.11 254.17C1853.11 252.55 1854.19 251.38 1855.49 251.38C1856.48 251.38 1857.38 251.74 1857.88 252.235L1859.5 249.265C1858.24 248.23 1856.53 247.6 1854.86 247.6C1851.26 247.6 1848.74 250.21 1848.74 253.945V256.735H1845.23V260.515H1848.74V280H1853.11V260.515H1858.6V256.735H1853.11V254.17ZM1863.2 280H1867.61V248.545H1863.2V280ZM1885.13 280.54C1891.74 280.54 1897.32 274.96 1897.32 268.345C1897.32 261.73 1891.74 256.195 1885.13 256.195C1878.47 256.195 1872.84 261.73 1872.84 268.345C1872.84 274.96 1878.47 280.54 1885.13 280.54ZM1885.13 276.67C1880.85 276.67 1877.3 272.89 1877.3 268.345C1877.3 263.845 1880.85 260.065 1885.13 260.065C1889.31 260.065 1892.87 263.845 1892.87 268.345C1892.87 272.89 1889.31 276.67 1885.13 276.67ZM1907.46 280H1911.56L1917.18 262.72L1922.76 280H1926.86L1934.69 256.735H1930.14L1924.83 274.06L1919.07 256.735H1915.29L1909.53 274.06L1904.18 256.735H1899.63L1907.46 280Z" fill="black"/>
<path d="M2295.23 180.54C2303.91 180.54 2311.2 173.205 2311.2 164.52C2311.2 155.835 2303.91 148.545 2295.23 148.545C2286.54 148.545 2279.16 155.835 2279.16 164.52C2279.16 173.205 2286.54 180.54 2295.23 180.54ZM2295.23 176.355C2289.06 176.355 2283.84 170.955 2283.84 164.52C2283.84 158.13 2289.06 152.73 2295.23 152.73C2301.39 152.73 2306.57 158.13 2306.57 164.52C2306.57 170.955 2301.39 176.355 2295.23 176.355ZM2322.75 154.17C2322.75 152.55 2323.83 151.38 2325.13 151.38C2326.12 151.38 2327.02 151.74 2327.52 152.235L2329.14 149.265C2327.88 148.23 2326.17 147.6 2324.5 147.6C2320.9 147.6 2318.38 150.21 2318.38 153.945V156.735H2314.87V160.515H2318.38V180H2322.75V160.515H2328.24V156.735H2322.75V154.17ZM2351.84 154.17C2351.84 152.55 2352.92 151.38 2354.22 151.38C2355.21 151.38 2356.11 151.74 2356.61 152.235L2358.23 149.265C2356.97 148.23 2355.26 147.6 2353.59 147.6C2349.99 147.6 2347.47 150.21 2347.47 153.945V156.735H2343.96V160.515H2347.47V180H2351.84V160.515H2357.33V156.735H2351.84V154.17ZM2372.96 180.54C2379.57 180.54 2385.15 174.96 2385.15 168.345C2385.15 161.73 2379.57 156.195 2372.96 156.195C2366.3 156.195 2360.67 161.73 2360.67 168.345C2360.67 174.96 2366.3 180.54 2372.96 180.54ZM2372.96 176.67C2368.68 176.67 2365.13 172.89 2365.13 168.345C2365.13 163.845 2368.68 160.065 2372.96 160.065C2377.14 160.065 2380.7 163.845 2380.7 168.345C2380.7 172.89 2377.14 176.67 2372.96 176.67ZM2395.05 161.19V156.735H2390.59V180H2395.05V166.77C2395.45 162.72 2398.87 160.065 2403.69 160.065V156.195C2399.68 156.195 2396.53 158.13 2395.05 161.19ZM2434.04 156.195C2430.53 156.195 2427.56 157.995 2426.48 160.875C2425.13 157.995 2422.39 156.195 2419.01 156.195C2416.04 156.195 2413.61 157.68 2412.44 159.975V156.735H2407.99V180H2412.44V165.465C2412.44 162.27 2414.78 160.065 2418.11 160.065C2421.04 160.065 2423.06 162.45 2423.06 165.87V180H2427.43V165.465C2427.43 162.27 2429.77 160.065 2433.1 160.065C2436.02 160.065 2438.05 162.45 2438.05 165.87V180H2442.41V165.195C2442.41 159.93 2438.9 156.195 2434.04 156.195ZM2451.06 186.165C2453.94 182.88 2454.98 180.945 2454.98 178.83C2454.98 176.355 2453.72 174.555 2451.74 174.555C2450.03 174.555 2448.72 175.95 2448.72 177.525C2448.72 179.19 2450.03 180.54 2451.65 180.54C2451.29 181.935 2450.48 183.375 2449.17 184.725L2451.06 186.165ZM2485.02 180.54C2488.48 180.54 2491.5 179.1 2493.75 176.805L2490.73 174.06C2489.29 175.68 2487.22 176.67 2485.06 176.67C2480.79 176.67 2477.28 172.89 2477.28 168.345C2477.28 163.845 2480.79 160.065 2485.02 160.065C2487.18 160.065 2489.2 161.01 2490.6 162.585L2493.61 159.795C2491.41 157.59 2488.39 156.195 2485.06 156.195C2478.4 156.195 2472.78 161.73 2472.78 168.345C2472.78 174.96 2478.4 180.54 2485.02 180.54ZM2509.06 180.54C2515.67 180.54 2521.25 174.96 2521.25 168.345C2521.25 161.73 2515.67 156.195 2509.06 156.195C2502.4 156.195 2496.77 161.73 2496.77 168.345C2496.77 174.96 2502.4 180.54 2509.06 180.54ZM2509.06 176.67C2504.78 176.67 2501.23 172.89 2501.23 168.345C2501.23 163.845 2504.78 160.065 2509.06 160.065C2513.24 160.065 2516.8 163.845 2516.8 168.345C2516.8 172.89 2513.24 176.67 2509.06 176.67ZM2538.3 156.195C2535.15 156.195 2532.32 157.815 2530.92 160.11V156.735H2526.47V180H2530.92V164.925C2531.28 162.18 2534.07 160.065 2537.31 160.065C2540.46 160.065 2542.67 162.495 2542.67 165.96V180H2547.03V165.195C2547.03 159.93 2543.43 156.195 2538.3 156.195ZM2564.29 175.815C2563.8 176.31 2562.9 176.67 2561.91 176.67C2560.6 176.67 2559.52 175.5 2559.52 173.88V160.515H2565.01V156.735H2559.52V150.345H2555.16V156.735H2551.65V160.515H2555.16V174.195C2555.16 177.93 2557.68 180.54 2561.28 180.54C2562.94 180.54 2564.65 179.91 2565.91 178.875L2564.29 175.815ZM2581.12 176.58C2577.11 176.58 2574.28 173.79 2573.69 169.92H2592.01C2592.01 161.595 2587.91 156.195 2580.8 156.195C2574.37 156.195 2569.19 161.325 2569.19 168.3C2569.19 175.455 2574.68 180.54 2581.16 180.54C2584.45 180.54 2588.5 179.145 2590.57 176.94L2587.78 174.06C2586.38 175.5 2583.55 176.58 2581.12 176.58ZM2580.98 160.155C2584.99 160.155 2587.19 162.765 2587.69 166.365H2573.74C2574.46 162.585 2577.38 160.155 2580.98 160.155ZM2609.01 156.195C2605.86 156.195 2603.02 157.815 2601.63 160.11V156.735H2597.17V180H2601.63V164.925C2601.99 162.18 2604.78 160.065 2608.02 160.065C2611.17 160.065 2613.37 162.495 2613.37 165.96V180H2617.74V165.195C2617.74 159.93 2614.14 156.195 2609.01 156.195ZM2635 175.815C2634.51 176.31 2633.61 176.67 2632.62 176.67C2631.31 176.67 2630.23 175.5 2630.23 173.88V160.515H2635.72V156.735H2630.23V150.345H2625.87V156.735H2622.36V160.515H2625.87V174.195C2625.87 177.93 2628.39 180.54 2631.99 180.54C2633.65 180.54 2635.36 179.91 2636.62 178.875L2635 175.815ZM2290.01 206.195C2287.44 206.195 2284.52 206.87 2281.19 208.535L2282.81 211.82C2284.83 210.785 2287.08 209.885 2289.38 209.885C2294.01 209.885 2295.36 212.99 2295.36 215.915V216.635C2293.11 215.87 2290.64 215.375 2288.34 215.375C2283.21 215.375 2279.03 218.48 2279.03 223.115C2279.03 227.66 2282.67 230.54 2287.62 230.54C2290.46 230.54 2293.65 229.235 2295.36 226.805V230H2299.72V215.915C2299.72 210.155 2296.26 206.195 2290.01 206.195ZM2288.48 227.03C2285.55 227.03 2283.3 225.5 2283.3 222.98C2283.3 220.46 2285.91 218.705 2289.02 218.705C2291.31 218.705 2293.47 219.02 2295.36 219.605V222.71C2294.6 225.59 2291.36 227.03 2288.48 227.03ZM2318 206.195C2314.85 206.195 2312.02 207.815 2310.62 210.11V206.735H2306.17V230H2310.62V214.925C2310.98 212.18 2313.77 210.065 2317.01 210.065C2320.16 210.065 2322.37 212.495 2322.37 215.96V230H2326.73V215.195C2326.73 209.93 2323.13 206.195 2318 206.195ZM2351.02 198.545V210.74C2349.22 207.905 2346.34 206.195 2342.74 206.195C2336.62 206.195 2332.03 211.235 2332.03 218.345C2332.03 225.5 2336.62 230.54 2342.74 230.54C2346.34 230.54 2349.22 228.83 2351.02 225.95V230H2355.43V198.545H2351.02ZM2343.82 226.67C2339.54 226.67 2336.53 223.205 2336.53 218.345C2336.53 213.485 2339.54 210.065 2343.82 210.065C2348 210.065 2351.02 213.485 2351.02 218.345C2351.02 223.205 2348 226.67 2343.82 226.67ZM2381.11 204.17C2381.11 202.55 2382.19 201.38 2383.49 201.38C2384.48 201.38 2385.38 201.74 2385.88 202.235L2387.5 199.265C2386.24 198.23 2384.53 197.6 2382.86 197.6C2379.26 197.6 2376.74 200.21 2376.74 203.945V206.735H2373.23V210.515H2376.74V230H2381.11V210.515H2386.6V206.735H2381.11V204.17ZM2391.2 230H2395.61V198.545H2391.2V230ZM2413.13 230.54C2419.74 230.54 2425.32 224.96 2425.32 218.345C2425.32 211.73 2419.74 206.195 2413.13 206.195C2406.47 206.195 2400.84 211.73 2400.84 218.345C2400.84 224.96 2406.47 230.54 2413.13 230.54ZM2413.13 226.67C2408.85 226.67 2405.3 222.89 2405.3 218.345C2405.3 213.845 2408.85 210.065 2413.13 210.065C2417.31 210.065 2420.87 213.845 2420.87 218.345C2420.87 222.89 2417.31 226.67 2413.13 226.67ZM2435.46 230H2439.56L2445.18 212.72L2450.76 230H2454.86L2462.69 206.735H2458.14L2452.83 224.06L2447.07 206.735H2443.29L2437.53 224.06L2432.18 206.735H2427.63L2435.46 230Z" fill="black"/>
<path d="M712.198 107H719.842V84.744L730.918 104.92L741.942 84.744V107H749.638V71.276H741.942L730.918 91.452L719.842 71.276H712.198V107ZM769.979 107.624C777.935 107.624 784.591 101.176 784.591 93.532C784.591 85.888 777.935 79.492 769.979 79.492C761.971 79.492 755.263 85.888 755.263 93.532C755.263 101.176 761.971 107.624 769.979 107.624ZM769.979 101.228C765.923 101.228 762.543 97.692 762.543 93.532C762.543 89.372 765.923 85.888 769.979 85.888C773.983 85.888 777.363 89.372 777.363 93.532C777.363 97.692 773.983 101.228 769.979 101.228ZM809.8 70.652V83.964C807.668 81.156 804.548 79.492 800.752 79.492C793.576 79.492 788.376 85.316 788.376 93.532C788.376 101.8 793.576 107.624 800.752 107.624C804.548 107.624 807.668 105.96 809.8 103.152V107H817.392V70.652H809.8ZM802.936 101.228C798.724 101.228 795.76 98.056 795.76 93.532C795.76 89.06 798.724 85.888 802.936 85.888C806.94 85.888 809.8 89.06 809.8 93.532C809.8 98.056 806.94 101.228 802.936 101.228ZM836.745 100.916C833.573 100.916 831.233 98.94 830.349 96.028H849.745C849.745 85.888 844.805 79.492 836.381 79.492C828.529 79.492 822.549 85.368 822.549 93.48C822.549 101.748 828.789 107.624 836.797 107.624C840.749 107.624 845.377 105.96 847.769 103.464L842.933 98.524C841.477 99.928 838.877 100.916 836.745 100.916ZM836.693 86.2C839.761 86.2 841.737 87.916 842.465 90.568H830.453C831.441 87.864 833.833 86.2 836.693 86.2ZM854.881 107H862.473V70.652H854.881V107ZM872.895 76.424C875.131 76.424 876.951 74.552 876.951 72.264C876.951 70.132 875.131 68.208 872.895 68.208C870.555 68.208 868.735 70.132 868.735 72.264C868.735 74.552 870.555 76.424 872.895 76.424ZM869.047 107H876.639V80.116H869.047V107ZM898.815 79.492C895.331 79.492 892.315 81.052 890.703 83.496V80.116H883.111V107H890.703V90.932L890.755 91.088C890.755 88.176 893.199 85.888 896.371 85.888C899.387 85.888 901.467 88.176 901.467 91.504V107H908.799V89.892C908.799 83.808 904.639 79.492 898.815 79.492ZM934.657 80.116V83.756C932.837 81.208 929.405 79.492 925.765 79.492C919.005 79.492 913.857 84.744 913.857 92.232C913.857 99.72 919.005 105.024 925.765 105.024C929.301 105.024 932.525 103.464 934.657 100.864V103.828C934.657 107.312 931.537 109.548 926.649 109.548C923.529 109.548 920.409 108.56 918.641 107L915.989 112.356C918.641 114.436 923.113 115.944 927.845 115.944C936.321 115.944 942.301 111.056 942.301 104.14V80.116H934.657ZM928.157 98.628C924.361 98.628 921.657 95.976 921.657 92.232C921.657 88.488 924.361 85.888 928.157 85.888C931.953 85.888 934.657 88.488 934.657 92.232C934.657 95.976 931.953 98.628 928.157 98.628Z" fill="black"/>
<path d="M1221.06 107L1212.27 94.52C1217.16 92.804 1220.38 88.644 1220.38 83.34C1220.38 76.268 1214.66 71.276 1206.91 71.276H1190.84V107H1198.49V95.404H1204.16L1212.32 107H1221.06ZM1198.49 78.296H1206.08C1209.88 78.296 1212.48 80.272 1212.48 83.34C1212.48 86.408 1209.88 88.384 1206.08 88.384H1198.49V78.296ZM1238.57 100.916C1235.39 100.916 1233.05 98.94 1232.17 96.028H1251.57C1251.57 85.888 1246.63 79.492 1238.2 79.492C1230.35 79.492 1224.37 85.368 1224.37 93.48C1224.37 101.748 1230.61 107.624 1238.62 107.624C1242.57 107.624 1247.2 105.96 1249.59 103.464L1244.75 98.524C1243.3 99.928 1240.7 100.916 1238.57 100.916ZM1238.51 86.2C1241.58 86.2 1243.56 87.916 1244.29 90.568H1232.27C1233.26 87.864 1235.65 86.2 1238.51 86.2ZM1276.78 80.116V83.964C1274.64 81.156 1271.52 79.492 1267.73 79.492C1260.55 79.492 1255.35 85.316 1255.35 93.532C1255.35 101.8 1260.55 107.624 1267.73 107.624C1271.52 107.624 1274.64 105.96 1276.78 103.152V115.944H1284.37V80.116H1276.78ZM1269.91 101.228C1265.7 101.228 1262.74 98.056 1262.74 93.532C1262.74 89.06 1265.7 85.888 1269.91 85.888C1273.92 85.888 1276.78 89.06 1276.78 93.532C1276.78 98.056 1273.92 101.228 1269.91 101.228ZM1308.87 80.116V96.184L1308.82 96.028C1308.82 98.94 1306.37 101.228 1303.2 101.228C1300.18 101.228 1298.1 98.94 1298.1 95.612V80.116H1290.77V97.224C1290.77 103.308 1294.93 107.624 1300.76 107.624C1304.24 107.624 1307.26 106.064 1308.87 103.62V107H1316.46V80.116H1308.87ZM1326.77 76.424C1329 76.424 1330.82 74.552 1330.82 72.264C1330.82 70.132 1329 68.208 1326.77 68.208C1324.43 68.208 1322.61 70.132 1322.61 72.264C1322.61 74.552 1324.43 76.424 1326.77 76.424ZM1322.92 107H1330.51V80.116H1322.92V107ZM1344.73 85.108V80.116H1337.14V107H1344.73V94.156C1344.73 89.112 1348.32 85.888 1353.94 85.888V79.492C1349.83 79.492 1346.5 81.624 1344.73 85.108ZM1371 100.916C1367.83 100.916 1365.49 98.94 1364.61 96.028H1384C1384 85.888 1379.06 79.492 1370.64 79.492C1362.79 79.492 1356.81 85.368 1356.81 93.48C1356.81 101.748 1363.05 107.624 1371.06 107.624C1375.01 107.624 1379.64 105.96 1382.03 103.464L1377.19 98.524C1375.74 99.928 1373.14 100.916 1371 100.916ZM1370.95 86.2C1374.02 86.2 1376 87.916 1376.72 90.568H1364.71C1365.7 87.864 1368.09 86.2 1370.95 86.2ZM1421.12 79.492C1417.12 79.492 1413.79 81.416 1412.38 84.38C1410.72 81.364 1407.55 79.492 1403.86 79.492C1400.53 79.492 1397.88 81.104 1396.58 83.652V80.116H1388.98V107H1396.58V90.776C1396.58 87.916 1398.71 85.888 1401.78 85.888C1404.53 85.888 1406.51 88.072 1406.51 91.192V107.052H1413.79V90.776C1413.79 87.916 1415.97 85.888 1418.99 85.888C1421.8 85.888 1423.77 88.072 1423.77 91.192V107.052H1431.05V89.892C1431.05 83.808 1426.74 79.492 1421.12 79.492ZM1450.12 100.916C1446.95 100.916 1444.61 98.94 1443.73 96.028H1463.12C1463.12 85.888 1458.18 79.492 1449.76 79.492C1441.91 79.492 1435.93 85.368 1435.93 93.48C1435.93 101.748 1442.17 107.624 1450.17 107.624C1454.13 107.624 1458.75 105.96 1461.15 103.464L1456.31 98.524C1454.85 99.928 1452.25 100.916 1450.12 100.916ZM1450.07 86.2C1453.14 86.2 1455.11 87.916 1455.84 90.568H1443.83C1444.82 87.864 1447.21 86.2 1450.07 86.2ZM1483.81 79.492C1480.32 79.492 1477.31 81.052 1475.69 83.496V80.116H1468.1V107H1475.69V90.932L1475.75 91.088C1475.75 88.176 1478.19 85.888 1481.36 85.888C1484.38 85.888 1486.46 88.176 1486.46 91.504V107H1493.79V89.892C1493.79 83.808 1489.63 79.492 1483.81 79.492ZM1514.34 100.344C1513.82 100.864 1512.78 101.228 1511.74 101.228C1510.34 101.228 1509.2 99.98 1509.2 98.212V86.252H1515.02V80.116H1509.2V72.732H1501.92V80.116H1498.22V86.252H1501.92V99.408C1501.92 104.244 1505.24 107.624 1509.98 107.624C1512.16 107.624 1514.6 106.688 1516.16 105.284L1514.34 100.344ZM1531.01 107.624C1537.61 107.624 1541.93 104.244 1541.93 98.94C1541.93 93.064 1536.78 91.504 1532.15 90.308C1528.51 89.32 1527.42 88.904 1527.42 87.448C1527.42 86.512 1528.72 85.836 1530.59 85.836C1532.88 85.836 1535.69 86.72 1538.13 88.228L1541.2 82.82C1538.23 80.844 1534.44 79.492 1530.59 79.492C1524.25 79.492 1520.03 83.132 1520.09 88.228C1520.14 93.532 1524.4 95.04 1529.91 96.392C1532.67 97.12 1534.65 97.64 1534.65 99.304C1534.65 100.5 1533.19 101.332 1531.16 101.332C1527.57 101.332 1524.56 100.032 1522.17 98.316L1518.89 103.568C1522.11 106.168 1526.69 107.624 1531.01 107.624Z" fill="black"/>
<path d="M1800.3 78.192V71.276H1772.79V107H1780.49V92.856H1798.43V85.94H1780.49V78.192H1800.3ZM1813.13 85.108V80.116H1805.54V107H1813.13V94.156C1813.13 89.112 1816.72 85.888 1822.34 85.888V79.492C1818.23 79.492 1814.9 81.624 1813.13 85.108ZM1838.73 79.492C1834.98 79.492 1831.29 80.532 1827.5 82.456L1830.04 87.5C1832.18 86.408 1834.52 85.576 1837.01 85.576C1841.43 85.576 1843.2 88.072 1843.2 90.932V91.452C1840.91 90.568 1838.52 90.1 1836.34 90.1C1830.1 90.1 1825.16 93.74 1825.16 99.044C1825.16 104.192 1829.58 107.624 1835.3 107.624C1838.21 107.624 1841.28 106.48 1843.2 104.296V107H1850.53V90.932C1850.53 83.912 1845.75 79.492 1838.73 79.492ZM1837.01 102.372C1834.41 102.372 1832.49 101.02 1832.49 98.836C1832.49 96.652 1834.67 95.04 1837.43 95.04C1839.51 95.04 1841.48 95.404 1843.2 96.028V98.524C1842.68 101.02 1839.92 102.372 1837.01 102.372ZM1888.91 79.492C1884.91 79.492 1881.58 81.416 1880.18 84.38C1878.51 81.364 1875.34 79.492 1871.65 79.492C1868.32 79.492 1865.67 81.104 1864.37 83.652V80.116H1856.78V107H1864.37V90.776C1864.37 87.916 1866.5 85.888 1869.57 85.888C1872.32 85.888 1874.3 88.072 1874.3 91.192V107.052H1881.58V90.776C1881.58 87.916 1883.76 85.888 1886.78 85.888C1889.59 85.888 1891.56 88.072 1891.56 91.192V107.052H1898.84V89.892C1898.84 83.808 1894.53 79.492 1888.91 79.492ZM1917.91 100.916C1914.74 100.916 1912.4 98.94 1911.52 96.028H1930.91C1930.91 85.888 1925.97 79.492 1917.55 79.492C1909.7 79.492 1903.72 85.368 1903.72 93.48C1903.72 101.748 1909.96 107.624 1917.96 107.624C1921.92 107.624 1926.54 105.96 1928.94 103.464L1924.1 98.524C1922.64 99.928 1920.04 100.916 1917.91 100.916ZM1917.86 86.2C1920.93 86.2 1922.9 87.916 1923.63 90.568H1911.62C1912.61 87.864 1915 86.2 1917.86 86.2ZM1941.54 107H1948.35L1953.4 90.1L1958.39 107H1965.2L1974.35 80.116H1966.92L1961.82 96.86L1956.52 80.116H1950.22L1944.92 96.86L1939.82 80.116H1932.39L1941.54 107ZM1990.44 107.624C1998.4 107.624 2005.05 101.176 2005.05 93.532C2005.05 85.888 1998.4 79.492 1990.44 79.492C1982.43 79.492 1975.72 85.888 1975.72 93.532C1975.72 101.176 1982.43 107.624 1990.44 107.624ZM1990.44 101.228C1986.38 101.228 1983 97.692 1983 93.532C1983 89.372 1986.38 85.888 1990.44 85.888C1994.44 85.888 1997.82 89.372 1997.82 93.532C1997.82 97.692 1994.44 101.228 1990.44 101.228ZM2017.78 85.108V80.116H2010.19V107H2017.78V94.156C2017.78 89.112 2021.37 85.888 2026.99 85.888V79.492C2022.88 79.492 2019.55 81.624 2017.78 85.108ZM2057.52 80.116H2048.79L2038.8 91.712V70.652H2031.21V107H2038.8V100.396L2042.03 96.912L2048.68 107H2057.42L2047.07 92.024L2057.52 80.116Z" fill="black"/>
<path d="M2348.01 107L2339.22 94.52C2344.11 92.804 2347.33 88.644 2347.33 83.34C2347.33 76.268 2341.61 71.276 2333.86 71.276H2317.8V107H2325.44V95.404H2331.11L2339.27 107H2348.01ZM2325.44 78.296H2333.03C2336.83 78.296 2339.43 80.272 2339.43 83.34C2339.43 86.408 2336.83 88.384 2333.03 88.384H2325.44V78.296ZM2365.52 100.916C2362.35 100.916 2360.01 98.94 2359.12 96.028H2378.52C2378.52 85.888 2373.58 79.492 2365.15 79.492C2357.3 79.492 2351.32 85.368 2351.32 93.48C2351.32 101.748 2357.56 107.624 2365.57 107.624C2369.52 107.624 2374.15 105.96 2376.54 103.464L2371.71 98.524C2370.25 99.928 2367.65 100.916 2365.52 100.916ZM2365.47 86.2C2368.53 86.2 2370.51 87.916 2371.24 90.568H2359.23C2360.21 87.864 2362.61 86.2 2365.47 86.2ZM2392.65 78.66C2392.65 76.892 2393.79 75.644 2395.2 75.644C2396.24 75.644 2397.28 76.008 2397.8 76.528L2399.62 71.9C2398.06 70.496 2395.61 69.56 2393.43 69.56C2388.7 69.56 2385.37 72.94 2385.37 77.776V80.116H2381.68V86.252H2385.37V107H2392.65V86.252H2398.47V80.116H2392.65V78.66ZM2407.15 76.424C2409.39 76.424 2411.21 74.552 2411.21 72.264C2411.21 70.132 2409.39 68.208 2407.15 68.208C2404.81 68.208 2402.99 70.132 2402.99 72.264C2402.99 74.552 2404.81 76.424 2407.15 76.424ZM2403.31 107H2410.9V80.116H2403.31V107ZM2433.07 79.492C2429.59 79.492 2426.57 81.052 2424.96 83.496V80.116H2417.37V107H2424.96V90.932L2425.01 91.088C2425.01 88.176 2427.46 85.888 2430.63 85.888C2433.65 85.888 2435.73 88.176 2435.73 91.504V107H2443.06V89.892C2443.06 83.808 2438.9 79.492 2433.07 79.492ZM2462.15 100.916C2458.98 100.916 2456.64 98.94 2455.76 96.028H2475.15C2475.15 85.888 2470.21 79.492 2461.79 79.492C2453.94 79.492 2447.96 85.368 2447.96 93.48C2447.96 101.748 2454.2 107.624 2462.21 107.624C2466.16 107.624 2470.79 105.96 2473.18 103.464L2468.34 98.524C2466.89 99.928 2464.29 100.916 2462.15 100.916ZM2462.1 86.2C2465.17 86.2 2467.15 87.916 2467.87 90.568H2455.86C2456.85 87.864 2459.24 86.2 2462.1 86.2ZM2512.27 79.492C2508.27 79.492 2504.94 81.416 2503.53 84.38C2501.87 81.364 2498.7 79.492 2495.01 79.492C2491.68 79.492 2489.03 81.104 2487.73 83.652V80.116H2480.13V107H2487.73V90.776C2487.73 87.916 2489.86 85.888 2492.93 85.888C2495.68 85.888 2497.66 88.072 2497.66 91.192V107.052H2504.94V90.776C2504.94 87.916 2507.12 85.888 2510.14 85.888C2512.95 85.888 2514.92 88.072 2514.92 91.192V107.052H2522.2V89.892C2522.2 83.808 2517.89 79.492 2512.27 79.492ZM2541.27 100.916C2538.1 100.916 2535.76 98.94 2534.88 96.028H2554.27C2554.27 85.888 2549.33 79.492 2540.91 79.492C2533.06 79.492 2527.08 85.368 2527.08 93.48C2527.08 101.748 2533.32 107.624 2541.32 107.624C2545.28 107.624 2549.9 105.96 2552.3 103.464L2547.46 98.524C2546 99.928 2543.4 100.916 2541.27 100.916ZM2541.22 86.2C2544.29 86.2 2546.26 87.916 2546.99 90.568H2534.98C2535.97 87.864 2538.36 86.2 2541.22 86.2ZM2574.96 79.492C2571.47 79.492 2568.46 81.052 2566.84 83.496V80.116H2559.25V107H2566.84V90.932L2566.9 91.088C2566.9 88.176 2569.34 85.888 2572.51 85.888C2575.53 85.888 2577.61 88.176 2577.61 91.504V107H2584.94V89.892C2584.94 83.808 2580.78 79.492 2574.96 79.492ZM2605.49 100.344C2604.97 100.864 2603.93 101.228 2602.89 101.228C2601.49 101.228 2600.35 99.98 2600.35 98.212V86.252H2606.17V80.116H2600.35V72.732H2593.07V80.116H2589.37V86.252H2593.07V99.408C2593.07 104.244 2596.39 107.624 2601.13 107.624C2603.31 107.624 2605.75 106.688 2607.31 105.284L2605.49 100.344Z" fill="black"/>
</svg>
