<svg width="1644" height="878" viewBox="0 0 1644 878" fill="none" xmlns="http://www.w3.org/2000/svg">
<path d="M0 0H498L548 199L498 398H0V0Z" fill="#FDCC1D"/>
<path d="M548 0H1046L1096 199L1046 398H548L588 199L548 0Z" fill="#FDCC1D"/>
<path d="M1096 0H1594L1644 199L1594 398H1096L1136 199L1096 0Z" fill="#FDCC1D"/>
<path d="M165.842 107L157.054 94.52C161.942 92.804 165.166 88.644 165.166 83.34C165.166 76.268 159.446 71.276 151.698 71.276H135.63V107H143.274V95.404H148.942L157.106 107H165.842ZM143.274 78.296H150.866C154.662 78.296 157.262 80.272 157.262 83.34C157.262 86.408 154.662 88.384 150.866 88.384H143.274V78.296ZM183.352 100.916C180.18 100.916 177.84 98.94 176.956 96.028H196.352C196.352 85.888 191.412 79.492 182.988 79.492C175.136 79.492 169.156 85.368 169.156 93.48C169.156 101.748 175.396 107.624 183.404 107.624C187.356 107.624 191.984 105.96 194.376 103.464L189.54 98.524C188.084 99.928 185.484 100.916 183.352 100.916ZM183.3 86.2C186.368 86.2 188.344 87.916 189.072 90.568H177.06C178.048 87.864 180.44 86.2 183.3 86.2ZM211.576 107.624C218.18 107.624 222.496 104.244 222.496 98.94C222.496 93.064 217.348 91.504 212.72 90.308C209.08 89.32 207.988 88.904 207.988 87.448C207.988 86.512 209.288 85.836 211.16 85.836C213.448 85.836 216.256 86.72 218.7 88.228L221.768 82.82C218.804 80.844 215.008 79.492 211.16 79.492C204.816 79.492 200.604 83.132 200.656 88.228C200.708 93.532 204.972 95.04 210.484 96.392C213.24 97.12 215.216 97.64 215.216 99.304C215.216 100.5 213.76 101.332 211.732 101.332C208.144 101.332 205.128 100.032 202.736 98.316L199.46 103.568C202.684 106.168 207.26 107.624 211.576 107.624ZM240.278 100.916C237.106 100.916 234.766 98.94 233.882 96.028H253.278C253.278 85.888 248.338 79.492 239.914 79.492C232.062 79.492 226.082 85.368 226.082 93.48C226.082 101.748 232.322 107.624 240.33 107.624C244.282 107.624 248.91 105.96 251.302 103.464L246.466 98.524C245.01 99.928 242.41 100.916 240.278 100.916ZM240.226 86.2C243.294 86.2 245.27 87.916 245.998 90.568H233.986C234.974 87.864 237.366 86.2 240.226 86.2ZM270.426 79.492C266.682 79.492 262.99 80.532 259.194 82.456L261.742 87.5C263.874 86.408 266.214 85.576 268.71 85.576C273.13 85.576 274.898 88.072 274.898 90.932V91.452C272.61 90.568 270.218 90.1 268.034 90.1C261.794 90.1 256.854 93.74 256.854 99.044C256.854 104.192 261.274 107.624 266.994 107.624C269.906 107.624 272.974 106.48 274.898 104.296V107H282.23V90.932C282.23 83.912 277.446 79.492 270.426 79.492ZM268.71 102.372C266.11 102.372 264.186 101.02 264.186 98.836C264.186 96.652 266.37 95.04 269.126 95.04C271.206 95.04 273.182 95.404 274.898 96.028V98.524C274.378 101.02 271.622 102.372 268.71 102.372ZM296.221 85.108V80.116H288.629V107H296.221V94.156C296.221 89.112 299.809 85.888 305.425 85.888V79.492C301.317 79.492 297.989 81.624 296.221 85.108ZM322.961 107.624C327.433 107.624 331.073 105.804 333.725 102.892L328.681 98.628C327.277 100.188 325.093 101.228 323.013 101.228C319.009 101.228 315.681 97.692 315.681 93.48C315.681 89.372 319.009 85.888 322.961 85.888C325.041 85.888 327.173 86.876 328.525 88.384L333.569 84.068C330.969 81.26 327.381 79.492 323.013 79.492C315.057 79.492 308.297 85.888 308.297 93.532C308.297 101.176 315.005 107.624 322.961 107.624ZM353.841 79.492C350.409 79.492 347.445 81.052 345.781 83.392V70.652H338.189V107H345.781V91.088C345.781 88.176 348.225 85.888 351.397 85.888C354.413 85.888 356.493 88.176 356.493 91.504V107H363.825V89.892C363.825 83.808 359.665 79.492 353.841 79.492Z" fill="black"/>
<path d="M117.875 196.54C125.615 196.54 131.15 190.915 131.15 182.995V165.085H126.56V182.905C126.56 188.44 122.96 192.4 117.875 192.4C112.745 192.4 109.145 188.44 109.145 182.905V165.085H104.6V182.995C104.6 190.915 110.09 196.54 117.875 196.54ZM146.361 196.54C151.446 196.54 155.181 193.75 155.181 189.34C155.181 184.705 151.086 183.445 147.261 182.32C143.346 181.105 141.906 180.565 141.906 178.765C141.906 177.01 143.706 176.02 146.001 176.02C148.026 176.02 150.366 176.785 152.616 178.18L154.596 174.895C152.076 173.23 149.016 172.195 146.001 172.195C141.051 172.195 137.496 174.985 137.541 179.26C137.541 183.04 140.196 184.57 145.551 186.055C148.431 186.865 150.816 187.54 150.816 189.7C150.816 191.5 149.016 192.715 146.406 192.715C143.661 192.715 141.006 191.68 138.531 189.88L136.416 193.075C139.206 195.325 142.941 196.54 146.361 196.54ZM171.023 192.58C167.018 192.58 164.183 189.79 163.598 185.92H181.913C181.913 177.595 177.818 172.195 170.708 172.195C164.273 172.195 159.098 177.325 159.098 184.3C159.098 191.455 164.588 196.54 171.068 196.54C174.353 196.54 178.403 195.145 180.473 192.94L177.683 190.06C176.288 191.5 173.453 192.58 171.023 192.58ZM170.888 176.155C174.893 176.155 177.098 178.765 177.593 182.365H163.643C164.363 178.585 167.288 176.155 170.888 176.155ZM191.757 177.19V172.735H187.302V196H191.757V182.77C192.162 178.72 195.582 176.065 200.397 176.065V172.195C196.392 172.195 193.242 174.13 191.757 177.19ZM213.158 196.54C218.243 196.54 221.978 193.75 221.978 189.34C221.978 184.705 217.883 183.445 214.058 182.32C210.143 181.105 208.703 180.565 208.703 178.765C208.703 177.01 210.503 176.02 212.798 176.02C214.823 176.02 217.163 176.785 219.413 178.18L221.393 174.895C218.873 173.23 215.813 172.195 212.798 172.195C207.848 172.195 204.293 174.985 204.338 179.26C204.338 183.04 206.993 184.57 212.348 186.055C215.228 186.865 217.613 187.54 217.613 189.7C217.613 191.5 215.813 192.715 213.203 192.715C210.458 192.715 207.803 191.68 205.328 189.88L203.213 193.075C206.003 195.325 209.738 196.54 213.158 196.54ZM249.796 172.195C247.231 172.195 244.306 172.87 240.976 174.535L242.596 177.82C244.621 176.785 246.871 175.885 249.166 175.885C253.801 175.885 255.151 178.99 255.151 181.915V182.635C252.901 181.87 250.426 181.375 248.131 181.375C243.001 181.375 238.816 184.48 238.816 189.115C238.816 193.66 242.461 196.54 247.411 196.54C250.246 196.54 253.441 195.235 255.151 192.805V196H259.516V181.915C259.516 176.155 256.051 172.195 249.796 172.195ZM248.266 193.03C245.341 193.03 243.091 191.5 243.091 188.98C243.091 186.46 245.701 184.705 248.806 184.705C251.101 184.705 253.261 185.02 255.151 185.605V188.71C254.386 191.59 251.146 193.03 248.266 193.03ZM277.794 172.195C274.644 172.195 271.809 173.815 270.414 176.11V172.735H265.959V196H270.414V180.925C270.774 178.18 273.564 176.065 276.804 176.065C279.954 176.065 282.159 178.495 282.159 181.96V196H286.524V181.195C286.524 175.93 282.924 172.195 277.794 172.195ZM310.807 164.545V176.74C309.007 173.905 306.127 172.195 302.527 172.195C296.407 172.195 291.817 177.235 291.817 184.345C291.817 191.5 296.407 196.54 302.527 196.54C306.127 196.54 309.007 194.83 310.807 191.95V196H315.217V164.545H310.807ZM303.607 192.67C299.332 192.67 296.317 189.205 296.317 184.345C296.317 179.485 299.332 176.065 303.607 176.065C307.792 176.065 310.807 179.485 310.807 184.345C310.807 189.205 307.792 192.67 303.607 192.67ZM345.667 191.815C345.172 192.31 344.272 192.67 343.282 192.67C341.977 192.67 340.897 191.5 340.897 189.88V176.515H346.387V172.735H340.897V166.345H336.532V172.735H333.022V176.515H336.532V190.195C336.532 193.93 339.052 196.54 342.652 196.54C344.317 196.54 346.027 195.91 347.287 194.875L345.667 191.815ZM363.663 172.195C360.468 172.195 357.633 173.86 356.238 176.2V164.545H351.828V196H356.238V181.555C356.238 178.54 359.163 176.065 362.673 176.065C365.823 176.065 368.028 178.495 368.028 181.96V196H372.393V181.195C372.393 175.93 368.793 172.195 363.663 172.195ZM389.431 192.58C385.426 192.58 382.591 189.79 382.006 185.92H400.321C400.321 177.595 396.226 172.195 389.116 172.195C382.681 172.195 377.506 177.325 377.506 184.3C377.506 191.455 382.996 196.54 389.476 196.54C392.761 196.54 396.811 195.145 398.881 192.94L396.091 190.06C394.696 191.5 391.861 192.58 389.431 192.58ZM389.296 176.155C393.301 176.155 395.506 178.765 396.001 182.365H382.051C382.771 178.585 385.696 176.155 389.296 176.155ZM122.15 214.545V226.74C120.35 223.905 117.47 222.195 113.87 222.195C107.75 222.195 103.16 227.235 103.16 234.345C103.16 241.5 107.75 246.54 113.87 246.54C117.47 246.54 120.35 244.83 122.15 241.95V246H126.56V214.545H122.15ZM114.95 242.67C110.675 242.67 107.66 239.205 107.66 234.345C107.66 229.485 110.675 226.065 114.95 226.065C119.135 226.065 122.15 229.485 122.15 234.345C122.15 239.205 119.135 242.67 114.95 242.67ZM144.269 246.54C150.884 246.54 156.464 240.96 156.464 234.345C156.464 227.73 150.884 222.195 144.269 222.195C137.609 222.195 131.984 227.73 131.984 234.345C131.984 240.96 137.609 246.54 144.269 246.54ZM144.269 242.67C139.994 242.67 136.439 238.89 136.439 234.345C136.439 229.845 139.994 226.065 144.269 226.065C148.454 226.065 152.009 229.845 152.009 234.345C152.009 238.89 148.454 242.67 144.269 242.67ZM187.687 222.195C184.177 222.195 181.207 223.995 180.127 226.875C178.777 223.995 176.032 222.195 172.657 222.195C169.687 222.195 167.257 223.68 166.087 225.975V222.735H161.632V246H166.087V231.465C166.087 228.27 168.427 226.065 171.757 226.065C174.682 226.065 176.707 228.45 176.707 231.87V246H181.072V231.465C181.072 228.27 183.412 226.065 186.742 226.065C189.667 226.065 191.692 228.45 191.692 231.87V246H196.057V231.195C196.057 225.93 192.547 222.195 187.687 222.195ZM212.223 222.195C209.658 222.195 206.733 222.87 203.403 224.535L205.023 227.82C207.048 226.785 209.298 225.885 211.593 225.885C216.228 225.885 217.578 228.99 217.578 231.915V232.635C215.328 231.87 212.853 231.375 210.558 231.375C205.428 231.375 201.243 234.48 201.243 239.115C201.243 243.66 204.888 246.54 209.838 246.54C212.673 246.54 215.868 245.235 217.578 242.805V246H221.943V231.915C221.943 226.155 218.478 222.195 212.223 222.195ZM210.693 243.03C207.768 243.03 205.518 241.5 205.518 238.98C205.518 236.46 208.128 234.705 211.233 234.705C213.528 234.705 215.688 235.02 217.578 235.605V238.71C216.813 241.59 213.573 243.03 210.693 243.03ZM230.591 218.865C232.031 218.865 233.246 217.605 233.246 216.165C233.246 214.77 232.031 213.51 230.591 213.51C229.061 213.51 227.891 214.77 227.891 216.165C227.891 217.605 229.061 218.865 230.591 218.865ZM228.341 246H232.796V222.735H228.341V246ZM251.075 222.195C247.925 222.195 245.09 223.815 243.695 226.11V222.735H239.24V246H243.695V230.925C244.055 228.18 246.845 226.065 250.085 226.065C253.235 226.065 255.44 228.495 255.44 231.96V246H259.805V231.195C259.805 225.93 256.205 222.195 251.075 222.195Z" fill="black"/>
<path d="M646.225 196.54C654.91 196.54 662.2 189.205 662.2 180.52C662.2 171.835 654.91 164.545 646.225 164.545C637.54 164.545 630.16 171.835 630.16 180.52C630.16 189.205 637.54 196.54 646.225 196.54ZM646.225 192.355C640.06 192.355 634.84 186.955 634.84 180.52C634.84 174.13 640.06 168.73 646.225 168.73C652.39 168.73 657.565 174.13 657.565 180.52C657.565 186.955 652.39 192.355 646.225 192.355ZM673.747 170.17C673.747 168.55 674.827 167.38 676.132 167.38C677.122 167.38 678.022 167.74 678.517 168.235L680.137 165.265C678.877 164.23 677.167 163.6 675.502 163.6C671.902 163.6 669.382 166.21 669.382 169.945V172.735H665.872V176.515H669.382V196H673.747V176.515H679.237V172.735H673.747V170.17ZM712.739 172.735V187.81C712.379 190.555 709.589 192.67 706.349 192.67C703.199 192.67 700.994 190.24 700.994 186.775V172.735H696.629V187.54C696.629 192.805 700.229 196.54 705.359 196.54C708.509 196.54 711.344 194.92 712.739 192.625V196H717.194V172.735H712.739ZM732.072 196.54C737.157 196.54 740.892 193.75 740.892 189.34C740.892 184.705 736.797 183.445 732.972 182.32C729.057 181.105 727.617 180.565 727.617 178.765C727.617 177.01 729.417 176.02 731.712 176.02C733.737 176.02 736.077 176.785 738.327 178.18L740.307 174.895C737.787 173.23 734.727 172.195 731.712 172.195C726.762 172.195 723.207 174.985 723.252 179.26C723.252 183.04 725.907 184.57 731.262 186.055C734.142 186.865 736.527 187.54 736.527 189.7C736.527 191.5 734.727 192.715 732.117 192.715C729.372 192.715 726.717 191.68 724.242 189.88L722.127 193.075C724.917 195.325 728.652 196.54 732.072 196.54ZM756.734 192.58C752.729 192.58 749.894 189.79 749.309 185.92H767.624C767.624 177.595 763.529 172.195 756.419 172.195C749.984 172.195 744.809 177.325 744.809 184.3C744.809 191.455 750.299 196.54 756.779 196.54C760.064 196.54 764.114 195.145 766.184 192.94L763.394 190.06C761.999 191.5 759.164 192.58 756.734 192.58ZM756.599 176.155C760.604 176.155 762.809 178.765 763.304 182.365H749.354C750.074 178.585 752.999 176.155 756.599 176.155ZM777.468 177.19V172.735H773.013V196H777.468V182.77C777.873 178.72 781.293 176.065 786.108 176.065V172.195C782.103 172.195 778.953 174.13 777.468 177.19ZM798.869 196.54C803.954 196.54 807.689 193.75 807.689 189.34C807.689 184.705 803.594 183.445 799.769 182.32C795.854 181.105 794.414 180.565 794.414 178.765C794.414 177.01 796.214 176.02 798.509 176.02C800.534 176.02 802.874 176.785 805.124 178.18L807.104 174.895C804.584 173.23 801.524 172.195 798.509 172.195C793.559 172.195 790.004 174.985 790.049 179.26C790.049 183.04 792.704 184.57 798.059 186.055C800.939 186.865 803.324 187.54 803.324 189.7C803.324 191.5 801.524 192.715 798.914 192.715C796.169 192.715 793.514 191.68 791.039 189.88L788.924 193.075C791.714 195.325 795.449 196.54 798.869 196.54ZM835.507 172.195C832.942 172.195 830.017 172.87 826.687 174.535L828.307 177.82C830.332 176.785 832.582 175.885 834.877 175.885C839.512 175.885 840.862 178.99 840.862 181.915V182.635C838.612 181.87 836.137 181.375 833.842 181.375C828.712 181.375 824.527 184.48 824.527 189.115C824.527 193.66 828.172 196.54 833.122 196.54C835.957 196.54 839.152 195.235 840.862 192.805V196H845.227V181.915C845.227 176.155 841.762 172.195 835.507 172.195ZM833.977 193.03C831.052 193.03 828.802 191.5 828.802 188.98C828.802 186.46 831.412 184.705 834.517 184.705C836.812 184.705 838.972 185.02 840.862 185.605V188.71C840.097 191.59 836.857 193.03 833.977 193.03ZM863.505 172.195C860.355 172.195 857.52 173.815 856.125 176.11V172.735H851.67V196H856.125V180.925C856.485 178.18 859.275 176.065 862.515 176.065C865.665 176.065 867.87 178.495 867.87 181.96V196H872.235V181.195C872.235 175.93 868.635 172.195 863.505 172.195ZM896.518 164.545V176.74C894.718 173.905 891.838 172.195 888.238 172.195C882.118 172.195 877.528 177.235 877.528 184.345C877.528 191.5 882.118 196.54 888.238 196.54C891.838 196.54 894.718 194.83 896.518 191.95V196H900.928V164.545H896.518ZM889.318 192.67C885.043 192.67 882.028 189.205 882.028 184.345C882.028 179.485 885.043 176.065 889.318 176.065C893.503 176.065 896.518 179.485 896.518 184.345C896.518 189.205 893.503 192.67 889.318 192.67ZM931.378 191.815C930.883 192.31 929.983 192.67 928.993 192.67C927.688 192.67 926.608 191.5 926.608 189.88V176.515H932.098V172.735H926.608V166.345H922.243V172.735H918.733V176.515H922.243V190.195C922.243 193.93 924.763 196.54 928.363 196.54C930.028 196.54 931.738 195.91 932.998 194.875L931.378 191.815ZM949.374 172.195C946.179 172.195 943.344 173.86 941.949 176.2V164.545H937.539V196H941.949V181.555C941.949 178.54 944.874 176.065 948.384 176.065C951.534 176.065 953.739 178.495 953.739 181.96V196H958.104V181.195C958.104 175.93 954.504 172.195 949.374 172.195ZM975.142 192.58C971.137 192.58 968.302 189.79 967.717 185.92H986.032C986.032 177.595 981.937 172.195 974.827 172.195C968.392 172.195 963.217 177.325 963.217 184.3C963.217 191.455 968.707 196.54 975.187 196.54C978.472 196.54 982.522 195.145 984.592 192.94L981.802 190.06C980.407 191.5 977.572 192.58 975.142 192.58ZM975.007 176.155C979.012 176.155 981.217 178.765 981.712 182.365H967.762C968.482 178.585 971.407 176.155 975.007 176.155ZM993.401 168.865C994.841 168.865 996.056 167.605 996.056 166.165C996.056 164.77 994.841 163.51 993.401 163.51C991.871 163.51 990.701 164.77 990.701 166.165C990.701 167.605 991.871 168.865 993.401 168.865ZM991.151 196H995.606V172.735H991.151V196ZM1006.73 177.19V172.735H1002.28V196H1006.73V182.77C1007.14 178.72 1010.56 176.065 1015.37 176.065V172.195C1011.37 172.195 1008.22 174.13 1006.73 177.19ZM648.925 222.735V226.47C647.17 223.86 644.2 222.195 640.69 222.195C634.57 222.195 630.115 226.74 630.115 233.22C630.115 239.7 634.57 244.29 640.69 244.29C644.2 244.29 647.08 242.715 648.925 240.06V243.435C648.925 247.485 645.91 249.87 640.915 249.87C638.125 249.87 635.335 248.925 633.625 247.305L631.87 250.635C634.075 252.435 637.675 253.74 641.59 253.74C648.475 253.74 653.38 249.51 653.38 243.525V222.735H648.925ZM641.815 240.42C637.675 240.42 634.75 237.45 634.75 233.22C634.75 229.035 637.675 226.065 641.815 226.065C645.955 226.065 648.925 229.035 648.925 233.22C648.925 237.45 645.955 240.42 641.815 240.42ZM671.049 246.54C677.664 246.54 683.244 240.96 683.244 234.345C683.244 227.73 677.664 222.195 671.049 222.195C664.389 222.195 658.764 227.73 658.764 234.345C658.764 240.96 664.389 246.54 671.049 246.54ZM671.049 242.67C666.774 242.67 663.219 238.89 663.219 234.345C663.219 229.845 666.774 226.065 671.049 226.065C675.234 226.065 678.789 229.845 678.789 234.345C678.789 238.89 675.234 242.67 671.049 242.67ZM698.222 222.195C695.657 222.195 692.732 222.87 689.402 224.535L691.022 227.82C693.047 226.785 695.297 225.885 697.592 225.885C702.227 225.885 703.577 228.99 703.577 231.915V232.635C701.327 231.87 698.852 231.375 696.557 231.375C691.427 231.375 687.242 234.48 687.242 239.115C687.242 243.66 690.887 246.54 695.837 246.54C698.672 246.54 701.867 245.235 703.577 242.805V246H707.942V231.915C707.942 226.155 704.477 222.195 698.222 222.195ZM696.692 243.03C693.767 243.03 691.517 241.5 691.517 238.98C691.517 236.46 694.127 234.705 697.232 234.705C699.527 234.705 701.687 235.02 703.577 235.605V238.71C702.812 241.59 699.572 243.03 696.692 243.03ZM714.385 246H718.795V214.545H714.385V246ZM733.698 246.54C738.783 246.54 742.518 243.75 742.518 239.34C742.518 234.705 738.423 233.445 734.598 232.32C730.683 231.105 729.243 230.565 729.243 228.765C729.243 227.01 731.043 226.02 733.338 226.02C735.363 226.02 737.703 226.785 739.953 228.18L741.933 224.895C739.413 223.23 736.353 222.195 733.338 222.195C728.388 222.195 724.833 224.985 724.878 229.26C724.878 233.04 727.533 234.57 732.888 236.055C735.768 236.865 738.153 237.54 738.153 239.7C738.153 241.5 736.353 242.715 733.743 242.715C730.998 242.715 728.343 241.68 725.868 239.88L723.753 243.075C726.543 245.325 730.278 246.54 733.698 246.54Z" fill="black"/>
<path d="M1190.92 180H1201.58C1211.57 180 1218.68 173.565 1218.68 164.52C1218.68 155.475 1211.57 149.085 1201.58 149.085H1190.92V180ZM1195.46 175.86V153.225H1201.85C1209.01 153.225 1214 157.905 1214 164.52C1214 171.18 1209.01 175.86 1201.85 175.86H1195.46ZM1235.18 176.58C1231.18 176.58 1228.34 173.79 1227.76 169.92H1246.07C1246.07 161.595 1241.98 156.195 1234.87 156.195C1228.43 156.195 1223.26 161.325 1223.26 168.3C1223.26 175.455 1228.75 180.54 1235.23 180.54C1238.51 180.54 1242.56 179.145 1244.63 176.94L1241.84 174.06C1240.45 175.5 1237.61 176.58 1235.18 176.58ZM1235.05 160.155C1239.05 160.155 1241.26 162.765 1241.75 166.365H1227.8C1228.52 162.585 1231.45 160.155 1235.05 160.155ZM1257.36 154.17C1257.36 152.55 1258.44 151.38 1259.74 151.38C1260.73 151.38 1261.63 151.74 1262.13 152.235L1263.75 149.265C1262.49 148.23 1260.78 147.6 1259.11 147.6C1255.51 147.6 1252.99 150.21 1252.99 153.945V156.735H1249.48V160.515H1252.99V180H1257.36V160.515H1262.85V156.735H1257.36V154.17ZM1269.66 152.865C1271.1 152.865 1272.31 151.605 1272.31 150.165C1272.31 148.77 1271.1 147.51 1269.66 147.51C1268.13 147.51 1266.96 148.77 1266.96 150.165C1266.96 151.605 1268.13 152.865 1269.66 152.865ZM1267.41 180H1271.86V156.735H1267.41V180ZM1290.14 156.195C1286.99 156.195 1284.16 157.815 1282.76 160.11V156.735H1278.31V180H1282.76V164.925C1283.12 162.18 1285.91 160.065 1289.15 160.065C1292.3 160.065 1294.51 162.495 1294.51 165.96V180H1298.87V165.195C1298.87 159.93 1295.27 156.195 1290.14 156.195ZM1307.45 152.865C1308.89 152.865 1310.1 151.605 1310.1 150.165C1310.1 148.77 1308.89 147.51 1307.45 147.51C1305.92 147.51 1304.75 148.77 1304.75 150.165C1304.75 151.605 1305.92 152.865 1307.45 152.865ZM1305.2 180H1309.65V156.735H1305.2V180ZM1326.99 175.815C1326.49 176.31 1325.59 176.67 1324.6 176.67C1323.3 176.67 1322.22 175.5 1322.22 173.88V160.515H1327.71V156.735H1322.22V150.345H1317.85V156.735H1314.34V160.515H1317.85V174.195C1317.85 177.93 1320.37 180.54 1323.97 180.54C1325.64 180.54 1327.35 179.91 1328.61 178.875L1326.99 175.815ZM1335.36 152.865C1336.8 152.865 1338.01 151.605 1338.01 150.165C1338.01 148.77 1336.8 147.51 1335.36 147.51C1333.83 147.51 1332.66 148.77 1332.66 150.165C1332.66 151.605 1333.83 152.865 1335.36 152.865ZM1333.11 180H1337.56V156.735H1333.11V180ZM1355.03 180.54C1361.64 180.54 1367.22 174.96 1367.22 168.345C1367.22 161.73 1361.64 156.195 1355.03 156.195C1348.37 156.195 1342.74 161.73 1342.74 168.345C1342.74 174.96 1348.37 180.54 1355.03 180.54ZM1355.03 176.67C1350.75 176.67 1347.2 172.89 1347.2 168.345C1347.2 163.845 1350.75 160.065 1355.03 160.065C1359.21 160.065 1362.77 163.845 1362.77 168.345C1362.77 172.89 1359.21 176.67 1355.03 176.67ZM1384.27 156.195C1381.12 156.195 1378.29 157.815 1376.89 160.11V156.735H1372.44V180H1376.89V164.925C1377.25 162.18 1380.04 160.065 1383.28 160.065C1386.43 160.065 1388.64 162.495 1388.64 165.96V180H1393V165.195C1393 159.93 1389.4 156.195 1384.27 156.195ZM1423.28 180.54C1429.89 180.54 1435.47 174.96 1435.47 168.345C1435.47 161.73 1429.89 156.195 1423.28 156.195C1416.62 156.195 1410.99 161.73 1410.99 168.345C1410.99 174.96 1416.62 180.54 1423.28 180.54ZM1423.28 176.67C1419 176.67 1415.45 172.89 1415.45 168.345C1415.45 163.845 1419 160.065 1423.28 160.065C1427.46 160.065 1431.02 163.845 1431.02 168.345C1431.02 172.89 1427.46 176.67 1423.28 176.67ZM1446.8 154.17C1446.8 152.55 1447.88 151.38 1449.19 151.38C1450.18 151.38 1451.08 151.74 1451.57 152.235L1453.19 149.265C1451.93 148.23 1450.22 147.6 1448.56 147.6C1444.96 147.6 1442.44 150.21 1442.44 153.945V156.735H1438.93V160.515H1442.44V180H1446.8V160.515H1452.29V156.735H1446.8V154.17ZM1485.8 156.735V171.81C1485.44 174.555 1482.65 176.67 1479.41 176.67C1476.26 176.67 1474.05 174.24 1474.05 170.775V156.735H1469.69V171.54C1469.69 176.805 1473.29 180.54 1478.42 180.54C1481.57 180.54 1484.4 178.92 1485.8 176.625V180H1490.25V156.735H1485.8ZM1505.13 180.54C1510.21 180.54 1513.95 177.75 1513.95 173.34C1513.95 168.705 1509.85 167.445 1506.03 166.32C1502.11 165.105 1500.67 164.565 1500.67 162.765C1500.67 161.01 1502.47 160.02 1504.77 160.02C1506.79 160.02 1509.13 160.785 1511.38 162.18L1513.36 158.895C1510.84 157.23 1507.78 156.195 1504.77 156.195C1499.82 156.195 1496.26 158.985 1496.31 163.26C1496.31 167.04 1498.96 168.57 1504.32 170.055C1507.2 170.865 1509.58 171.54 1509.58 173.7C1509.58 175.5 1507.78 176.715 1505.17 176.715C1502.43 176.715 1499.77 175.68 1497.3 173.88L1495.18 177.075C1497.97 179.325 1501.71 180.54 1505.13 180.54ZM1529.79 176.58C1525.79 176.58 1522.95 173.79 1522.37 169.92H1540.68C1540.68 161.595 1536.59 156.195 1529.48 156.195C1523.04 156.195 1517.87 161.325 1517.87 168.3C1517.87 175.455 1523.36 180.54 1529.84 180.54C1533.12 180.54 1537.17 179.145 1539.24 176.94L1536.45 174.06C1535.06 175.5 1532.22 176.58 1529.79 176.58ZM1529.66 160.155C1533.66 160.155 1535.87 162.765 1536.36 166.365H1522.41C1523.13 162.585 1526.06 160.155 1529.66 160.155ZM1550.53 161.19V156.735H1546.07V180H1550.53V166.77C1550.93 162.72 1554.35 160.065 1559.17 160.065V156.195C1555.16 156.195 1552.01 158.13 1550.53 161.19ZM1565.76 186.165C1568.64 182.88 1569.68 180.945 1569.68 178.83C1569.68 176.355 1568.42 174.555 1566.44 174.555C1564.73 174.555 1563.42 175.95 1563.42 177.525C1563.42 179.19 1564.73 180.54 1566.35 180.54C1565.99 181.935 1565.18 183.375 1563.87 184.725L1565.76 186.165ZM1203.16 206.195C1199.56 206.195 1196.68 207.905 1194.88 210.74V198.545H1190.47V230H1194.88V225.95C1196.68 228.83 1199.56 230.54 1203.16 230.54C1209.28 230.54 1213.87 225.5 1213.87 218.345C1213.87 211.235 1209.28 206.195 1203.16 206.195ZM1202.08 226.67C1197.89 226.67 1194.88 223.205 1194.88 218.345C1194.88 213.485 1197.89 210.065 1202.08 210.065C1206.35 210.065 1209.37 213.485 1209.37 218.345C1209.37 223.205 1206.35 226.67 1202.08 226.67ZM1235.26 206.735V221.81C1234.9 224.555 1232.11 226.67 1228.87 226.67C1225.72 226.67 1223.52 224.24 1223.52 220.775V206.735H1219.15V221.54C1219.15 226.805 1222.75 230.54 1227.88 230.54C1231.03 230.54 1233.87 228.92 1235.26 226.625V230H1239.72V206.735H1235.26ZM1254.6 230.54C1259.68 230.54 1263.42 227.75 1263.42 223.34C1263.42 218.705 1259.32 217.445 1255.5 216.32C1251.58 215.105 1250.14 214.565 1250.14 212.765C1250.14 211.01 1251.94 210.02 1254.24 210.02C1256.26 210.02 1258.6 210.785 1260.85 212.18L1262.83 208.895C1260.31 207.23 1257.25 206.195 1254.24 206.195C1249.29 206.195 1245.73 208.985 1245.78 213.26C1245.78 217.04 1248.43 218.57 1253.79 220.055C1256.67 220.865 1259.05 221.54 1259.05 223.7C1259.05 225.5 1257.25 226.715 1254.64 226.715C1251.9 226.715 1249.24 225.68 1246.77 223.88L1244.65 227.075C1247.44 229.325 1251.18 230.54 1254.6 230.54ZM1270.8 202.865C1272.24 202.865 1273.45 201.605 1273.45 200.165C1273.45 198.77 1272.24 197.51 1270.8 197.51C1269.27 197.51 1268.1 198.77 1268.1 200.165C1268.1 201.605 1269.27 202.865 1270.8 202.865ZM1268.55 230H1273V206.735H1268.55V230ZM1291.28 206.195C1288.13 206.195 1285.3 207.815 1283.9 210.11V206.735H1279.45V230H1283.9V214.925C1284.26 212.18 1287.05 210.065 1290.29 210.065C1293.44 210.065 1295.65 212.495 1295.65 215.96V230H1300.01V215.195C1300.01 209.93 1296.41 206.195 1291.28 206.195ZM1317.05 226.58C1313.05 226.58 1310.21 223.79 1309.63 219.92H1327.94C1327.94 211.595 1323.85 206.195 1316.74 206.195C1310.3 206.195 1305.13 211.325 1305.13 218.3C1305.13 225.455 1310.62 230.54 1317.1 230.54C1320.38 230.54 1324.43 229.145 1326.5 226.94L1323.71 224.06C1322.32 225.5 1319.48 226.58 1317.05 226.58ZM1316.92 210.155C1320.92 210.155 1323.13 212.765 1323.62 216.365H1309.67C1310.39 212.585 1313.32 210.155 1316.92 210.155ZM1341.52 230.54C1346.61 230.54 1350.34 227.75 1350.34 223.34C1350.34 218.705 1346.25 217.445 1342.42 216.32C1338.51 215.105 1337.07 214.565 1337.07 212.765C1337.07 211.01 1338.87 210.02 1341.16 210.02C1343.19 210.02 1345.53 210.785 1347.78 212.18L1349.76 208.895C1347.24 207.23 1344.18 206.195 1341.16 206.195C1336.21 206.195 1332.66 208.985 1332.7 213.26C1332.7 217.04 1335.36 218.57 1340.71 220.055C1343.59 220.865 1345.98 221.54 1345.98 223.7C1345.98 225.5 1344.18 226.715 1341.57 226.715C1338.82 226.715 1336.17 225.68 1333.69 223.88L1331.58 227.075C1334.37 229.325 1338.1 230.54 1341.52 230.54ZM1363.93 230.54C1369.02 230.54 1372.75 227.75 1372.75 223.34C1372.75 218.705 1368.66 217.445 1364.83 216.32C1360.92 215.105 1359.48 214.565 1359.48 212.765C1359.48 211.01 1361.28 210.02 1363.57 210.02C1365.6 210.02 1367.94 210.785 1370.19 212.18L1372.17 208.895C1369.65 207.23 1366.59 206.195 1363.57 206.195C1358.62 206.195 1355.07 208.985 1355.11 213.26C1355.11 217.04 1357.77 218.57 1363.12 220.055C1366 220.865 1368.39 221.54 1368.39 223.7C1368.39 225.5 1366.59 226.715 1363.98 226.715C1361.23 226.715 1358.58 225.68 1356.1 223.88L1353.99 227.075C1356.78 229.325 1360.51 230.54 1363.93 230.54ZM1380.18 236.165C1383.06 232.88 1384.1 230.945 1384.1 228.83C1384.1 226.355 1382.84 224.555 1380.86 224.555C1379.15 224.555 1377.84 225.95 1377.84 227.525C1377.84 229.19 1379.15 230.54 1380.77 230.54C1380.41 231.935 1379.6 233.375 1378.29 234.725L1380.18 236.165ZM1412.92 206.195C1410.36 206.195 1407.43 206.87 1404.1 208.535L1405.72 211.82C1407.75 210.785 1410 209.885 1412.29 209.885C1416.93 209.885 1418.28 212.99 1418.28 215.915V216.635C1416.03 215.87 1413.55 215.375 1411.26 215.375C1406.13 215.375 1401.94 218.48 1401.94 223.115C1401.94 227.66 1405.59 230.54 1410.54 230.54C1413.37 230.54 1416.57 229.235 1418.28 226.805V230H1422.64V215.915C1422.64 210.155 1419.18 206.195 1412.92 206.195ZM1411.39 227.03C1408.47 227.03 1406.22 225.5 1406.22 222.98C1406.22 220.46 1408.83 218.705 1411.93 218.705C1414.23 218.705 1416.39 219.02 1418.28 219.605V222.71C1417.51 225.59 1414.27 227.03 1411.39 227.03ZM1440.92 206.195C1437.77 206.195 1434.93 207.815 1433.54 210.11V206.735H1429.08V230H1433.54V214.925C1433.9 212.18 1436.69 210.065 1439.93 210.065C1443.08 210.065 1445.28 212.495 1445.28 215.96V230H1449.65V215.195C1449.65 209.93 1446.05 206.195 1440.92 206.195ZM1473.93 198.545V210.74C1472.13 207.905 1469.25 206.195 1465.65 206.195C1459.53 206.195 1454.94 211.235 1454.94 218.345C1454.94 225.5 1459.53 230.54 1465.65 230.54C1469.25 230.54 1472.13 228.83 1473.93 225.95V230H1478.34V198.545H1473.93ZM1466.73 226.67C1462.46 226.67 1459.44 223.205 1459.44 218.345C1459.44 213.485 1462.46 210.065 1466.73 210.065C1470.92 210.065 1473.93 213.485 1473.93 218.345C1473.93 223.205 1470.92 226.67 1466.73 226.67ZM1201.13 275.815C1200.64 276.31 1199.74 276.67 1198.75 276.67C1197.44 276.67 1196.36 275.5 1196.36 273.88V260.515H1201.85V256.735H1196.36V250.345H1192V256.735H1188.48V260.515H1192V274.195C1192 277.93 1194.52 280.54 1198.12 280.54C1199.78 280.54 1201.49 279.91 1202.75 278.875L1201.13 275.815ZM1217.96 276.58C1213.95 276.58 1211.12 273.79 1210.53 269.92H1228.85C1228.85 261.595 1224.75 256.195 1217.64 256.195C1211.21 256.195 1206.03 261.325 1206.03 268.3C1206.03 275.455 1211.52 280.54 1218 280.54C1221.29 280.54 1225.34 279.145 1227.41 276.94L1224.62 274.06C1223.22 275.5 1220.39 276.58 1217.96 276.58ZM1217.82 260.155C1221.83 260.155 1224.03 262.765 1224.53 266.365H1210.58C1211.3 262.585 1214.22 260.155 1217.82 260.155ZM1244.99 280.54C1248.45 280.54 1251.47 279.1 1253.72 276.805L1250.7 274.06C1249.26 275.68 1247.19 276.67 1245.03 276.67C1240.76 276.67 1237.25 272.89 1237.25 268.345C1237.25 263.845 1240.76 260.065 1244.99 260.065C1247.15 260.065 1249.17 261.01 1250.57 262.585L1253.58 259.795C1251.38 257.59 1248.36 256.195 1245.03 256.195C1238.37 256.195 1232.75 261.73 1232.75 268.345C1232.75 274.96 1238.37 280.54 1244.99 280.54ZM1270.32 256.195C1267.13 256.195 1264.29 257.86 1262.9 260.2V248.545H1258.49V280H1262.9V265.555C1262.9 262.54 1265.82 260.065 1269.33 260.065C1272.48 260.065 1274.69 262.495 1274.69 265.96V280H1279.05V265.195C1279.05 259.93 1275.45 256.195 1270.32 256.195ZM1297.26 256.195C1294.11 256.195 1291.28 257.815 1289.88 260.11V256.735H1285.43V280H1289.88V264.925C1290.24 262.18 1293.03 260.065 1296.27 260.065C1299.42 260.065 1301.63 262.495 1301.63 265.96V280H1305.99V265.195C1305.99 259.93 1302.39 256.195 1297.26 256.195ZM1314.57 252.865C1316.01 252.865 1317.22 251.605 1317.22 250.165C1317.22 248.77 1316.01 247.51 1314.57 247.51C1313.04 247.51 1311.87 248.77 1311.87 250.165C1311.87 251.605 1313.04 252.865 1314.57 252.865ZM1312.32 280H1316.77V256.735H1312.32V280ZM1334.2 280.54C1337.66 280.54 1340.68 279.1 1342.93 276.805L1339.91 274.06C1338.47 275.68 1336.4 276.67 1334.24 276.67C1329.97 276.67 1326.46 272.89 1326.46 268.345C1326.46 263.845 1329.97 260.065 1334.2 260.065C1336.36 260.065 1338.38 261.01 1339.78 262.585L1342.79 259.795C1340.59 257.59 1337.57 256.195 1334.24 256.195C1327.58 256.195 1321.96 261.73 1321.96 268.345C1321.96 274.96 1327.58 280.54 1334.2 280.54ZM1357.46 256.195C1354.9 256.195 1351.97 256.87 1348.64 258.535L1350.26 261.82C1352.29 260.785 1354.54 259.885 1356.83 259.885C1361.47 259.885 1362.82 262.99 1362.82 265.915V266.635C1360.57 265.87 1358.09 265.375 1355.8 265.375C1350.67 265.375 1346.48 268.48 1346.48 273.115C1346.48 277.66 1350.13 280.54 1355.08 280.54C1357.91 280.54 1361.11 279.235 1362.82 276.805V280H1367.18V265.915C1367.18 260.155 1363.72 256.195 1357.46 256.195ZM1355.93 277.03C1353.01 277.03 1350.76 275.5 1350.76 272.98C1350.76 270.46 1353.37 268.705 1356.47 268.705C1358.77 268.705 1360.93 269.02 1362.82 269.605V272.71C1362.05 275.59 1358.81 277.03 1355.93 277.03ZM1373.62 280H1378.03V248.545H1373.62V280ZM1409.23 256.195C1406.08 256.195 1403.25 257.815 1401.85 260.11V256.735H1397.4V280H1401.85V264.925C1402.21 262.18 1405 260.065 1408.24 260.065C1411.39 260.065 1413.6 262.495 1413.6 265.96V280H1417.96V265.195C1417.96 259.93 1414.36 256.195 1409.23 256.195ZM1435 276.58C1431 276.58 1428.16 273.79 1427.58 269.92H1445.89C1445.89 261.595 1441.8 256.195 1434.69 256.195C1428.25 256.195 1423.08 261.325 1423.08 268.3C1423.08 275.455 1428.57 280.54 1435.05 280.54C1438.33 280.54 1442.38 279.145 1444.45 276.94L1441.66 274.06C1440.27 275.5 1437.43 276.58 1435 276.58ZM1434.87 260.155C1438.87 260.155 1441.08 262.765 1441.57 266.365H1427.62C1428.34 262.585 1431.27 260.155 1434.87 260.155ZM1461.72 276.58C1457.72 276.58 1454.88 273.79 1454.3 269.92H1472.61C1472.61 261.595 1468.52 256.195 1461.41 256.195C1454.97 256.195 1449.8 261.325 1449.8 268.3C1449.8 275.455 1455.29 280.54 1461.77 280.54C1465.05 280.54 1469.1 279.145 1471.17 276.94L1468.38 274.06C1466.99 275.5 1464.15 276.58 1461.72 276.58ZM1461.59 260.155C1465.59 260.155 1467.8 262.765 1468.29 266.365H1454.34C1455.06 262.585 1457.99 260.155 1461.59 260.155ZM1495.68 248.545V260.74C1493.88 257.905 1491 256.195 1487.4 256.195C1481.28 256.195 1476.69 261.235 1476.69 268.345C1476.69 275.5 1481.28 280.54 1487.4 280.54C1491 280.54 1493.88 278.83 1495.68 275.95V280H1500.09V248.545H1495.68ZM1488.48 276.67C1484.21 276.67 1481.19 273.205 1481.19 268.345C1481.19 263.485 1484.21 260.065 1488.48 260.065C1492.67 260.065 1495.68 263.485 1495.68 268.345C1495.68 273.205 1492.67 276.67 1488.48 276.67ZM1515.19 280.54C1520.28 280.54 1524.01 277.75 1524.01 273.34C1524.01 268.705 1519.92 267.445 1516.09 266.32C1512.18 265.105 1510.74 264.565 1510.74 262.765C1510.74 261.01 1512.54 260.02 1514.83 260.02C1516.86 260.02 1519.2 260.785 1521.45 262.18L1523.43 258.895C1520.91 257.23 1517.85 256.195 1514.83 256.195C1509.88 256.195 1506.33 258.985 1506.37 263.26C1506.37 267.04 1509.03 268.57 1514.38 270.055C1517.26 270.865 1519.65 271.54 1519.65 273.7C1519.65 275.5 1517.85 276.715 1515.24 276.715C1512.49 276.715 1509.84 275.68 1507.36 273.88L1505.25 277.075C1508.04 279.325 1511.77 280.54 1515.19 280.54Z" fill="black"/>
<path d="M712.198 107H719.842V84.744L730.918 104.92L741.942 84.744V107H749.638V71.276H741.942L730.918 91.452L719.842 71.276H712.198V107ZM769.979 107.624C777.935 107.624 784.591 101.176 784.591 93.532C784.591 85.888 777.935 79.492 769.979 79.492C761.971 79.492 755.263 85.888 755.263 93.532C755.263 101.176 761.971 107.624 769.979 107.624ZM769.979 101.228C765.923 101.228 762.543 97.692 762.543 93.532C762.543 89.372 765.923 85.888 769.979 85.888C773.983 85.888 777.363 89.372 777.363 93.532C777.363 97.692 773.983 101.228 769.979 101.228ZM809.8 70.652V83.964C807.668 81.156 804.548 79.492 800.752 79.492C793.576 79.492 788.376 85.316 788.376 93.532C788.376 101.8 793.576 107.624 800.752 107.624C804.548 107.624 807.668 105.96 809.8 103.152V107H817.392V70.652H809.8ZM802.936 101.228C798.724 101.228 795.76 98.056 795.76 93.532C795.76 89.06 798.724 85.888 802.936 85.888C806.94 85.888 809.8 89.06 809.8 93.532C809.8 98.056 806.94 101.228 802.936 101.228ZM836.745 100.916C833.573 100.916 831.233 98.94 830.349 96.028H849.745C849.745 85.888 844.805 79.492 836.381 79.492C828.529 79.492 822.549 85.368 822.549 93.48C822.549 101.748 828.789 107.624 836.797 107.624C840.749 107.624 845.377 105.96 847.769 103.464L842.933 98.524C841.477 99.928 838.877 100.916 836.745 100.916ZM836.693 86.2C839.761 86.2 841.737 87.916 842.465 90.568H830.453C831.441 87.864 833.833 86.2 836.693 86.2ZM854.881 107H862.473V70.652H854.881V107ZM872.895 76.424C875.131 76.424 876.951 74.552 876.951 72.264C876.951 70.132 875.131 68.208 872.895 68.208C870.555 68.208 868.735 70.132 868.735 72.264C868.735 74.552 870.555 76.424 872.895 76.424ZM869.047 107H876.639V80.116H869.047V107ZM898.815 79.492C895.331 79.492 892.315 81.052 890.703 83.496V80.116H883.111V107H890.703V90.932L890.755 91.088C890.755 88.176 893.199 85.888 896.371 85.888C899.387 85.888 901.467 88.176 901.467 91.504V107H908.799V89.892C908.799 83.808 904.639 79.492 898.815 79.492ZM934.657 80.116V83.756C932.837 81.208 929.405 79.492 925.765 79.492C919.005 79.492 913.857 84.744 913.857 92.232C913.857 99.72 919.005 105.024 925.765 105.024C929.301 105.024 932.525 103.464 934.657 100.864V103.828C934.657 107.312 931.537 109.548 926.649 109.548C923.529 109.548 920.409 108.56 918.641 107L915.989 112.356C918.641 114.436 923.113 115.944 927.845 115.944C936.321 115.944 942.301 111.056 942.301 104.14V80.116H934.657ZM928.157 98.628C924.361 98.628 921.657 95.976 921.657 92.232C921.657 88.488 924.361 85.888 928.157 85.888C931.953 85.888 934.657 88.488 934.657 92.232C934.657 95.976 931.953 98.628 928.157 98.628Z" fill="black"/>
<path d="M1221.06 107L1212.27 94.52C1217.16 92.804 1220.38 88.644 1220.38 83.34C1220.38 76.268 1214.66 71.276 1206.91 71.276H1190.84V107H1198.49V95.404H1204.16L1212.32 107H1221.06ZM1198.49 78.296H1206.08C1209.88 78.296 1212.48 80.272 1212.48 83.34C1212.48 86.408 1209.88 88.384 1206.08 88.384H1198.49V78.296ZM1238.57 100.916C1235.39 100.916 1233.05 98.94 1232.17 96.028H1251.57C1251.57 85.888 1246.63 79.492 1238.2 79.492C1230.35 79.492 1224.37 85.368 1224.37 93.48C1224.37 101.748 1230.61 107.624 1238.62 107.624C1242.57 107.624 1247.2 105.96 1249.59 103.464L1244.75 98.524C1243.3 99.928 1240.7 100.916 1238.57 100.916ZM1238.51 86.2C1241.58 86.2 1243.56 87.916 1244.29 90.568H1232.27C1233.26 87.864 1235.65 86.2 1238.51 86.2ZM1276.78 80.116V83.964C1274.64 81.156 1271.52 79.492 1267.73 79.492C1260.55 79.492 1255.35 85.316 1255.35 93.532C1255.35 101.8 1260.55 107.624 1267.73 107.624C1271.52 107.624 1274.64 105.96 1276.78 103.152V115.944H1284.37V80.116H1276.78ZM1269.91 101.228C1265.7 101.228 1262.74 98.056 1262.74 93.532C1262.74 89.06 1265.7 85.888 1269.91 85.888C1273.92 85.888 1276.78 89.06 1276.78 93.532C1276.78 98.056 1273.92 101.228 1269.91 101.228ZM1308.87 80.116V96.184L1308.82 96.028C1308.82 98.94 1306.37 101.228 1303.2 101.228C1300.18 101.228 1298.1 98.94 1298.1 95.612V80.116H1290.77V97.224C1290.77 103.308 1294.93 107.624 1300.76 107.624C1304.24 107.624 1307.26 106.064 1308.87 103.62V107H1316.46V80.116H1308.87ZM1326.77 76.424C1329 76.424 1330.82 74.552 1330.82 72.264C1330.82 70.132 1329 68.208 1326.77 68.208C1324.43 68.208 1322.61 70.132 1322.61 72.264C1322.61 74.552 1324.43 76.424 1326.77 76.424ZM1322.92 107H1330.51V80.116H1322.92V107ZM1344.73 85.108V80.116H1337.14V107H1344.73V94.156C1344.73 89.112 1348.32 85.888 1353.94 85.888V79.492C1349.83 79.492 1346.5 81.624 1344.73 85.108ZM1371 100.916C1367.83 100.916 1365.49 98.94 1364.61 96.028H1384C1384 85.888 1379.06 79.492 1370.64 79.492C1362.79 79.492 1356.81 85.368 1356.81 93.48C1356.81 101.748 1363.05 107.624 1371.06 107.624C1375.01 107.624 1379.64 105.96 1382.03 103.464L1377.19 98.524C1375.74 99.928 1373.14 100.916 1371 100.916ZM1370.95 86.2C1374.02 86.2 1376 87.916 1376.72 90.568H1364.71C1365.7 87.864 1368.09 86.2 1370.95 86.2ZM1421.12 79.492C1417.12 79.492 1413.79 81.416 1412.38 84.38C1410.72 81.364 1407.55 79.492 1403.86 79.492C1400.53 79.492 1397.88 81.104 1396.58 83.652V80.116H1388.98V107H1396.58V90.776C1396.58 87.916 1398.71 85.888 1401.78 85.888C1404.53 85.888 1406.51 88.072 1406.51 91.192V107.052H1413.79V90.776C1413.79 87.916 1415.97 85.888 1418.99 85.888C1421.8 85.888 1423.77 88.072 1423.77 91.192V107.052H1431.05V89.892C1431.05 83.808 1426.74 79.492 1421.12 79.492ZM1450.12 100.916C1446.95 100.916 1444.61 98.94 1443.73 96.028H1463.12C1463.12 85.888 1458.18 79.492 1449.76 79.492C1441.91 79.492 1435.93 85.368 1435.93 93.48C1435.93 101.748 1442.17 107.624 1450.17 107.624C1454.13 107.624 1458.75 105.96 1461.15 103.464L1456.31 98.524C1454.85 99.928 1452.25 100.916 1450.12 100.916ZM1450.07 86.2C1453.14 86.2 1455.11 87.916 1455.84 90.568H1443.83C1444.82 87.864 1447.21 86.2 1450.07 86.2ZM1483.81 79.492C1480.32 79.492 1477.31 81.052 1475.69 83.496V80.116H1468.1V107H1475.69V90.932L1475.75 91.088C1475.75 88.176 1478.19 85.888 1481.36 85.888C1484.38 85.888 1486.46 88.176 1486.46 91.504V107H1493.79V89.892C1493.79 83.808 1489.63 79.492 1483.81 79.492ZM1514.34 100.344C1513.82 100.864 1512.78 101.228 1511.74 101.228C1510.34 101.228 1509.2 99.98 1509.2 98.212V86.252H1515.02V80.116H1509.2V72.732H1501.92V80.116H1498.22V86.252H1501.92V99.408C1501.92 104.244 1505.24 107.624 1509.98 107.624C1512.16 107.624 1514.6 106.688 1516.16 105.284L1514.34 100.344ZM1531.01 107.624C1537.61 107.624 1541.93 104.244 1541.93 98.94C1541.93 93.064 1536.78 91.504 1532.15 90.308C1528.51 89.32 1527.42 88.904 1527.42 87.448C1527.42 86.512 1528.72 85.836 1530.59 85.836C1532.88 85.836 1535.69 86.72 1538.13 88.228L1541.2 82.82C1538.23 80.844 1534.44 79.492 1530.59 79.492C1524.25 79.492 1520.03 83.132 1520.09 88.228C1520.14 93.532 1524.4 95.04 1529.91 96.392C1532.67 97.12 1534.65 97.64 1534.65 99.304C1534.65 100.5 1533.19 101.332 1531.16 101.332C1527.57 101.332 1524.56 100.032 1522.17 98.316L1518.89 103.568C1522.11 106.168 1526.69 107.624 1531.01 107.624Z" fill="black"/>
<path d="M299 480H797L847 679L797 878H299L339 679L299 480Z" fill="#FDCC1D"/>
<path d="M847 480H1345V679V878H847L887 679L847 480Z" fill="#FDCC1D"/>
<path d="M407.915 660H418.58C428.57 660 435.68 653.565 435.68 644.52C435.68 635.475 428.57 629.085 418.58 629.085H407.915V660ZM412.46 655.86V633.225H418.85C426.005 633.225 431 637.905 431 644.52C431 651.18 426.005 655.86 418.85 655.86H412.46ZM452.182 656.58C448.177 656.58 445.342 653.79 444.757 649.92H463.072C463.072 641.595 458.977 636.195 451.867 636.195C445.432 636.195 440.257 641.325 440.257 648.3C440.257 655.455 445.747 660.54 452.227 660.54C455.512 660.54 459.562 659.145 461.632 656.94L458.842 654.06C457.447 655.5 454.612 656.58 452.182 656.58ZM452.047 640.155C456.052 640.155 458.257 642.765 458.752 646.365H444.802C445.522 642.585 448.447 640.155 452.047 640.155ZM474.356 634.17C474.356 632.55 475.436 631.38 476.741 631.38C477.731 631.38 478.631 631.74 479.126 632.235L480.746 629.265C479.486 628.23 477.776 627.6 476.111 627.6C472.511 627.6 469.991 630.21 469.991 633.945V636.735H466.481V640.515H469.991V660H474.356V640.515H479.846V636.735H474.356V634.17ZM486.657 632.865C488.097 632.865 489.312 631.605 489.312 630.165C489.312 628.77 488.097 627.51 486.657 627.51C485.127 627.51 483.957 628.77 483.957 630.165C483.957 631.605 485.127 632.865 486.657 632.865ZM484.407 660H488.862V636.735H484.407V660ZM507.141 636.195C503.991 636.195 501.156 637.815 499.761 640.11V636.735H495.306V660H499.761V644.925C500.121 642.18 502.911 640.065 506.151 640.065C509.301 640.065 511.506 642.495 511.506 645.96V660H515.871V645.195C515.871 639.93 512.271 636.195 507.141 636.195ZM524.45 632.865C525.89 632.865 527.105 631.605 527.105 630.165C527.105 628.77 525.89 627.51 524.45 627.51C522.92 627.51 521.75 628.77 521.75 630.165C521.75 631.605 522.92 632.865 524.45 632.865ZM522.2 660H526.655V636.735H522.2V660ZM543.989 655.815C543.494 656.31 542.594 656.67 541.604 656.67C540.299 656.67 539.219 655.5 539.219 653.88V640.515H544.709V636.735H539.219V630.345H534.854V636.735H531.344V640.515H534.854V654.195C534.854 657.93 537.374 660.54 540.974 660.54C542.639 660.54 544.349 659.91 545.609 658.875L543.989 655.815ZM552.355 632.865C553.795 632.865 555.01 631.605 555.01 630.165C555.01 628.77 553.795 627.51 552.355 627.51C550.825 627.51 549.655 628.77 549.655 630.165C549.655 631.605 550.825 632.865 552.355 632.865ZM550.105 660H554.56V636.735H550.105V660ZM572.03 660.54C578.645 660.54 584.225 654.96 584.225 648.345C584.225 641.73 578.645 636.195 572.03 636.195C565.37 636.195 559.745 641.73 559.745 648.345C559.745 654.96 565.37 660.54 572.03 660.54ZM572.03 656.67C567.755 656.67 564.2 652.89 564.2 648.345C564.2 643.845 567.755 640.065 572.03 640.065C576.215 640.065 579.77 643.845 579.77 648.345C579.77 652.89 576.215 656.67 572.03 656.67ZM601.272 636.195C598.122 636.195 595.287 637.815 593.892 640.11V636.735H589.437V660H593.892V644.925C594.252 642.18 597.042 640.065 600.282 640.065C603.432 640.065 605.637 642.495 605.637 645.96V660H610.002V645.195C610.002 639.93 606.402 636.195 601.272 636.195ZM640.277 660.54C646.892 660.54 652.472 654.96 652.472 648.345C652.472 641.73 646.892 636.195 640.277 636.195C633.617 636.195 627.992 641.73 627.992 648.345C627.992 654.96 633.617 660.54 640.277 660.54ZM640.277 656.67C636.002 656.67 632.447 652.89 632.447 648.345C632.447 643.845 636.002 640.065 640.277 640.065C644.462 640.065 648.017 643.845 648.017 648.345C648.017 652.89 644.462 656.67 640.277 656.67ZM663.804 634.17C663.804 632.55 664.884 631.38 666.189 631.38C667.179 631.38 668.079 631.74 668.574 632.235L670.194 629.265C668.934 628.23 667.224 627.6 665.559 627.6C661.959 627.6 659.439 630.21 659.439 633.945V636.735H655.929V640.515H659.439V660H663.804V640.515H669.294V636.735H663.804V634.17ZM425.15 678.545V690.74C423.35 687.905 420.47 686.195 416.87 686.195C410.75 686.195 406.16 691.235 406.16 698.345C406.16 705.5 410.75 710.54 416.87 710.54C420.47 710.54 423.35 708.83 425.15 705.95V710H429.56V678.545H425.15ZM417.95 706.67C413.675 706.67 410.66 703.205 410.66 698.345C410.66 693.485 413.675 690.065 417.95 690.065C422.135 690.065 425.15 693.485 425.15 698.345C425.15 703.205 422.135 706.67 417.95 706.67ZM446.909 706.58C442.904 706.58 440.069 703.79 439.484 699.92H457.799C457.799 691.595 453.704 686.195 446.594 686.195C440.159 686.195 434.984 691.325 434.984 698.3C434.984 705.455 440.474 710.54 446.954 710.54C450.239 710.54 454.289 709.145 456.359 706.94L453.569 704.06C452.174 705.5 449.339 706.58 446.909 706.58ZM446.774 690.155C450.779 690.155 452.984 692.765 453.479 696.365H439.529C440.249 692.585 443.174 690.155 446.774 690.155ZM471.378 710.54C476.463 710.54 480.198 707.75 480.198 703.34C480.198 698.705 476.103 697.445 472.278 696.32C468.363 695.105 466.923 694.565 466.923 692.765C466.923 691.01 468.723 690.02 471.018 690.02C473.043 690.02 475.383 690.785 477.633 692.18L479.613 688.895C477.093 687.23 474.033 686.195 471.018 686.195C466.068 686.195 462.513 688.985 462.558 693.26C462.558 697.04 465.213 698.57 470.568 700.055C473.448 700.865 475.833 701.54 475.833 703.7C475.833 705.5 474.033 706.715 471.423 706.715C468.678 706.715 466.023 705.68 463.548 703.88L461.433 707.075C464.223 709.325 467.958 710.54 471.378 710.54ZM487.58 682.865C489.02 682.865 490.235 681.605 490.235 680.165C490.235 678.77 489.02 677.51 487.58 677.51C486.05 677.51 484.88 678.77 484.88 680.165C484.88 681.605 486.05 682.865 487.58 682.865ZM485.33 710H489.785V686.735H485.33V710ZM513.914 686.735V690.47C512.159 687.86 509.189 686.195 505.679 686.195C499.559 686.195 495.104 690.74 495.104 697.22C495.104 703.7 499.559 708.29 505.679 708.29C509.189 708.29 512.069 706.715 513.914 704.06V707.435C513.914 711.485 510.899 713.87 505.904 713.87C503.114 713.87 500.324 712.925 498.614 711.305L496.859 714.635C499.064 716.435 502.664 717.74 506.579 717.74C513.464 717.74 518.369 713.51 518.369 707.525V686.735H513.914ZM506.804 704.42C502.664 704.42 499.739 701.45 499.739 697.22C499.739 693.035 502.664 690.065 506.804 690.065C510.944 690.065 513.914 693.035 513.914 697.22C513.914 701.45 510.944 704.42 506.804 704.42ZM536.848 686.195C533.698 686.195 530.863 687.815 529.468 690.11V686.735H525.013V710H529.468V694.925C529.828 692.18 532.618 690.065 535.858 690.065C539.008 690.065 541.213 692.495 541.213 695.96V710H545.578V695.195C545.578 689.93 541.978 686.195 536.848 686.195ZM573.243 710.54C578.328 710.54 582.063 707.75 582.063 703.34C582.063 698.705 577.968 697.445 574.143 696.32C570.228 695.105 568.788 694.565 568.788 692.765C568.788 691.01 570.588 690.02 572.883 690.02C574.908 690.02 577.248 690.785 579.498 692.18L581.478 688.895C578.958 687.23 575.898 686.195 572.883 686.195C567.933 686.195 564.378 688.985 564.423 693.26C564.423 697.04 567.078 698.57 572.433 700.055C575.313 700.865 577.698 701.54 577.698 703.7C577.698 705.5 575.898 706.715 573.288 706.715C570.543 706.715 567.888 705.68 565.413 703.88L563.298 707.075C566.088 709.325 569.823 710.54 573.243 710.54ZM598.13 705.815C597.635 706.31 596.735 706.67 595.745 706.67C594.44 706.67 593.36 705.5 593.36 703.88V690.515H598.85V686.735H593.36V680.345H588.995V686.735H585.485V690.515H588.995V704.195C588.995 707.93 591.515 710.54 595.115 710.54C596.78 710.54 598.49 709.91 599.75 708.875L598.13 705.815ZM608.971 691.19V686.735H604.516V710H608.971V696.77C609.376 692.72 612.796 690.065 617.611 690.065V686.195C613.606 686.195 610.456 688.13 608.971 691.19ZM637.977 686.735V701.81C637.617 704.555 634.827 706.67 631.587 706.67C628.437 706.67 626.232 704.24 626.232 700.775V686.735H621.867V701.54C621.867 706.805 625.467 710.54 630.597 710.54C633.747 710.54 636.582 708.92 637.977 706.625V710H642.432V686.735H637.977ZM659.875 710.54C663.34 710.54 666.355 709.1 668.605 706.805L665.59 704.06C664.15 705.68 662.08 706.67 659.92 706.67C655.645 706.67 652.135 702.89 652.135 698.345C652.135 693.845 655.645 690.065 659.875 690.065C662.035 690.065 664.06 691.01 665.455 692.585L668.47 689.795C666.265 687.59 663.25 686.195 659.92 686.195C653.26 686.195 647.635 691.73 647.635 698.345C647.635 704.96 653.26 710.54 659.875 710.54ZM684.263 705.815C683.768 706.31 682.868 706.67 681.878 706.67C680.573 706.67 679.493 705.5 679.493 703.88V690.515H684.983V686.735H679.493V680.345H675.128V686.735H671.618V690.515H675.128V704.195C675.128 707.93 677.648 710.54 681.248 710.54C682.913 710.54 684.623 709.91 685.883 708.875L684.263 705.815ZM706.444 686.735V701.81C706.084 704.555 703.294 706.67 700.054 706.67C696.904 706.67 694.699 704.24 694.699 700.775V686.735H690.334V701.54C690.334 706.805 693.934 710.54 699.064 710.54C702.214 710.54 705.049 708.92 706.444 706.625V710H710.899V686.735H706.444ZM722.042 691.19V686.735H717.587V710H722.042V696.77C722.447 692.72 725.867 690.065 730.682 690.065V686.195C726.677 686.195 723.527 688.13 722.042 691.19ZM745.693 706.58C741.688 706.58 738.853 703.79 738.268 699.92H756.583C756.583 691.595 752.488 686.195 745.378 686.195C738.943 686.195 733.768 691.325 733.768 698.3C733.768 705.455 739.258 710.54 745.738 710.54C749.023 710.54 753.073 709.145 755.143 706.94L752.353 704.06C750.958 705.5 748.123 706.58 745.693 706.58ZM745.558 690.155C749.563 690.155 751.768 692.765 752.263 696.365H738.313C739.033 692.585 741.958 690.155 745.558 690.155ZM417.005 736.195C414.44 736.195 411.515 736.87 408.185 738.535L409.805 741.82C411.83 740.785 414.08 739.885 416.375 739.885C421.01 739.885 422.36 742.99 422.36 745.915V746.635C420.11 745.87 417.635 745.375 415.34 745.375C410.21 745.375 406.025 748.48 406.025 753.115C406.025 757.66 409.67 760.54 414.62 760.54C417.455 760.54 420.65 759.235 422.36 756.805V760H426.725V745.915C426.725 740.155 423.26 736.195 417.005 736.195ZM415.475 757.03C412.55 757.03 410.3 755.5 410.3 752.98C410.3 750.46 412.91 748.705 416.015 748.705C418.31 748.705 420.47 749.02 422.36 749.605V752.71C421.595 755.59 418.355 757.03 415.475 757.03ZM445.003 736.195C441.853 736.195 439.018 737.815 437.623 740.11V736.735H433.168V760H437.623V744.925C437.983 742.18 440.773 740.065 444.013 740.065C447.163 740.065 449.368 742.495 449.368 745.96V760H453.733V745.195C453.733 739.93 450.133 736.195 445.003 736.195ZM478.016 728.545V740.74C476.216 737.905 473.336 736.195 469.736 736.195C463.616 736.195 459.026 741.235 459.026 748.345C459.026 755.5 463.616 760.54 469.736 760.54C473.336 760.54 476.216 758.83 478.016 755.95V760H482.426V728.545H478.016ZM470.816 756.67C466.541 756.67 463.526 753.205 463.526 748.345C463.526 743.485 466.541 740.065 470.816 740.065C475.001 740.065 478.016 743.485 478.016 748.345C478.016 753.205 475.001 756.67 470.816 756.67ZM508.106 734.17C508.106 732.55 509.186 731.38 510.491 731.38C511.481 731.38 512.381 731.74 512.876 732.235L514.496 729.265C513.236 728.23 511.526 727.6 509.861 727.6C506.261 727.6 503.741 730.21 503.741 733.945V736.735H500.231V740.515H503.741V760H508.106V740.515H513.596V736.735H508.106V734.17ZM518.202 760H522.612V728.545H518.202V760ZM540.125 760.54C546.74 760.54 552.32 754.96 552.32 748.345C552.32 741.73 546.74 736.195 540.125 736.195C533.465 736.195 527.84 741.73 527.84 748.345C527.84 754.96 533.465 760.54 540.125 760.54ZM540.125 756.67C535.85 756.67 532.295 752.89 532.295 748.345C532.295 743.845 535.85 740.065 540.125 740.065C544.31 740.065 547.865 743.845 547.865 748.345C547.865 752.89 544.31 756.67 540.125 756.67ZM562.461 760H566.556L572.181 742.72L577.761 760H581.856L589.686 736.735H585.141L579.831 754.06L574.071 736.735H570.291L564.531 754.06L559.176 736.735H554.631L562.461 760Z" fill="black"/>
<path d="M950.225 660.54C958.91 660.54 966.2 653.205 966.2 644.52C966.2 635.835 958.91 628.545 950.225 628.545C941.54 628.545 934.16 635.835 934.16 644.52C934.16 653.205 941.54 660.54 950.225 660.54ZM950.225 656.355C944.06 656.355 938.84 650.955 938.84 644.52C938.84 638.13 944.06 632.73 950.225 632.73C956.39 632.73 961.565 638.13 961.565 644.52C961.565 650.955 956.39 656.355 950.225 656.355ZM977.747 634.17C977.747 632.55 978.827 631.38 980.132 631.38C981.122 631.38 982.022 631.74 982.517 632.235L984.137 629.265C982.877 628.23 981.167 627.6 979.502 627.6C975.902 627.6 973.382 630.21 973.382 633.945V636.735H969.872V640.515H973.382V660H977.747V640.515H983.237V636.735H977.747V634.17ZM1006.84 634.17C1006.84 632.55 1007.92 631.38 1009.22 631.38C1010.21 631.38 1011.11 631.74 1011.61 632.235L1013.23 629.265C1011.97 628.23 1010.26 627.6 1008.59 627.6C1004.99 627.6 1002.47 630.21 1002.47 633.945V636.735H998.964V640.515H1002.47V660H1006.84V640.515H1012.33V636.735H1006.84V634.17ZM1027.96 660.54C1034.57 660.54 1040.15 654.96 1040.15 648.345C1040.15 641.73 1034.57 636.195 1027.96 636.195C1021.3 636.195 1015.67 641.73 1015.67 648.345C1015.67 654.96 1021.3 660.54 1027.96 660.54ZM1027.96 656.67C1023.68 656.67 1020.13 652.89 1020.13 648.345C1020.13 643.845 1023.68 640.065 1027.96 640.065C1032.14 640.065 1035.7 643.845 1035.7 648.345C1035.7 652.89 1032.14 656.67 1027.96 656.67ZM1050.05 641.19V636.735H1045.59V660H1050.05V646.77C1050.45 642.72 1053.87 640.065 1058.69 640.065V636.195C1054.68 636.195 1051.53 638.13 1050.05 641.19ZM1089.04 636.195C1085.53 636.195 1082.56 637.995 1081.48 640.875C1080.13 637.995 1077.39 636.195 1074.01 636.195C1071.04 636.195 1068.61 637.68 1067.44 639.975V636.735H1062.99V660H1067.44V645.465C1067.44 642.27 1069.78 640.065 1073.11 640.065C1076.04 640.065 1078.06 642.45 1078.06 645.87V660H1082.43V645.465C1082.43 642.27 1084.77 640.065 1088.1 640.065C1091.02 640.065 1093.05 642.45 1093.05 645.87V660H1097.41V645.195C1097.41 639.93 1093.9 636.195 1089.04 636.195ZM1106.06 666.165C1108.94 662.88 1109.98 660.945 1109.98 658.83C1109.98 656.355 1108.72 654.555 1106.74 654.555C1105.03 654.555 1103.72 655.95 1103.72 657.525C1103.72 659.19 1105.03 660.54 1106.65 660.54C1106.29 661.935 1105.48 663.375 1104.17 664.725L1106.06 666.165ZM1140.02 660.54C1143.48 660.54 1146.5 659.1 1148.75 656.805L1145.73 654.06C1144.29 655.68 1142.22 656.67 1140.06 656.67C1135.79 656.67 1132.28 652.89 1132.28 648.345C1132.28 643.845 1135.79 640.065 1140.02 640.065C1142.18 640.065 1144.2 641.01 1145.6 642.585L1148.61 639.795C1146.41 637.59 1143.39 636.195 1140.06 636.195C1133.4 636.195 1127.78 641.73 1127.78 648.345C1127.78 654.96 1133.4 660.54 1140.02 660.54ZM1164.06 660.54C1170.67 660.54 1176.25 654.96 1176.25 648.345C1176.25 641.73 1170.67 636.195 1164.06 636.195C1157.4 636.195 1151.77 641.73 1151.77 648.345C1151.77 654.96 1157.4 660.54 1164.06 660.54ZM1164.06 656.67C1159.78 656.67 1156.23 652.89 1156.23 648.345C1156.23 643.845 1159.78 640.065 1164.06 640.065C1168.24 640.065 1171.8 643.845 1171.8 648.345C1171.8 652.89 1168.24 656.67 1164.06 656.67ZM1193.3 636.195C1190.15 636.195 1187.32 637.815 1185.92 640.11V636.735H1181.47V660H1185.92V644.925C1186.28 642.18 1189.07 640.065 1192.31 640.065C1195.46 640.065 1197.67 642.495 1197.67 645.96V660H1202.03V645.195C1202.03 639.93 1198.43 636.195 1193.3 636.195ZM1219.29 655.815C1218.8 656.31 1217.9 656.67 1216.91 656.67C1215.6 656.67 1214.52 655.5 1214.52 653.88V640.515H1220.01V636.735H1214.52V630.345H1210.16V636.735H1206.65V640.515H1210.16V654.195C1210.16 657.93 1212.68 660.54 1216.28 660.54C1217.94 660.54 1219.65 659.91 1220.91 658.875L1219.29 655.815ZM1236.12 656.58C1232.11 656.58 1229.28 653.79 1228.69 649.92H1247.01C1247.01 641.595 1242.91 636.195 1235.8 636.195C1229.37 636.195 1224.19 641.325 1224.19 648.3C1224.19 655.455 1229.68 660.54 1236.16 660.54C1239.45 660.54 1243.5 659.145 1245.57 656.94L1242.78 654.06C1241.38 655.5 1238.55 656.58 1236.12 656.58ZM1235.98 640.155C1239.99 640.155 1242.19 642.765 1242.69 646.365H1228.74C1229.46 642.585 1232.38 640.155 1235.98 640.155ZM1264.01 636.195C1260.86 636.195 1258.02 637.815 1256.63 640.11V636.735H1252.17V660H1256.63V644.925C1256.99 642.18 1259.78 640.065 1263.02 640.065C1266.17 640.065 1268.37 642.495 1268.37 645.96V660H1272.74V645.195C1272.74 639.93 1269.14 636.195 1264.01 636.195ZM1290 655.815C1289.51 656.31 1288.61 656.67 1287.62 656.67C1286.31 656.67 1285.23 655.5 1285.23 653.88V640.515H1290.72V636.735H1285.23V630.345H1280.87V636.735H1277.36V640.515H1280.87V654.195C1280.87 657.93 1283.39 660.54 1286.99 660.54C1288.65 660.54 1290.36 659.91 1291.62 658.875L1290 655.815ZM945.005 686.195C942.44 686.195 939.515 686.87 936.185 688.535L937.805 691.82C939.83 690.785 942.08 689.885 944.375 689.885C949.01 689.885 950.36 692.99 950.36 695.915V696.635C948.11 695.87 945.635 695.375 943.34 695.375C938.21 695.375 934.025 698.48 934.025 703.115C934.025 707.66 937.67 710.54 942.62 710.54C945.455 710.54 948.65 709.235 950.36 706.805V710H954.725V695.915C954.725 690.155 951.26 686.195 945.005 686.195ZM943.475 707.03C940.55 707.03 938.3 705.5 938.3 702.98C938.3 700.46 940.91 698.705 944.015 698.705C946.31 698.705 948.47 699.02 950.36 699.605V702.71C949.595 705.59 946.355 707.03 943.475 707.03ZM973.003 686.195C969.853 686.195 967.018 687.815 965.623 690.11V686.735H961.168V710H965.623V694.925C965.983 692.18 968.773 690.065 972.013 690.065C975.163 690.065 977.368 692.495 977.368 695.96V710H981.733V695.195C981.733 689.93 978.133 686.195 973.003 686.195ZM1006.02 678.545V690.74C1004.22 687.905 1001.34 686.195 997.736 686.195C991.616 686.195 987.026 691.235 987.026 698.345C987.026 705.5 991.616 710.54 997.736 710.54C1001.34 710.54 1004.22 708.83 1006.02 705.95V710H1010.43V678.545H1006.02ZM998.816 706.67C994.541 706.67 991.526 703.205 991.526 698.345C991.526 693.485 994.541 690.065 998.816 690.065C1003 690.065 1006.02 693.485 1006.02 698.345C1006.02 703.205 1003 706.67 998.816 706.67ZM1036.11 684.17C1036.11 682.55 1037.19 681.38 1038.49 681.38C1039.48 681.38 1040.38 681.74 1040.88 682.235L1042.5 679.265C1041.24 678.23 1039.53 677.6 1037.86 677.6C1034.26 677.6 1031.74 680.21 1031.74 683.945V686.735H1028.23V690.515H1031.74V710H1036.11V690.515H1041.6V686.735H1036.11V684.17ZM1046.2 710H1050.61V678.545H1046.2V710ZM1068.13 710.54C1074.74 710.54 1080.32 704.96 1080.32 698.345C1080.32 691.73 1074.74 686.195 1068.13 686.195C1061.47 686.195 1055.84 691.73 1055.84 698.345C1055.84 704.96 1061.47 710.54 1068.13 710.54ZM1068.13 706.67C1063.85 706.67 1060.3 702.89 1060.3 698.345C1060.3 693.845 1063.85 690.065 1068.13 690.065C1072.31 690.065 1075.87 693.845 1075.87 698.345C1075.87 702.89 1072.31 706.67 1068.13 706.67ZM1090.46 710H1094.56L1100.18 692.72L1105.76 710H1109.86L1117.69 686.735H1113.14L1107.83 704.06L1102.07 686.735H1098.29L1092.53 704.06L1087.18 686.735H1082.63L1090.46 710Z" fill="black"/>
<path d="M455.3 558.192V551.276H427.792V587H435.488V572.856H453.428V565.94H435.488V558.192H455.3ZM468.133 565.108V560.116H460.541V587H468.133V574.156C468.133 569.112 471.721 565.888 477.337 565.888V559.492C473.229 559.492 469.901 561.624 468.133 565.108ZM493.729 559.492C489.985 559.492 486.293 560.532 482.497 562.456L485.045 567.5C487.177 566.408 489.517 565.576 492.013 565.576C496.433 565.576 498.201 568.072 498.201 570.932V571.452C495.913 570.568 493.521 570.1 491.337 570.1C485.097 570.1 480.157 573.74 480.157 579.044C480.157 584.192 484.577 587.624 490.297 587.624C493.209 587.624 496.277 586.48 498.201 584.296V587H505.533V570.932C505.533 563.912 500.749 559.492 493.729 559.492ZM492.013 582.372C489.413 582.372 487.489 581.02 487.489 578.836C487.489 576.652 489.673 575.04 492.429 575.04C494.509 575.04 496.485 575.404 498.201 576.028V578.524C497.681 581.02 494.925 582.372 492.013 582.372ZM543.912 559.492C539.908 559.492 536.58 561.416 535.176 564.38C533.512 561.364 530.34 559.492 526.648 559.492C523.32 559.492 520.668 561.104 519.368 563.652V560.116H511.776V587H519.368V570.776C519.368 567.916 521.5 565.888 524.568 565.888C527.324 565.888 529.3 568.072 529.3 571.192V587.052H536.58V570.776C536.58 567.916 538.764 565.888 541.78 565.888C544.588 565.888 546.564 568.072 546.564 571.192V587.052H553.844V569.892C553.844 563.808 549.528 559.492 543.912 559.492ZM572.912 580.916C569.74 580.916 567.4 578.94 566.516 576.028H585.912C585.912 565.888 580.972 559.492 572.548 559.492C564.696 559.492 558.716 565.368 558.716 573.48C558.716 581.748 564.956 587.624 572.964 587.624C576.916 587.624 581.544 585.96 583.936 583.464L579.1 578.524C577.644 579.928 575.044 580.916 572.912 580.916ZM572.86 566.2C575.928 566.2 577.904 567.916 578.632 570.568H566.62C567.608 567.864 570 566.2 572.86 566.2ZM596.539 587H603.351L608.395 570.1L613.387 587H620.199L629.351 560.116H621.915L616.819 576.86L611.515 560.116H605.223L599.919 576.86L594.823 560.116H587.387L596.539 587ZM645.44 587.624C653.396 587.624 660.052 581.176 660.052 573.532C660.052 565.888 653.396 559.492 645.44 559.492C637.432 559.492 630.724 565.888 630.724 573.532C630.724 581.176 637.432 587.624 645.44 587.624ZM645.44 581.228C641.384 581.228 638.004 577.692 638.004 573.532C638.004 569.372 641.384 565.888 645.44 565.888C649.444 565.888 652.824 569.372 652.824 573.532C652.824 577.692 649.444 581.228 645.44 581.228ZM672.781 565.108V560.116H665.189V587H672.781V574.156C672.781 569.112 676.369 565.888 681.985 565.888V559.492C677.877 559.492 674.549 561.624 672.781 565.108ZM712.521 560.116H703.785L693.801 571.712V550.652H686.209V587H693.801V580.396L697.025 576.912L703.681 587H712.417L702.069 572.024L712.521 560.116Z" fill="black"/>
<path d="M1003.01 587L994.22 574.52C999.108 572.804 1002.33 568.644 1002.33 563.34C1002.33 556.268 996.612 551.276 988.864 551.276H972.796V587H980.44V575.404H986.108L994.272 587H1003.01ZM980.44 558.296H988.032C991.828 558.296 994.428 560.272 994.428 563.34C994.428 566.408 991.828 568.384 988.032 568.384H980.44V558.296ZM1020.52 580.916C1017.35 580.916 1015.01 578.94 1014.12 576.028H1033.52C1033.52 565.888 1028.58 559.492 1020.15 559.492C1012.3 559.492 1006.32 565.368 1006.32 573.48C1006.32 581.748 1012.56 587.624 1020.57 587.624C1024.52 587.624 1029.15 585.96 1031.54 583.464L1026.71 578.524C1025.25 579.928 1022.65 580.916 1020.52 580.916ZM1020.47 566.2C1023.53 566.2 1025.51 567.916 1026.24 570.568H1014.23C1015.21 567.864 1017.61 566.2 1020.47 566.2ZM1047.65 558.66C1047.65 556.892 1048.79 555.644 1050.2 555.644C1051.24 555.644 1052.28 556.008 1052.8 556.528L1054.62 551.9C1053.06 550.496 1050.61 549.56 1048.43 549.56C1043.7 549.56 1040.37 552.94 1040.37 557.776V560.116H1036.68V566.252H1040.37V587H1047.65V566.252H1053.47V560.116H1047.65V558.66ZM1062.15 556.424C1064.39 556.424 1066.21 554.552 1066.21 552.264C1066.21 550.132 1064.39 548.208 1062.15 548.208C1059.81 548.208 1057.99 550.132 1057.99 552.264C1057.99 554.552 1059.81 556.424 1062.15 556.424ZM1058.31 587H1065.9V560.116H1058.31V587ZM1088.07 559.492C1084.59 559.492 1081.57 561.052 1079.96 563.496V560.116H1072.37V587H1079.96V570.932L1080.01 571.088C1080.01 568.176 1082.46 565.888 1085.63 565.888C1088.65 565.888 1090.73 568.176 1090.73 571.504V587H1098.06V569.892C1098.06 563.808 1093.9 559.492 1088.07 559.492ZM1117.15 580.916C1113.98 580.916 1111.64 578.94 1110.76 576.028H1130.15C1130.15 565.888 1125.21 559.492 1116.79 559.492C1108.94 559.492 1102.96 565.368 1102.96 573.48C1102.96 581.748 1109.2 587.624 1117.21 587.624C1121.16 587.624 1125.79 585.96 1128.18 583.464L1123.34 578.524C1121.89 579.928 1119.29 580.916 1117.15 580.916ZM1117.1 566.2C1120.17 566.2 1122.15 567.916 1122.87 570.568H1110.86C1111.85 567.864 1114.24 566.2 1117.1 566.2ZM1167.27 559.492C1163.27 559.492 1159.94 561.416 1158.53 564.38C1156.87 561.364 1153.7 559.492 1150.01 559.492C1146.68 559.492 1144.03 561.104 1142.73 563.652V560.116H1135.13V587H1142.73V570.776C1142.73 567.916 1144.86 565.888 1147.93 565.888C1150.68 565.888 1152.66 568.072 1152.66 571.192V587.052H1159.94V570.776C1159.94 567.916 1162.12 565.888 1165.14 565.888C1167.95 565.888 1169.92 568.072 1169.92 571.192V587.052H1177.2V569.892C1177.2 563.808 1172.89 559.492 1167.27 559.492ZM1196.27 580.916C1193.1 580.916 1190.76 578.94 1189.88 576.028H1209.27C1209.27 565.888 1204.33 559.492 1195.91 559.492C1188.06 559.492 1182.08 565.368 1182.08 573.48C1182.08 581.748 1188.32 587.624 1196.32 587.624C1200.28 587.624 1204.9 585.96 1207.3 583.464L1202.46 578.524C1201 579.928 1198.4 580.916 1196.27 580.916ZM1196.22 566.2C1199.29 566.2 1201.26 567.916 1201.99 570.568H1189.98C1190.97 567.864 1193.36 566.2 1196.22 566.2ZM1229.96 559.492C1226.47 559.492 1223.46 561.052 1221.84 563.496V560.116H1214.25V587H1221.84V570.932L1221.9 571.088C1221.9 568.176 1224.34 565.888 1227.51 565.888C1230.53 565.888 1232.61 568.176 1232.61 571.504V587H1239.94V569.892C1239.94 563.808 1235.78 559.492 1229.96 559.492ZM1260.49 580.344C1259.97 580.864 1258.93 581.228 1257.89 581.228C1256.49 581.228 1255.35 579.98 1255.35 578.212V566.252H1261.17V560.116H1255.35V552.732H1248.07V560.116H1244.37V566.252H1248.07V579.408C1248.07 584.244 1251.39 587.624 1256.13 587.624C1258.31 587.624 1260.75 586.688 1262.31 585.284L1260.49 580.344Z" fill="black"/>
</svg>
