<svg id="ab1e0e7a-6b83-4cb2-99a4-64a7de5999c2" data-name="Layer 1" xmlns="http://www.w3.org/2000/svg" viewBox="0 0 2690 398"><defs><style>.aa3008f8-e1e6-4b9f-aeed-5e9002b46c04{fill:#fdcc1d;}.b2bec0da-71a7-48b8-877f-64f28142b54d{isolation:isolate;}</style></defs><path class="aa3008f8-e1e6-4b9f-aeed-5e9002b46c04" d="M0,0H498l50,199L498,398H0Z"/><path class="aa3008f8-e1e6-4b9f-aeed-5e9002b46c04" d="M548,0h498l50,199-50,199H548l40-199Z"/><path class="aa3008f8-e1e6-4b9f-aeed-5e9002b46c04" d="M1096,0h498l50,199-50,199H1096l40-199Z"/><path class="aa3008f8-e1e6-4b9f-aeed-5e9002b46c04" d="M1644,0h498l50,199-50,199H1644l40-199Z"/><path class="aa3008f8-e1e6-4b9f-aeed-5e9002b46c04" d="M2192,0h498V398H2192l40-199Z"/><g class="b2bec0da-71a7-48b8-877f-64f28142b54d"><g class="b2bec0da-71a7-48b8-877f-64f28142b54d"><path d="M157.11,107.34l-8.17-11.6h-5.67v11.6h-7.64V71.61H151.7c7.75,0,13.47,5,13.47,12.07a11.64,11.64,0,0,1-8.12,11.18l8.79,12.48ZM143.27,88.72h7.6c3.79,0,6.39-2,6.39-5s-2.6-5.05-6.39-5.05h-7.6Z"/><path d="M189.55,98.86l4.84,4.94c-2.39,2.5-7,4.16-11,4.16a13.83,13.83,0,0,1-14.25-14.14,13.55,13.55,0,0,1,13.83-14c8.43,0,13.37,6.4,13.37,16.54H177a6.53,6.53,0,0,0,6.4,4.89A9.68,9.68,0,0,0,189.55,98.86Zm-12.48-8h12a5.61,5.61,0,0,0-5.78-4.37A6.49,6.49,0,0,0,177.07,90.91Z"/><path d="M199.48,103.91l3.28-5.25a15.34,15.34,0,0,0,9,3c2,0,3.48-.83,3.48-2,0-1.66-2-2.18-4.73-2.91-5.51-1.35-9.78-2.86-9.83-8.16-.05-5.1,4.16-8.74,10.51-8.74a19.51,19.51,0,0,1,10.6,3.33l-3.06,5.41a15.25,15.25,0,0,0-7.54-2.4c-1.88,0-3.18.68-3.18,1.62,0,1.45,1.1,1.87,4.74,2.86,4.62,1.19,9.77,2.75,9.77,8.63,0,5.3-4.31,8.68-10.92,8.68A19.91,19.91,0,0,1,199.48,103.91Z"/><path d="M246.49,98.86l4.84,4.94c-2.39,2.5-7,4.16-11,4.16a13.83,13.83,0,0,1-14.25-14.14,13.55,13.55,0,0,1,13.83-14c8.43,0,13.37,6.4,13.37,16.54h-19.4a6.53,6.53,0,0,0,6.4,4.89A9.68,9.68,0,0,0,246.49,98.86Zm-12.48-8h12a5.61,5.61,0,0,0-5.78-4.37A6.49,6.49,0,0,0,234,90.91Z"/><path d="M282.27,91.27v16.07h-7.33v-2.7A10.71,10.71,0,0,1,267,108c-5.72,0-10.14-3.43-10.14-8.58s4.94-8.94,11.18-8.94a19.5,19.5,0,0,1,6.87,1.35v-.52c0-2.86-1.77-5.35-6.19-5.35a15.38,15.38,0,0,0-7,1.92l-2.55-5a24.73,24.73,0,0,1,11.23-3C277.49,79.83,282.27,84.25,282.27,91.27Zm-7.33,7.59V96.37a16.87,16.87,0,0,0-5.77-1c-2.76,0-4.95,1.61-4.95,3.8s1.93,3.53,4.53,3.53C271.66,102.71,274.42,101.36,274.94,98.86Z"/><path d="M305.46,79.83v6.4c-5.62,0-9.2,3.22-9.2,8.27v12.84h-7.6V80.46h7.6v5A10,10,0,0,1,305.46,79.83Z"/><path d="M308.32,93.87c0-7.64,6.76-14,14.72-14a14.05,14.05,0,0,1,10.55,4.58l-5,4.31A7.72,7.72,0,0,0,323,86.23a7.54,7.54,0,0,0-7.28,7.59,7.63,7.63,0,0,0,7.34,7.75A7.92,7.92,0,0,0,328.7,99l5.05,4.26A14.19,14.19,0,0,1,323,108C315,108,308.32,101.52,308.32,93.87Z"/><path d="M363.86,90.23v17.11h-7.34V91.84c0-3.32-2.08-5.61-5.09-5.61a5.36,5.36,0,0,0-5.62,5.2v15.91h-7.59V71h7.59V83.73a9.82,9.82,0,0,1,8.06-3.9C359.7,79.83,363.86,84.15,363.86,90.23Z"/></g></g><g class="b2bec0da-71a7-48b8-877f-64f28142b54d"><g class="b2bec0da-71a7-48b8-877f-64f28142b54d"><path d="M104.6,183.27V165.36h4.54v17.82c0,5.54,3.6,9.5,8.73,9.5s8.69-4,8.69-9.5V165.36h4.59v17.91c0,7.92-5.54,13.54-13.28,13.54S104.6,191.19,104.6,183.27Z"/><path d="M136.41,193.35l2.12-3.2A13.4,13.4,0,0,0,146.4,193c2.61,0,4.41-1.22,4.41-3,0-2.17-2.38-2.84-5.26-3.65-5.36-1.48-8-3-8-6.79,0-4.28,3.51-7.07,8.46-7.07a15.94,15.94,0,0,1,8.59,2.7l-2,3.29A13,13,0,0,0,146,176.3c-2.3,0-4.1,1-4.1,2.74s1.44,2.34,5.36,3.56,7.92,2.38,7.92,7c0,4.41-3.74,7.2-8.82,7.2A16.3,16.3,0,0,1,136.41,193.35Z"/><path d="M177.68,190.34l2.79,2.88c-2.07,2.2-6.12,3.59-9.41,3.59a11.94,11.94,0,0,1-12-12.23c0-7,5.18-12.11,11.61-12.11,7.11,0,11.21,5.4,11.21,13.72H163.59a7.39,7.39,0,0,0,7.43,6.66A10.22,10.22,0,0,0,177.68,190.34Zm-14-7.7h14c-.5-3.6-2.7-6.21-6.71-6.21A7.28,7.28,0,0,0,163.64,182.64Z"/><path d="M200.4,172.47v3.87c-4.81,0-8.23,2.66-8.64,6.71v13.22h-4.45V173h4.45v4.46A9.22,9.22,0,0,1,200.4,172.47Z"/><path d="M203.24,193.35l2.11-3.2a13.42,13.42,0,0,0,7.88,2.84c2.61,0,4.41-1.22,4.41-3,0-2.17-2.39-2.84-5.27-3.65-5.35-1.48-8-3-8-6.79,0-4.28,3.51-7.07,8.46-7.07a16,16,0,0,1,8.6,2.7l-2,3.29a13,13,0,0,0-6.62-2.16c-2.29,0-4.09,1-4.09,2.74s1.44,2.34,5.35,3.56,7.92,2.38,7.92,7c0,4.41-3.73,7.2-8.82,7.2A16.27,16.27,0,0,1,203.24,193.35Z"/><path d="M259.53,182.19v14.08h-4.36v-3.19a9.7,9.7,0,0,1-7.74,3.73c-5,0-8.6-2.87-8.6-7.42s4.19-7.74,9.32-7.74a22.59,22.59,0,0,1,7,1.26v-.72c0-2.92-1.35-6-6-6a14.81,14.81,0,0,0-6.57,1.94L241,174.81a19.81,19.81,0,0,1,8.82-2.34C256.07,172.47,259.53,176.43,259.53,182.19ZM255.17,189v-3.1a21.79,21.79,0,0,0-6.35-.9c-3.1,0-5.71,1.75-5.71,4.28s2.25,4.05,5.17,4.05S254.4,191.86,255.17,189Z"/><path d="M286.53,181.47v14.8h-4.36v-14c0-3.47-2.21-5.9-5.36-5.9s-6,2.12-6.39,4.86v15.07H266V173h4.45v3.38a8.68,8.68,0,0,1,7.38-3.92C282.93,172.47,286.53,176.21,286.53,181.47Z"/><path d="M315.24,164.82v31.45h-4.41v-4a9.46,9.46,0,0,1-8.28,4.58c-6.12,0-10.71-5-10.71-12.19s4.59-12.15,10.71-12.15a9.49,9.49,0,0,1,8.28,4.55v-12.2Zm-4.41,19.8c0-4.86-3-8.28-7.2-8.28s-7.29,3.42-7.29,8.28,3,8.32,7.29,8.32S310.83,189.48,310.83,184.62Z"/><path d="M347.33,195.15a7.45,7.45,0,0,1-4.64,1.66,6,6,0,0,1-6.12-6.34V176.79h-3.51V173h3.51v-6.39h4.37V173h5.49v3.78h-5.49v13.36a2.57,2.57,0,0,0,2.38,2.79,3.47,3.47,0,0,0,2.39-.85Z"/><path d="M372.44,181.47v14.8h-4.37v-14c0-3.47-2.2-5.9-5.35-5.9-3.51,0-6.44,2.48-6.44,5.49v14.44h-4.41V164.82h4.41v11.66a8.69,8.69,0,0,1,7.43-4C368.84,172.47,372.44,176.21,372.44,181.47Z"/><path d="M396.15,190.34l2.79,2.88c-2.07,2.2-6.12,3.59-9.4,3.59a11.94,11.94,0,0,1-12-12.23c0-7,5.17-12.11,11.61-12.11,7.11,0,11.2,5.4,11.2,13.72H382.07a7.38,7.38,0,0,0,7.42,6.66A10.22,10.22,0,0,0,396.15,190.34Zm-14-7.7h13.95c-.49-3.6-2.7-6.21-6.7-6.21A7.29,7.29,0,0,0,382.11,182.64Z"/></g><g class="b2bec0da-71a7-48b8-877f-64f28142b54d"><path d="M126.56,214.82v31.46h-4.41v-4.05a9.44,9.44,0,0,1-8.28,4.59c-6.12,0-10.71-5-10.71-12.2s4.59-12.15,10.71-12.15a9.49,9.49,0,0,1,8.28,4.55v-12.2Zm-4.41,19.8c0-4.86-3-8.28-7.2-8.28s-7.29,3.42-7.29,8.28,3,8.33,7.29,8.33S122.15,239.48,122.15,234.62Z"/><path d="M132,234.62a12.24,12.24,0,1,1,12.29,12.2A12.37,12.37,0,0,1,132,234.62Zm20,0c0-4.5-3.56-8.28-7.74-8.28a8.32,8.32,0,0,0,0,16.61C148.47,243,152,239.17,152,234.62Z"/><path d="M196.08,231.47v14.81h-4.36V232.15c0-3.42-2-5.81-4.95-5.81-3.33,0-5.67,2.21-5.67,5.4v14.54h-4.37V232.15c0-3.42-2-5.81-4.95-5.81-3.33,0-5.67,2.21-5.67,5.4v14.54h-4.45V223h4.45v3.24a7.17,7.17,0,0,1,6.57-3.78,8,8,0,0,1,7.47,4.68c1.08-2.88,4-4.68,7.56-4.68C192.57,222.47,196.08,226.21,196.08,231.47Z"/><path d="M222,232.19v14.09h-4.37v-3.2a9.69,9.69,0,0,1-7.74,3.74c-4.95,0-8.59-2.88-8.59-7.43s4.18-7.74,9.31-7.74a22.54,22.54,0,0,1,7,1.26v-.72c0-2.92-1.35-6-6-6A14.73,14.73,0,0,0,205,228.1l-1.62-3.29a19.78,19.78,0,0,1,8.82-2.34C218.49,222.47,222,226.43,222,232.19Zm-4.37,6.8v-3.11a21.77,21.77,0,0,0-6.34-.9c-3.11,0-5.72,1.76-5.72,4.28s2.25,4.05,5.18,4.05S216.83,241.87,217.59,239Z"/><path d="M227.9,216.44a2.68,2.68,0,1,1,2.7,2.7A2.7,2.7,0,0,1,227.9,216.44Zm.45,6.57h4.45v23.27h-4.45Z"/><path d="M259.8,231.47v14.81h-4.36v-14c0-3.47-2.21-5.9-5.36-5.9s-6,2.12-6.39,4.86v15.08h-4.45V223h4.45v3.38a8.68,8.68,0,0,1,7.38-3.92C256.2,222.47,259.8,226.21,259.8,231.47Z"/></g></g><g class="b2bec0da-71a7-48b8-877f-64f28142b54d"><g class="b2bec0da-71a7-48b8-877f-64f28142b54d"><path d="M630.16,180.8a16,16,0,1,1,16.06,16A16.23,16.23,0,0,1,630.16,180.8Zm27.4,0c0-6.39-5.17-11.79-11.34-11.79s-11.38,5.4-11.38,11.79,5.22,11.83,11.38,11.83S657.56,187.23,657.56,180.8Z"/><path d="M673.76,173h5.49v3.78h-5.49v19.48H669.4V176.79h-3.51V173h3.51v-2.79a6,6,0,0,1,6.12-6.34,7.51,7.51,0,0,1,4.63,1.66l-1.62,3a3.47,3.47,0,0,0-2.38-.85,2.57,2.57,0,0,0-2.39,2.79Z"/><path d="M717.19,173v23.26h-4.46V192.9a8.69,8.69,0,0,1-7.38,3.91c-5.13,0-8.73-3.73-8.73-9V173H701v14c0,3.47,2.2,5.89,5.35,5.89s6-2.11,6.39-4.85V173Z"/><path d="M722.14,193.35l2.11-3.2a13.42,13.42,0,0,0,7.88,2.84c2.61,0,4.41-1.22,4.41-3,0-2.17-2.39-2.84-5.27-3.65-5.35-1.48-8-3-8-6.79,0-4.28,3.51-7.07,8.46-7.07a16,16,0,0,1,8.6,2.7l-2,3.29a13,13,0,0,0-6.62-2.16c-2.29,0-4.09,1-4.09,2.74s1.44,2.34,5.35,3.56,7.92,2.38,7.92,7c0,4.41-3.73,7.2-8.82,7.2A16.27,16.27,0,0,1,722.14,193.35Z"/><path d="M763.4,190.34l2.79,2.88c-2.07,2.2-6.12,3.59-9.4,3.59a11.94,11.94,0,0,1-12-12.23c0-7,5.17-12.11,11.61-12.11,7.11,0,11.2,5.4,11.2,13.72H749.32a7.38,7.38,0,0,0,7.42,6.66A10.2,10.2,0,0,0,763.4,190.34Zm-14-7.7h13.95c-.49-3.6-2.7-6.21-6.7-6.21A7.29,7.29,0,0,0,749.36,182.64Z"/><path d="M786.13,172.47v3.87c-4.82,0-8.24,2.66-8.64,6.71v13.22H773V173h4.46v4.46A9.2,9.2,0,0,1,786.13,172.47Z"/><path d="M789,193.35l2.12-3.2A13.4,13.4,0,0,0,799,193c2.61,0,4.41-1.22,4.41-3,0-2.17-2.38-2.84-5.26-3.65-5.36-1.48-8-3-8-6.79-.05-4.28,3.51-7.07,8.46-7.07a15.94,15.94,0,0,1,8.59,2.7l-2,3.29a13,13,0,0,0-6.61-2.16c-2.3,0-4.1,1-4.1,2.74s1.44,2.34,5.36,3.56,7.92,2.38,7.92,7c0,4.41-3.74,7.2-8.82,7.2A16.3,16.3,0,0,1,789,193.35Z"/><path d="M845.26,182.19v14.08h-4.37v-3.19a9.69,9.69,0,0,1-7.74,3.73c-4.95,0-8.59-2.87-8.59-7.42s4.18-7.74,9.31-7.74a22.54,22.54,0,0,1,7,1.26v-.72c0-2.92-1.35-6-6-6a14.73,14.73,0,0,0-6.57,1.94l-1.62-3.29a19.78,19.78,0,0,1,8.82-2.34C841.79,172.47,845.26,176.43,845.26,182.19ZM840.89,189v-3.1a21.77,21.77,0,0,0-6.34-.9c-3.11,0-5.72,1.75-5.72,4.28s2.25,4.05,5.18,4.05S840.13,191.86,840.89,189Z"/><path d="M872.26,181.47v14.8h-4.37v-14c0-3.47-2.2-5.9-5.35-5.9s-6,2.12-6.39,4.86v15.07h-4.46V173h4.46v3.38a8.67,8.67,0,0,1,7.38-3.92C868.66,172.47,872.26,176.21,872.26,181.47Z"/><path d="M901,164.82v31.45h-4.41v-4a9.44,9.44,0,0,1-8.27,4.58c-6.12,0-10.71-5-10.71-12.19s4.59-12.15,10.71-12.15a9.48,9.48,0,0,1,8.27,4.55v-12.2Zm-4.41,19.8c0-4.86-3-8.28-7.19-8.28s-7.29,3.42-7.29,8.28,3,8.32,7.29,8.32S896.55,189.48,896.55,184.62Z"/><path d="M933.05,195.15a7.45,7.45,0,0,1-4.64,1.66,6,6,0,0,1-6.12-6.34V176.79h-3.5V173h3.5v-6.39h4.37V173h5.49v3.78h-5.49v13.36a2.57,2.57,0,0,0,2.38,2.79,3.47,3.47,0,0,0,2.39-.85Z"/><path d="M958.16,181.47v14.8h-4.37v-14c0-3.47-2.2-5.9-5.35-5.9-3.51,0-6.44,2.48-6.44,5.49v14.44h-4.4V164.82H942v11.66a8.7,8.7,0,0,1,7.43-4C954.56,172.47,958.16,176.21,958.16,181.47Z"/><path d="M981.88,190.34l2.79,2.88c-2.08,2.2-6.13,3.59-9.41,3.59a11.94,11.94,0,0,1-12-12.23c0-7,5.17-12.11,11.61-12.11,7.11,0,11.2,5.4,11.2,13.72H967.79a7.39,7.39,0,0,0,7.42,6.66A10.25,10.25,0,0,0,981.88,190.34Zm-14-7.7h14c-.5-3.6-2.71-6.21-6.71-6.21A7.3,7.3,0,0,0,967.83,182.64Z"/><path d="M990.79,166.44a2.7,2.7,0,0,1,2.69-2.65,2.68,2.68,0,1,1-2.69,2.65Zm.45,6.57h4.45v23.26h-4.45Z"/><path d="M1015.44,172.47v3.87c-4.81,0-8.23,2.66-8.64,6.71v13.22h-4.45V173h4.45v4.46A9.22,9.22,0,0,1,1015.44,172.47Z"/></g><g class="b2bec0da-71a7-48b8-877f-64f28142b54d"><path d="M653.38,223V243.8c0,6-4.91,10.21-11.79,10.21a15.83,15.83,0,0,1-9.72-3.1l1.75-3.33a10.89,10.89,0,0,0,7.29,2.57c5,0,8-2.39,8-6.44v-3.37a9.73,9.73,0,0,1-8.23,4.23c-6.12,0-10.58-4.59-10.58-11.07s4.46-11,10.58-11a9.75,9.75,0,0,1,8.23,4.28V223Zm-4.46,10.49a7.09,7.09,0,1,0-7.11,7.2A6.87,6.87,0,0,0,648.92,233.5Z"/><path d="M658.78,234.62a12.24,12.24,0,1,1,12.28,12.2A12.36,12.36,0,0,1,658.78,234.62Zm20,0c0-4.5-3.55-8.28-7.74-8.28a8.32,8.32,0,0,0,0,16.61C675.25,243,678.8,239.17,678.8,234.62Z"/><path d="M708,232.19v14.09H703.6v-3.2a9.71,9.71,0,0,1-7.74,3.74c-5,0-8.6-2.88-8.6-7.43s4.19-7.74,9.32-7.74a22.59,22.59,0,0,1,7,1.26v-.72c0-2.92-1.35-6-6-6A14.81,14.81,0,0,0,691,228.1l-1.62-3.29a19.81,19.81,0,0,1,8.82-2.34C704.5,222.47,708,226.43,708,232.19ZM703.6,239v-3.11a21.79,21.79,0,0,0-6.35-.9c-3.1,0-5.71,1.76-5.71,4.28s2.25,4.05,5.17,4.05S702.83,241.87,703.6,239Z"/><path d="M714.4,214.82h4.41v31.46H714.4Z"/><path d="M723.76,243.35l2.11-3.19a13.41,13.41,0,0,0,7.88,2.83c2.61,0,4.41-1.21,4.41-3,0-2.16-2.39-2.84-5.27-3.65-5.35-1.48-8-3-8-6.79,0-4.28,3.51-7.07,8.46-7.07a16,16,0,0,1,8.6,2.7l-2,3.29a13,13,0,0,0-6.62-2.16c-2.29,0-4.09,1-4.09,2.74s1.44,2.34,5.35,3.56,7.92,2.38,7.92,7c0,4.41-3.73,7.2-8.82,7.2A16.28,16.28,0,0,1,723.76,243.35Z"/></g></g><g class="b2bec0da-71a7-48b8-877f-64f28142b54d"><g class="b2bec0da-71a7-48b8-877f-64f28142b54d"><path d="M1190.92,149.36h10.66c10,0,17.1,6.39,17.1,15.44s-7.11,15.47-17.1,15.47h-10.66Zm10.93,26.78c7.15,0,12.15-4.68,12.15-11.34s-5-11.3-12.15-11.3h-6.39v22.64Z"/><path d="M1241.85,174.34l2.79,2.88c-2.07,2.2-6.12,3.59-9.4,3.59a11.94,11.94,0,0,1-12-12.23c0-7,5.17-12.11,11.61-12.11,7.11,0,11.2,5.4,11.2,13.72h-18.31a7.38,7.38,0,0,0,7.42,6.66A10.2,10.2,0,0,0,1241.85,174.34Zm-14-7.7h14c-.49-3.6-2.7-6.21-6.7-6.21A7.29,7.29,0,0,0,1227.81,166.64Z"/><path d="M1257.38,157h5.49v3.78h-5.49v19.48H1253V160.79h-3.51V157H1253v-2.79a6,6,0,0,1,6.12-6.34,7.51,7.51,0,0,1,4.64,1.66l-1.62,3a3.52,3.52,0,0,0-2.39-.85,2.57,2.57,0,0,0-2.38,2.79Z"/><path d="M1267,150.44a2.68,2.68,0,0,1,5.36,0,2.68,2.68,0,1,1-5.36,0Zm.45,6.57h4.46v23.26h-4.46Z"/><path d="M1298.87,165.47v14.8h-4.37v-14c0-3.47-2.2-5.9-5.35-5.9s-6,2.12-6.39,4.86v15.07h-4.46V157h4.46v3.38a8.67,8.67,0,0,1,7.38-3.92C1295.27,156.47,1298.87,160.21,1298.87,165.47Z"/><path d="M1304.76,150.44a2.68,2.68,0,0,1,5.36,0,2.68,2.68,0,1,1-5.36,0Zm.45,6.57h4.46v23.26h-4.46Z"/><path d="M1328.61,179.15a7.45,7.45,0,0,1-4.63,1.66,6,6,0,0,1-6.12-6.34V160.79h-3.51V157h3.51v-6.39h4.36V157h5.49v3.78h-5.49v13.36a2.57,2.57,0,0,0,2.39,2.79,3.43,3.43,0,0,0,2.38-.85Z"/><path d="M1332.66,150.44a2.68,2.68,0,0,1,5.36,0,2.68,2.68,0,1,1-5.36,0Zm.45,6.57h4.46v23.26h-4.46Z"/><path d="M1342.74,168.62A12.24,12.24,0,1,1,1355,180.81,12.37,12.37,0,0,1,1342.74,168.62Zm20,0c0-4.5-3.56-8.28-7.74-8.28a8.31,8.31,0,0,0,0,16.6C1359.21,176.94,1362.77,173.17,1362.77,168.62Z"/><path d="M1393,165.47v14.8h-4.37v-14c0-3.47-2.2-5.9-5.35-5.9s-6,2.12-6.39,4.86v15.07h-4.46V157h4.46v3.38a8.67,8.67,0,0,1,7.38-3.92C1389.41,156.47,1393,160.21,1393,165.47Z"/><path d="M1411,168.62a12.24,12.24,0,1,1,12.28,12.19A12.36,12.36,0,0,1,1411,168.62Zm20,0c0-4.5-3.55-8.28-7.74-8.28a8.31,8.31,0,0,0,0,16.6C1427.48,176.94,1431,173.17,1431,168.62Z"/><path d="M1446.83,157h5.49v3.78h-5.49v19.48h-4.37V160.79H1439V157h3.51v-2.79a6,6,0,0,1,6.12-6.34,7.51,7.51,0,0,1,4.64,1.66l-1.62,3a3.52,3.52,0,0,0-2.39-.85,2.57,2.57,0,0,0-2.38,2.79Z"/><path d="M1490.25,157v23.26h-4.46V176.9a8.67,8.67,0,0,1-7.37,3.91c-5.13,0-8.73-3.73-8.73-9V157h4.36v14c0,3.47,2.21,5.89,5.36,5.89s6-2.11,6.38-4.85V157Z"/><path d="M1495.2,177.35l2.12-3.2a13.4,13.4,0,0,0,7.87,2.84c2.61,0,4.41-1.22,4.41-3,0-2.17-2.38-2.84-5.26-3.65-5.36-1.48-8-3-8-6.79,0-4.28,3.51-7.07,8.46-7.07a15.94,15.94,0,0,1,8.59,2.7l-2,3.29a13,13,0,0,0-6.61-2.16c-2.3,0-4.1,1-4.1,2.74s1.44,2.34,5.36,3.56,7.92,2.38,7.92,7c0,4.41-3.74,7.2-8.82,7.2A16.3,16.3,0,0,1,1495.2,177.35Z"/><path d="M1536.46,174.34l2.79,2.88c-2.07,2.2-6.12,3.59-9.4,3.59a11.94,11.94,0,0,1-12-12.23c0-7,5.17-12.11,11.61-12.11,7.11,0,11.2,5.4,11.2,13.72h-18.31a7.38,7.38,0,0,0,7.42,6.66A10.2,10.2,0,0,0,1536.46,174.34Zm-14-7.7h14c-.5-3.6-2.71-6.21-6.71-6.21A7.3,7.3,0,0,0,1522.42,166.64Z"/><path d="M1559.19,156.47v3.87c-4.82,0-8.24,2.66-8.64,6.71v13.22h-4.46V157h4.46v4.46A9.2,9.2,0,0,1,1559.19,156.47Z"/><path d="M1563.91,185a9.49,9.49,0,0,0,2.48-4.19,3,3,0,0,1-2.93-3,3,3,0,0,1,3-3c2,0,3.24,1.8,3.24,4.27,0,2.12-1,4.05-3.92,7.34Z"/></g><g class="b2bec0da-71a7-48b8-877f-64f28142b54d"><path d="M1213.86,218.62c0,7.16-4.59,12.2-10.71,12.2a9.44,9.44,0,0,1-8.28-4.59v4.05h-4.41V198.82h4.41V211a9.49,9.49,0,0,1,8.28-4.55C1209.27,206.47,1213.86,211.51,1213.86,218.62Zm-4.5,0c0-4.86-3-8.28-7.29-8.28s-7.2,3.42-7.2,8.28,3,8.33,7.2,8.33S1209.36,223.48,1209.36,218.62Z"/><path d="M1239.74,207v23.27h-4.46V226.9a8.67,8.67,0,0,1-7.38,3.92c-5.13,0-8.73-3.74-8.73-9V207h4.37v14c0,3.47,2.2,5.9,5.35,5.9s6-2.12,6.39-4.86V207Z"/><path d="M1244.69,227.35l2.11-3.19a13.41,13.41,0,0,0,7.88,2.83c2.61,0,4.41-1.21,4.41-3,0-2.16-2.39-2.84-5.27-3.65-5.35-1.48-8-3-8-6.79,0-4.28,3.51-7.07,8.46-7.07a16,16,0,0,1,8.6,2.7l-2,3.29a13,13,0,0,0-6.62-2.16c-2.29,0-4.09,1-4.09,2.74s1.44,2.34,5.35,3.56,7.92,2.38,7.92,7c0,4.41-3.73,7.2-8.82,7.2A16.28,16.28,0,0,1,1244.69,227.35Z"/><path d="M1268.13,200.44a2.68,2.68,0,0,1,5.36,0,2.68,2.68,0,1,1-5.36,0Zm.45,6.57H1273v23.27h-4.46Z"/><path d="M1300,215.47v14.81h-4.37v-14c0-3.47-2.2-5.9-5.35-5.9s-6,2.12-6.39,4.86v15.08h-4.46V207h4.46v3.38a8.67,8.67,0,0,1,7.38-3.92C1296.44,206.47,1300,210.21,1300,215.47Z"/><path d="M1323.75,224.34l2.79,2.88c-2.07,2.2-6.12,3.6-9.4,3.6a11.94,11.94,0,0,1-12-12.24c0-7,5.17-12.11,11.61-12.11,7.11,0,11.2,5.4,11.2,13.73h-18.31a7.38,7.38,0,0,0,7.42,6.66A10.16,10.16,0,0,0,1323.75,224.34Zm-14-7.7h14c-.49-3.6-2.7-6.21-6.7-6.21A7.29,7.29,0,0,0,1309.71,216.64Z"/><path d="M1331.63,227.35l2.11-3.19a13.41,13.41,0,0,0,7.88,2.83c2.61,0,4.41-1.21,4.41-3,0-2.16-2.39-2.84-5.27-3.65-5.35-1.48-8-3-8-6.79,0-4.28,3.51-7.07,8.46-7.07a16,16,0,0,1,8.6,2.7l-2,3.29a13,13,0,0,0-6.62-2.16c-2.29,0-4.09,1-4.09,2.74s1.44,2.34,5.35,3.56,7.92,2.38,7.92,7c0,4.41-3.73,7.2-8.82,7.2A16.28,16.28,0,0,1,1331.63,227.35Z"/><path d="M1354,227.35l2.11-3.19A13.41,13.41,0,0,0,1364,227c2.61,0,4.41-1.21,4.41-3,0-2.16-2.39-2.84-5.27-3.65-5.35-1.48-8-3-8-6.79,0-4.28,3.51-7.07,8.46-7.07a16,16,0,0,1,8.6,2.7l-2,3.29a13,13,0,0,0-6.62-2.16c-2.29,0-4.09,1-4.09,2.74s1.44,2.34,5.35,3.56,7.92,2.38,7.92,7c0,4.41-3.73,7.2-8.82,7.2A16.28,16.28,0,0,1,1354,227.35Z"/><path d="M1378.34,235a9.58,9.58,0,0,0,2.47-4.18,3,3,0,0,1-2.92-3,3,3,0,0,1,3-3c2,0,3.24,1.8,3.24,4.28,0,2.11-1,4-3.91,7.33Z"/><path d="M1422.66,216.19v14.09h-4.36v-3.2a9.71,9.71,0,0,1-7.74,3.74c-5,0-8.6-2.88-8.6-7.43s4.19-7.74,9.32-7.74a22.59,22.59,0,0,1,7,1.26v-.72c0-2.92-1.35-6-6-6a14.81,14.81,0,0,0-6.57,1.94l-1.62-3.29a19.81,19.81,0,0,1,8.82-2.34C1419.2,206.47,1422.66,210.43,1422.66,216.19Zm-4.36,6.8v-3.11a21.79,21.79,0,0,0-6.35-.9c-3.1,0-5.71,1.76-5.71,4.28s2.25,4.05,5.17,4.05S1417.53,225.87,1418.3,223Z"/><path d="M1449.66,215.47v14.81h-4.37v-14c0-3.47-2.2-5.9-5.35-5.9s-6,2.12-6.39,4.86v15.08h-4.45V207h4.45v3.38a8.68,8.68,0,0,1,7.38-3.92C1446.06,206.47,1449.66,210.21,1449.66,215.47Z"/><path d="M1478.37,198.82v31.46H1474v-4.05a9.44,9.44,0,0,1-8.28,4.59c-6.12,0-10.71-5-10.71-12.2s4.59-12.15,10.71-12.15A9.49,9.49,0,0,1,1474,211v-12.2Zm-4.41,19.8c0-4.86-3-8.28-7.2-8.28s-7.29,3.42-7.29,8.28,3,8.33,7.29,8.33S1474,223.48,1474,218.62Z"/></g><g class="b2bec0da-71a7-48b8-877f-64f28142b54d"><path d="M1202.75,279.15a7.46,7.46,0,0,1-4.64,1.67,6,6,0,0,1-6.12-6.35V260.79h-3.51V257H1192v-6.39h4.37V257h5.49v3.78h-5.49v13.37a2.57,2.57,0,0,0,2.38,2.79,3.48,3.48,0,0,0,2.39-.86Z"/><path d="M1224.62,274.34l2.79,2.88c-2.07,2.2-6.12,3.6-9.41,3.6a11.94,11.94,0,0,1-12-12.24c0-7,5.18-12.11,11.61-12.11,7.11,0,11.21,5.4,11.21,13.73h-18.32a7.39,7.39,0,0,0,7.43,6.66A10.18,10.18,0,0,0,1224.62,274.34Zm-14-7.7h14c-.5-3.6-2.7-6.21-6.71-6.21A7.28,7.28,0,0,0,1210.58,266.64Z"/><path d="M1232.76,268.62a12.37,12.37,0,0,1,12.29-12.15,12.11,12.11,0,0,1,8.55,3.6l-3,2.79a7.48,7.48,0,0,0-5.58-2.52c-4.23,0-7.74,3.78-7.74,8.28s3.51,8.33,7.79,8.33a7.66,7.66,0,0,0,5.67-2.61l3,2.74a12.07,12.07,0,0,1-8.73,3.74A12.4,12.4,0,0,1,1232.76,268.62Z"/><path d="M1279.07,265.47v14.81h-4.37v-14c0-3.47-2.2-5.9-5.35-5.9-3.51,0-6.44,2.48-6.44,5.49v14.45h-4.41V248.82h4.41v11.66a8.69,8.69,0,0,1,7.43-4C1275.47,256.47,1279.07,260.21,1279.07,265.47Z"/><path d="M1306,265.47v14.81h-4.36v-14c0-3.47-2.21-5.9-5.36-5.9s-6,2.12-6.39,4.86v15.08h-4.45V257h4.45v3.38a8.68,8.68,0,0,1,7.38-3.92C1302.42,256.47,1306,260.21,1306,265.47Z"/><path d="M1311.92,250.44a2.68,2.68,0,1,1,2.7,2.7A2.7,2.7,0,0,1,1311.92,250.44Zm.45,6.57h4.45v23.27h-4.45Z"/><path d="M1322,268.62a12.36,12.36,0,0,1,12.28-12.15,12.09,12.09,0,0,1,8.55,3.6l-3,2.79a7.49,7.49,0,0,0-5.58-2.52c-4.23,0-7.74,3.78-7.74,8.28s3.51,8.33,7.78,8.33a7.66,7.66,0,0,0,5.67-2.61l3,2.74a12.09,12.09,0,0,1-8.73,3.74A12.39,12.39,0,0,1,1322,268.62Z"/><path d="M1367.22,266.19v14.09h-4.36v-3.2a9.71,9.71,0,0,1-7.74,3.74c-4.95,0-8.6-2.88-8.6-7.43s4.19-7.74,9.32-7.74a22.59,22.59,0,0,1,7,1.26v-.72c0-2.92-1.35-6-6-6a14.81,14.81,0,0,0-6.57,1.94l-1.62-3.29a19.81,19.81,0,0,1,8.82-2.34C1363.76,256.47,1367.22,260.43,1367.22,266.19Zm-4.36,6.8v-3.11a21.79,21.79,0,0,0-6.35-.9c-3.1,0-5.71,1.76-5.71,4.28s2.25,4.05,5.17,4.05S1362.09,275.87,1362.86,273Z"/><path d="M1373.66,248.82h4.41v31.46h-4.41Z"/><path d="M1418,265.47v14.81h-4.36v-14c0-3.47-2.21-5.9-5.36-5.9s-6,2.12-6.39,4.86v15.08h-4.45V257h4.45v3.38a8.68,8.68,0,0,1,7.38-3.92C1414.38,256.47,1418,260.21,1418,265.47Z"/><path d="M1441.7,274.34l2.79,2.88c-2.07,2.2-6.12,3.6-9.41,3.6a11.94,11.94,0,0,1-12-12.24c0-7,5.18-12.11,11.61-12.11,7.11,0,11.21,5.4,11.21,13.73h-18.32a7.39,7.39,0,0,0,7.43,6.66A10.18,10.18,0,0,0,1441.7,274.34Zm-14-7.7h13.95c-.5-3.6-2.7-6.21-6.71-6.21A7.28,7.28,0,0,0,1427.66,266.64Z"/><path d="M1468.43,274.34l2.79,2.88c-2.07,2.2-6.12,3.6-9.41,3.6a11.94,11.94,0,0,1-12-12.24c0-7,5.18-12.11,11.61-12.11,7.11,0,11.21,5.4,11.21,13.73h-18.32a7.39,7.39,0,0,0,7.43,6.66A10.18,10.18,0,0,0,1468.43,274.34Zm-14-7.7h13.95c-.5-3.6-2.7-6.21-6.71-6.21A7.28,7.28,0,0,0,1454.39,266.64Z"/><path d="M1500.15,248.82v31.46h-4.41v-4a9.44,9.44,0,0,1-8.28,4.59c-6.12,0-10.71-5-10.71-12.2s4.59-12.15,10.71-12.15a9.49,9.49,0,0,1,8.28,4.55v-12.2Zm-4.41,19.8c0-4.86-3-8.28-7.2-8.28s-7.29,3.42-7.29,8.28,3,8.33,7.29,8.33S1495.74,273.48,1495.74,268.62Z"/><path d="M1505.33,277.35l2.11-3.19a13.41,13.41,0,0,0,7.88,2.83c2.61,0,4.41-1.21,4.41-3,0-2.16-2.39-2.84-5.27-3.65-5.35-1.48-8-3-8-6.79,0-4.28,3.51-7.07,8.46-7.07a16,16,0,0,1,8.6,2.7l-2,3.29a13,13,0,0,0-6.62-2.16c-2.29,0-4.09,1-4.09,2.74s1.44,2.34,5.35,3.56,7.92,2.38,7.92,7c0,4.41-3.73,7.2-8.82,7.2A16.28,16.28,0,0,1,1505.33,277.35Z"/></g></g><g class="b2bec0da-71a7-48b8-877f-64f28142b54d"><g class="b2bec0da-71a7-48b8-877f-64f28142b54d"><path d="M1752.92,149.36h10.66c10,0,17.1,6.39,17.1,15.44s-7.11,15.47-17.1,15.47h-10.66Zm10.93,26.78c7.15,0,12.15-4.68,12.15-11.34s-5-11.3-12.15-11.3h-6.39v22.64Z"/><path d="M1803.85,174.34l2.79,2.88c-2.07,2.2-6.12,3.59-9.4,3.59a11.94,11.94,0,0,1-12-12.23c0-7,5.17-12.11,11.61-12.11,7.11,0,11.2,5.4,11.2,13.72h-18.31a7.38,7.38,0,0,0,7.42,6.66A10.2,10.2,0,0,0,1803.85,174.34Zm-14-7.7h14c-.49-3.6-2.7-6.21-6.7-6.21A7.29,7.29,0,0,0,1789.81,166.64Z"/><path d="M1819.38,157h5.49v3.78h-5.49v19.48H1815V160.79h-3.51V157H1815v-2.79a6,6,0,0,1,6.12-6.34,7.51,7.51,0,0,1,4.64,1.66l-1.62,3a3.52,3.52,0,0,0-2.39-.85,2.57,2.57,0,0,0-2.38,2.79Z"/><path d="M1829,150.44a2.68,2.68,0,0,1,5.36,0,2.68,2.68,0,1,1-5.36,0Zm.45,6.57h4.46v23.26h-4.46Z"/><path d="M1860.87,165.47v14.8h-4.37v-14c0-3.47-2.2-5.9-5.35-5.9s-6,2.12-6.39,4.86v15.07h-4.46V157h4.46v3.38a8.67,8.67,0,0,1,7.38-3.92C1857.27,156.47,1860.87,160.21,1860.87,165.47Z"/><path d="M1866.76,150.44a2.68,2.68,0,0,1,5.36,0,2.68,2.68,0,1,1-5.36,0Zm.45,6.57h4.46v23.26h-4.46Z"/><path d="M1890.61,179.15a7.45,7.45,0,0,1-4.63,1.66,6,6,0,0,1-6.12-6.34V160.79h-3.51V157h3.51v-6.39h4.36V157h5.49v3.78h-5.49v13.36a2.57,2.57,0,0,0,2.39,2.79,3.43,3.43,0,0,0,2.38-.85Z"/><path d="M1894.66,150.44a2.68,2.68,0,0,1,5.36,0,2.68,2.68,0,1,1-5.36,0Zm.45,6.57h4.46v23.26h-4.46Z"/><path d="M1904.74,168.62A12.24,12.24,0,1,1,1917,180.81,12.37,12.37,0,0,1,1904.74,168.62Zm20,0c0-4.5-3.56-8.28-7.74-8.28a8.31,8.31,0,0,0,0,16.6C1921.21,176.94,1924.77,173.17,1924.77,168.62Z"/><path d="M1955,165.47v14.8h-4.37v-14c0-3.47-2.2-5.9-5.35-5.9s-6,2.12-6.39,4.86v15.07h-4.46V157h4.46v3.38a8.67,8.67,0,0,1,7.38-3.92C1951.41,156.47,1955,160.21,1955,165.47Z"/><path d="M1973,168.62a12.24,12.24,0,1,1,12.28,12.19A12.36,12.36,0,0,1,1973,168.62Zm20,0c0-4.5-3.55-8.28-7.74-8.28a8.31,8.31,0,0,0,0,16.6C1989.48,176.94,1993,173.17,1993,168.62Z"/><path d="M2008.83,157h5.49v3.78h-5.49v19.48h-4.37V160.79H2001V157h3.51v-2.79a6,6,0,0,1,6.12-6.34,7.51,7.51,0,0,1,4.64,1.66l-1.62,3a3.52,3.52,0,0,0-2.39-.85,2.57,2.57,0,0,0-2.38,2.79Z"/></g><g class="b2bec0da-71a7-48b8-877f-64f28142b54d"><path d="M1774.56,198.82v31.46h-4.41v-4.05a9.44,9.44,0,0,1-8.28,4.59c-6.12,0-10.71-5-10.71-12.2s4.59-12.15,10.71-12.15a9.49,9.49,0,0,1,8.28,4.55v-12.2Zm-4.41,19.8c0-4.86-3-8.28-7.2-8.28s-7.29,3.42-7.29,8.28,3,8.33,7.29,8.33S1770.15,223.48,1770.15,218.62Z"/><path d="M1798.59,224.34l2.79,2.88c-2.07,2.2-6.12,3.6-9.41,3.6a11.94,11.94,0,0,1-12-12.24c0-7,5.18-12.11,11.61-12.11,7.11,0,11.21,5.4,11.21,13.73H1784.5a7.39,7.39,0,0,0,7.43,6.66A10.18,10.18,0,0,0,1798.59,224.34Zm-14-7.7h14c-.5-3.6-2.7-6.21-6.71-6.21A7.28,7.28,0,0,0,1784.55,216.64Z"/><path d="M1806.46,227.35l2.12-3.19a13.38,13.38,0,0,0,7.87,2.83c2.61,0,4.41-1.21,4.41-3,0-2.16-2.38-2.84-5.26-3.65-5.36-1.48-8-3-8-6.79,0-4.28,3.51-7.07,8.46-7.07a15.94,15.94,0,0,1,8.59,2.7l-2,3.29a13,13,0,0,0-6.61-2.16c-2.3,0-4.1,1-4.1,2.74s1.44,2.34,5.36,3.56,7.92,2.38,7.92,7c0,4.41-3.74,7.2-8.82,7.2A16.31,16.31,0,0,1,1806.46,227.35Z"/><path d="M1829.91,200.44a2.68,2.68,0,1,1,2.7,2.7A2.7,2.7,0,0,1,1829.91,200.44Zm.45,6.57h4.45v23.27h-4.45Z"/><path d="M1863.39,207V227.8c0,6-4.91,10.21-11.79,10.21a15.83,15.83,0,0,1-9.72-3.1l1.75-3.33a10.89,10.89,0,0,0,7.29,2.57c5,0,8-2.39,8-6.44v-3.37a9.73,9.73,0,0,1-8.23,4.23c-6.12,0-10.58-4.59-10.58-11.07s4.46-11,10.58-11a9.75,9.75,0,0,1,8.23,4.28V207Zm-4.46,10.49a7.09,7.09,0,1,0-7.11,7.2A6.87,6.87,0,0,0,1858.93,217.5Z"/><path d="M1890.61,215.47v14.81h-4.36v-14c0-3.47-2.21-5.9-5.36-5.9s-6,2.12-6.39,4.86v15.08h-4.45V207h4.45v3.38a8.68,8.68,0,0,1,7.38-3.92C1887,206.47,1890.61,210.21,1890.61,215.47Z"/><path d="M1908.34,227.35l2.12-3.19a13.38,13.38,0,0,0,7.87,2.83c2.61,0,4.41-1.21,4.41-3,0-2.16-2.38-2.84-5.26-3.65-5.36-1.48-8-3-8-6.79,0-4.28,3.51-7.07,8.46-7.07a15.94,15.94,0,0,1,8.59,2.7l-2,3.29a13,13,0,0,0-6.61-2.16c-2.3,0-4.1,1-4.1,2.74s1.44,2.34,5.36,3.56,7.92,2.38,7.92,7c0,4.41-3.74,7.2-8.82,7.2A16.31,16.31,0,0,1,1908.34,227.35Z"/><path d="M1944.79,229.15a7.46,7.46,0,0,1-4.63,1.67,6,6,0,0,1-6.12-6.35V210.79h-3.51V207H1934v-6.39h4.36V207h5.49v3.78h-5.49v13.37a2.57,2.57,0,0,0,2.39,2.79,3.43,3.43,0,0,0,2.38-.86Z"/><path d="M1962.66,206.47v3.87c-4.82,0-8.24,2.66-8.64,6.71v13.23h-4.46V207H1954v4.46A9.2,9.2,0,0,1,1962.66,206.47Z"/><path d="M1987.5,207v23.27H1983V226.9a8.67,8.67,0,0,1-7.38,3.92c-5.13,0-8.73-3.74-8.73-9V207h4.37v14c0,3.47,2.2,5.9,5.35,5.9s6-2.12,6.39-4.86V207Z"/><path d="M1992.72,218.62A12.36,12.36,0,0,1,2005,206.47a12.09,12.09,0,0,1,8.55,3.6l-3,2.79a7.49,7.49,0,0,0-5.58-2.52c-4.23,0-7.74,3.78-7.74,8.28s3.51,8.33,7.78,8.33a7.66,7.66,0,0,0,5.67-2.61l3,2.74a12.09,12.09,0,0,1-8.73,3.74A12.39,12.39,0,0,1,1992.72,218.62Z"/><path d="M2031,229.15a7.46,7.46,0,0,1-4.64,1.67,6,6,0,0,1-6.12-6.35V210.79h-3.51V207h3.51v-6.39h4.37V207h5.49v3.78h-5.49v13.37A2.57,2.57,0,0,0,2027,227a3.48,3.48,0,0,0,2.39-.86Z"/><path d="M2056,207v23.27h-4.46V226.9a8.67,8.67,0,0,1-7.38,3.92c-5.13,0-8.73-3.74-8.73-9V207h4.37v14c0,3.47,2.2,5.9,5.35,5.9s6-2.12,6.39-4.86V207Z"/><path d="M2075.79,206.47v3.87c-4.82,0-8.24,2.66-8.64,6.71v13.23h-4.46V207h4.46v4.46A9.2,9.2,0,0,1,2075.79,206.47Z"/><path d="M2097.48,224.34l2.79,2.88c-2.07,2.2-6.12,3.6-9.41,3.6a11.94,11.94,0,0,1-12-12.24c0-7,5.18-12.11,11.61-12.11,7.11,0,11.21,5.4,11.21,13.73h-18.32a7.39,7.39,0,0,0,7.43,6.66A10.18,10.18,0,0,0,2097.48,224.34Zm-14-7.7h13.95c-.5-3.6-2.7-6.21-6.71-6.21A7.28,7.28,0,0,0,2083.44,216.64Z"/></g><g class="b2bec0da-71a7-48b8-877f-64f28142b54d"><path d="M1771.72,266.19v14.09h-4.36v-3.2a9.69,9.69,0,0,1-7.74,3.74c-4.95,0-8.59-2.88-8.59-7.43s4.18-7.74,9.31-7.74a22.59,22.59,0,0,1,7,1.26v-.72c0-2.92-1.35-6-6-6a14.81,14.81,0,0,0-6.58,1.94l-1.61-3.29a19.74,19.74,0,0,1,8.81-2.34C1768.26,256.47,1771.72,260.43,1771.72,266.19Zm-4.36,6.8v-3.11a21.79,21.79,0,0,0-6.35-.9c-3.1,0-5.71,1.76-5.71,4.28s2.25,4.05,5.17,4.05S1766.59,275.87,1767.36,273Z"/><path d="M1798.72,265.47v14.81h-4.36v-14c0-3.47-2.21-5.9-5.36-5.9s-6,2.12-6.39,4.86v15.08h-4.45V257h4.45v3.38a8.68,8.68,0,0,1,7.38-3.92C1795.12,256.47,1798.72,260.21,1798.72,265.47Z"/><path d="M1827.43,248.82v31.46H1823v-4a9.44,9.44,0,0,1-8.28,4.59c-6.12,0-10.71-5-10.71-12.2s4.59-12.15,10.71-12.15A9.49,9.49,0,0,1,1823,261v-12.2Zm-4.41,19.8c0-4.86-3-8.28-7.2-8.28s-7.29,3.42-7.29,8.28,3,8.33,7.29,8.33S1823,273.48,1823,268.62Z"/><path d="M1853.13,257h5.49v3.78h-5.49v19.49h-4.37V260.79h-3.51V257h3.51v-2.79a6,6,0,0,1,6.12-6.34,7.51,7.51,0,0,1,4.64,1.66l-1.62,3a3.52,3.52,0,0,0-2.39-.85,2.57,2.57,0,0,0-2.38,2.79Z"/><path d="M1863.21,248.82h4.41v31.46h-4.41Z"/><path d="M1872.84,268.62a12.24,12.24,0,1,1,12.28,12.2A12.36,12.36,0,0,1,1872.84,268.62Zm20,0c0-4.5-3.55-8.28-7.74-8.28a8.32,8.32,0,0,0,0,16.61C1889.31,277,1892.86,273.17,1892.86,268.62Z"/><path d="M1899.66,257h4.54l5.36,17.33,5.76-17.33h3.78l5.76,17.33,5.31-17.33h4.54l-7.83,23.27h-4.09L1917.21,263l-5.63,17.28h-4.09Z"/></g></g><g class="b2bec0da-71a7-48b8-877f-64f28142b54d"><g class="b2bec0da-71a7-48b8-877f-64f28142b54d"><path d="M2279.16,164.8a16,16,0,1,1,16.06,16A16.23,16.23,0,0,1,2279.16,164.8Zm27.4,0c0-6.39-5.17-11.79-11.34-11.79s-11.38,5.4-11.38,11.79,5.22,11.83,11.38,11.83S2306.56,171.23,2306.56,164.8Z"/><path d="M2322.76,157h5.49v3.78h-5.49v19.48h-4.36V160.79h-3.51V157h3.51v-2.79a6,6,0,0,1,6.12-6.34,7.51,7.51,0,0,1,4.63,1.66l-1.62,3a3.47,3.47,0,0,0-2.38-.85,2.57,2.57,0,0,0-2.39,2.79Z"/><path d="M2351.83,157h5.49v3.78h-5.49v19.48h-4.36V160.79H2344V157h3.51v-2.79a6,6,0,0,1,6.12-6.34,7.51,7.51,0,0,1,4.63,1.66l-1.62,3a3.47,3.47,0,0,0-2.38-.85,2.57,2.57,0,0,0-2.39,2.79Z"/><path d="M2360.65,168.62a12.24,12.24,0,1,1,12.29,12.19A12.37,12.37,0,0,1,2360.65,168.62Zm20,0c0-4.5-3.56-8.28-7.74-8.28a8.31,8.31,0,0,0,0,16.6C2377.12,176.94,2380.68,173.17,2380.68,168.62Z"/><path d="M2403.67,156.47v3.87c-4.81,0-8.23,2.66-8.64,6.71v13.22h-4.45V157H2395v4.46A9.22,9.22,0,0,1,2403.67,156.47Z"/><path d="M2442.42,165.47v14.8h-4.37V166.15c0-3.42-2-5.81-5-5.81-3.33,0-5.67,2.21-5.67,5.4v14.53h-4.36V166.15c0-3.42-2-5.81-5-5.81-3.33,0-5.67,2.21-5.67,5.4v14.53H2408V157h4.46v3.24a7.17,7.17,0,0,1,6.57-3.78,8,8,0,0,1,7.47,4.68c1.08-2.88,4.05-4.68,7.56-4.68C2438.91,156.47,2442.42,160.21,2442.42,165.47Z"/><path d="M2449.17,185a9.56,9.56,0,0,0,2.47-4.19,3,3,0,0,1-2.92-3,3,3,0,0,1,3-3c2,0,3.24,1.8,3.24,4.27,0,2.12-1,4.05-3.91,7.34Z"/><path d="M2472.75,168.62A12.36,12.36,0,0,1,2485,156.47a12.09,12.09,0,0,1,8.55,3.6l-3,2.79a7.48,7.48,0,0,0-5.58-2.52c-4.22,0-7.73,3.78-7.73,8.28s3.51,8.32,7.78,8.32a7.68,7.68,0,0,0,5.67-2.6l3,2.74a12.1,12.1,0,0,1-8.73,3.73A12.38,12.38,0,0,1,2472.75,168.62Z"/><path d="M2496.73,168.62A12.24,12.24,0,1,1,2509,180.81,12.37,12.37,0,0,1,2496.73,168.62Zm20,0c0-4.5-3.55-8.28-7.73-8.28a8.31,8.31,0,0,0,0,16.6C2513.2,176.94,2516.75,173.17,2516.75,168.62Z"/><path d="M2547,165.47v14.8h-4.36v-14c0-3.47-2.21-5.9-5.36-5.9s-6,2.12-6.39,4.86v15.07h-4.45V157h4.45v3.38a8.7,8.7,0,0,1,7.38-3.92C2543.39,156.47,2547,160.21,2547,165.47Z"/><path d="M2565.89,179.15a7.45,7.45,0,0,1-4.63,1.66,6,6,0,0,1-6.12-6.34V160.79h-3.51V157h3.51v-6.39h4.36V157h5.5v3.78h-5.5v13.36a2.57,2.57,0,0,0,2.39,2.79,3.47,3.47,0,0,0,2.39-.85Z"/><path d="M2587.76,174.34l2.79,2.88c-2.07,2.2-6.12,3.59-9.4,3.59a11.94,11.94,0,0,1-12-12.23c0-7,5.17-12.11,11.61-12.11,7.11,0,11.2,5.4,11.2,13.72h-18.31a7.38,7.38,0,0,0,7.42,6.66A10.2,10.2,0,0,0,2587.76,174.34Zm-14-7.7h14c-.49-3.6-2.7-6.21-6.7-6.21A7.3,7.3,0,0,0,2573.72,166.64Z"/><path d="M2617.73,165.47v14.8h-4.36v-14c0-3.47-2.21-5.9-5.36-5.9s-6,2.12-6.39,4.86v15.07h-4.45V157h4.45v3.38a8.68,8.68,0,0,1,7.38-3.92C2614.13,156.47,2617.73,160.21,2617.73,165.47Z"/><path d="M2636.63,179.15a7.45,7.45,0,0,1-4.63,1.66,6,6,0,0,1-6.12-6.34V160.79h-3.51V157h3.51v-6.39h4.36V157h5.49v3.78h-5.49v13.36a2.57,2.57,0,0,0,2.39,2.79,3.43,3.43,0,0,0,2.38-.85Z"/></g><g class="b2bec0da-71a7-48b8-877f-64f28142b54d"><path d="M2299.72,216.19v14.09h-4.36v-3.2a9.69,9.69,0,0,1-7.74,3.74c-4.95,0-8.59-2.88-8.59-7.43s4.18-7.74,9.31-7.74a22.59,22.59,0,0,1,7,1.26v-.72c0-2.92-1.35-6-6-6a14.81,14.81,0,0,0-6.58,1.94l-1.61-3.29a19.74,19.74,0,0,1,8.81-2.34C2296.26,206.47,2299.72,210.43,2299.72,216.19Zm-4.36,6.8v-3.11a21.79,21.79,0,0,0-6.35-.9c-3.1,0-5.71,1.76-5.71,4.28s2.25,4.05,5.17,4.05S2294.59,225.87,2295.36,223Z"/><path d="M2326.72,215.47v14.81h-4.36v-14c0-3.47-2.21-5.9-5.36-5.9s-6,2.12-6.39,4.86v15.08h-4.45V207h4.45v3.38a8.68,8.68,0,0,1,7.38-3.92C2323.12,206.47,2326.72,210.21,2326.72,215.47Z"/><path d="M2355.43,198.82v31.46H2351v-4.05a9.44,9.44,0,0,1-8.28,4.59c-6.12,0-10.71-5-10.71-12.2s4.59-12.15,10.71-12.15A9.49,9.49,0,0,1,2351,211v-12.2Zm-4.41,19.8c0-4.86-3-8.28-7.2-8.28s-7.29,3.42-7.29,8.28,3,8.33,7.29,8.33S2351,223.48,2351,218.62Z"/><path d="M2381.13,207h5.49v3.78h-5.49v19.49h-4.37V210.79h-3.51V207h3.51v-2.79a6,6,0,0,1,6.12-6.34,7.51,7.51,0,0,1,4.64,1.66l-1.62,3a3.52,3.52,0,0,0-2.39-.85,2.57,2.57,0,0,0-2.38,2.79Z"/><path d="M2391.21,198.82h4.41v31.46h-4.41Z"/><path d="M2400.84,218.62a12.24,12.24,0,1,1,12.28,12.2A12.36,12.36,0,0,1,2400.84,218.62Zm20,0c0-4.5-3.55-8.28-7.74-8.28a8.32,8.32,0,0,0,0,16.61C2417.31,227,2420.86,223.17,2420.86,218.62Z"/><path d="M2427.66,207h4.54l5.36,17.33,5.76-17.33h3.78l5.76,17.33,5.31-17.33h4.54l-7.83,23.27h-4.09L2445.21,213l-5.63,17.28h-4.09Z"/></g></g><g class="b2bec0da-71a7-48b8-877f-64f28142b54d"><g class="b2bec0da-71a7-48b8-877f-64f28142b54d"><path d="M712.2,71.61h7.64l11.08,20.18,11-20.18h7.7v35.73h-7.7V85.08l-11,20.18L719.84,85.08v22.26H712.2Z"/><path d="M755.25,93.87c0-7.64,6.71-14,14.72-14s14.61,6.4,14.61,14S777.93,108,770,108,755.25,101.52,755.25,93.87Zm22.1,0a7.42,7.42,0,1,0-7.38,7.7A7.6,7.6,0,0,0,777.35,93.87Z"/><path d="M817.39,71v36.35H809.8v-3.85a11,11,0,0,1-9,4.47c-7.17,0-12.37-5.82-12.37-14.09s5.2-14,12.37-14a11.06,11.06,0,0,1,9,4.47V71ZM809.8,93.87c0-4.47-2.86-7.64-6.86-7.64-4.21,0-7.18,3.17-7.18,7.64s3,7.7,7.18,7.7C806.94,101.57,809.8,98.4,809.8,93.87Z"/><path d="M842.93,98.86l4.83,4.94c-2.39,2.5-7,4.16-11,4.16a13.83,13.83,0,0,1-14.25-14.14,13.55,13.55,0,0,1,13.83-14c8.43,0,13.37,6.4,13.37,16.54h-19.4a6.53,6.53,0,0,0,6.4,4.89A9.73,9.73,0,0,0,842.93,98.86Zm-12.49-8h12a5.61,5.61,0,0,0-5.77-4.37A6.5,6.5,0,0,0,830.44,90.91Z"/><path d="M854.88,71h7.6v36.35h-7.6Z"/><path d="M868.72,72.6a4.11,4.11,0,1,1,4.16,4.16A4.15,4.15,0,0,1,868.72,72.6Zm.31,7.86h7.59v26.88H869Z"/><path d="M908.76,90.23v17.11h-7.34V91.84c0-3.32-2.08-5.61-5.09-5.61a5.35,5.35,0,0,0-5.62,5.2l-.05-.16v16.07h-7.59V80.46h7.59v3.37a9.58,9.58,0,0,1,8.11-4C904.6,79.83,908.76,84.15,908.76,90.23Z"/><path d="M942.24,80.46v24c0,6.92-6,11.8-14.45,11.8-4.73,0-9.21-1.5-11.86-3.58l2.65-5.36a12.72,12.72,0,0,0,8,2.55c4.89,0,8-2.24,8-5.72v-3a11.44,11.44,0,0,1-8.89,4.16c-6.76,0-11.91-5.3-11.91-12.79S919,79.83,925.71,79.83a11.09,11.09,0,0,1,8.89,4.26V80.46ZM934.6,92.57a6.5,6.5,0,1,0-6.5,6.4A6.15,6.15,0,0,0,934.6,92.57Z"/></g></g><g class="b2bec0da-71a7-48b8-877f-64f28142b54d"><g class="b2bec0da-71a7-48b8-877f-64f28142b54d"><path d="M1212.32,107.34l-8.16-11.6h-5.67v11.6h-7.64V71.61h16.06c7.75,0,13.47,5,13.47,12.07a11.63,11.63,0,0,1-8.11,11.18l8.79,12.48Zm-13.83-18.62h7.59c3.8,0,6.4-2,6.4-5s-2.6-5.05-6.4-5.05h-7.59Z"/><path d="M1244.77,98.86l4.84,4.94c-2.4,2.5-7,4.16-11,4.16a13.82,13.82,0,0,1-14.24-14.14,13.55,13.55,0,0,1,13.83-14c8.42,0,13.36,6.4,13.36,16.54h-19.39a6.52,6.52,0,0,0,6.39,4.89A9.73,9.73,0,0,0,1244.77,98.86Zm-12.48-8h12a5.6,5.6,0,0,0-5.77-4.37A6.49,6.49,0,0,0,1232.29,90.91Z"/><path d="M1284.39,80.46v35.82h-7.59V103.49a11,11,0,0,1-9,4.47c-7.17,0-12.37-5.82-12.37-14.09s5.2-14,12.37-14a11.06,11.06,0,0,1,9,4.47V80.46Zm-7.59,13.41c0-4.47-2.86-7.64-6.86-7.64-4.21,0-7.18,3.17-7.18,7.64s3,7.7,7.18,7.7C1273.94,101.57,1276.8,98.4,1276.8,93.87Z"/><path d="M1316.48,80.46v26.88h-7.59V104a9.6,9.6,0,0,1-8.12,4c-5.82,0-10-4.31-10-10.4V80.46h7.33V96c0,3.33,2.08,5.62,5.1,5.62a5.35,5.35,0,0,0,5.61-5.2l.06.15V80.46Z"/><path d="M1322.61,72.6a4.11,4.11,0,1,1,4.16,4.16A4.15,4.15,0,0,1,1322.61,72.6Zm.31,7.86h7.6v26.88h-7.6Z"/><path d="M1353.92,79.83v6.4c-5.62,0-9.21,3.22-9.21,8.27v12.84h-7.59V80.46h7.59v5A10,10,0,0,1,1353.92,79.83Z"/><path d="M1377.16,98.86l4.84,4.94c-2.4,2.5-7,4.16-11,4.16a13.82,13.82,0,0,1-14.24-14.14,13.55,13.55,0,0,1,13.83-14c8.42,0,13.36,6.4,13.36,16.54h-19.39a6.52,6.52,0,0,0,6.39,4.89A9.71,9.71,0,0,0,1377.16,98.86Zm-12.48-8h12a5.6,5.6,0,0,0-5.77-4.37A6.49,6.49,0,0,0,1364.68,90.91Z"/><path d="M1431,90.23v17.16h-7.28V91.53c0-3.12-2-5.3-4.78-5.3a4.86,4.86,0,0,0-5.2,4.89v16.27h-7.28V91.53c0-3.12-2-5.3-4.73-5.3-3.07,0-5.21,2-5.21,4.89v16.22H1389V80.46h7.59V84a7.89,7.89,0,0,1,7.29-4.16,9.54,9.54,0,0,1,8.52,4.89c1.41-3,4.74-4.89,8.74-4.89C1426.72,79.83,1431,84.15,1431,90.23Z"/><path d="M1456.3,98.86l4.84,4.94c-2.39,2.5-7,4.16-11,4.16a13.83,13.83,0,0,1-14.25-14.14,13.55,13.55,0,0,1,13.83-14c8.43,0,13.37,6.4,13.37,16.54h-19.4a6.53,6.53,0,0,0,6.4,4.89A9.68,9.68,0,0,0,1456.3,98.86Zm-12.48-8h12a5.61,5.61,0,0,0-5.78-4.37A6.49,6.49,0,0,0,1443.82,90.91Z"/><path d="M1493.79,90.23v17.11h-7.33V91.84c0-3.32-2.08-5.61-5.09-5.61a5.35,5.35,0,0,0-5.62,5.2l0-.16v16.07h-7.59V80.46h7.59v3.37a9.58,9.58,0,0,1,8.11-4C1489.63,79.83,1493.79,84.15,1493.79,90.23Z"/><path d="M1516.15,105.62A9.75,9.75,0,0,1,1510,108c-4.74,0-8.06-3.38-8.06-8.21V86.59h-3.7V80.46h3.7V73.07h7.28v7.39H1515v6.13h-5.82v12a2.75,2.75,0,0,0,2.54,3,3.89,3.89,0,0,0,2.6-.89Z"/><path d="M1518.86,103.91l3.27-5.25a15.36,15.36,0,0,0,9,3c2,0,3.48-.83,3.48-2,0-1.66-2-2.18-4.73-2.91-5.51-1.35-9.77-2.86-9.83-8.16,0-5.1,4.16-8.74,10.51-8.74a19.55,19.55,0,0,1,10.61,3.33l-3.07,5.41a15.22,15.22,0,0,0-7.54-2.4c-1.87,0-3.18.68-3.18,1.62,0,1.45,1.1,1.87,4.74,2.86,4.63,1.19,9.77,2.75,9.77,8.63,0,5.3-4.31,8.68-10.92,8.68A19.86,19.86,0,0,1,1518.86,103.91Z"/></g></g><g class="b2bec0da-71a7-48b8-877f-64f28142b54d"><g class="b2bec0da-71a7-48b8-877f-64f28142b54d"><path d="M1780.49,78.53v7.75h17.94V93.2h-17.94v14.14h-7.69V71.61h27.5v6.92Z"/><path d="M1822.35,79.83v6.4c-5.61,0-9.2,3.22-9.2,8.27v12.84h-7.59V80.46h7.59v5A10,10,0,0,1,1822.35,79.83Z"/><path d="M1850.54,91.27v16.07h-7.34v-2.7a10.68,10.68,0,0,1-7.9,3.32c-5.72,0-10.14-3.43-10.14-8.58s4.94-8.94,11.18-8.94a19.45,19.45,0,0,1,6.86,1.35v-.52c0-2.86-1.76-5.35-6.18-5.35a15.38,15.38,0,0,0-7,1.92l-2.55-5a24.73,24.73,0,0,1,11.23-3C1845.75,79.83,1850.54,84.25,1850.54,91.27Zm-7.34,7.59V96.37a16.82,16.82,0,0,0-5.77-1c-2.75,0-4.94,1.61-4.94,3.8s1.93,3.53,4.53,3.53C1839.93,102.71,1842.68,101.36,1843.2,98.86Z"/><path d="M1898.84,90.23v17.16h-7.28V91.53c0-3.12-2-5.3-4.78-5.3a4.86,4.86,0,0,0-5.2,4.89v16.27h-7.28V91.53c0-3.12-2-5.3-4.73-5.3-3.07,0-5.2,2-5.2,4.89v16.22h-7.6V80.46h7.6V84a7.87,7.87,0,0,1,7.28-4.16,9.57,9.57,0,0,1,8.53,4.89c1.4-3,4.73-4.89,8.73-4.89C1894.53,79.83,1898.84,84.15,1898.84,90.23Z"/><path d="M1924.12,98.86l4.83,4.94c-2.39,2.5-7,4.16-11,4.16a13.83,13.83,0,0,1-14.25-14.14,13.55,13.55,0,0,1,13.83-14c8.43,0,13.37,6.4,13.37,16.54h-19.4a6.53,6.53,0,0,0,6.4,4.89A9.73,9.73,0,0,0,1924.12,98.86Zm-12.49-8h12a5.61,5.61,0,0,0-5.77-4.37A6.5,6.5,0,0,0,1911.63,90.91Z"/><path d="M1932.43,80.46h7.44L1945,97.2l5.3-16.74h6.29l5.31,16.74L1967,80.46h7.44l-9.15,26.88h-6.81l-5-16.9-5,16.9h-6.81Z"/><path d="M1975.8,93.87c0-7.64,6.71-14,14.72-14s14.61,6.4,14.61,14S1998.47,108,1990.52,108,1975.8,101.52,1975.8,93.87Zm22.1,0a7.42,7.42,0,1,0-7.38,7.7A7.6,7.6,0,0,0,1997.9,93.87Z"/><path d="M2027.07,79.83v6.4c-5.61,0-9.2,3.22-9.2,8.27v12.84h-7.59V80.46h7.59v5A10,10,0,0,1,2027.07,79.83Z"/><path d="M2047.15,92.36l10.34,15h-8.73l-6.66-10.09-3.22,3.49v6.6h-7.59V71h7.59V92.05l10-11.59h8.74Z"/></g></g><g class="b2bec0da-71a7-48b8-877f-64f28142b54d"><g class="b2bec0da-71a7-48b8-877f-64f28142b54d"><path d="M2339.27,107.34l-8.16-11.6h-5.67v11.6h-7.64V71.61h16.06c7.75,0,13.47,5,13.47,12.07a11.63,11.63,0,0,1-8.11,11.18l8.79,12.48Zm-13.83-18.62H2333c3.8,0,6.4-2,6.4-5s-2.6-5.05-6.4-5.05h-7.59Z"/><path d="M2371.72,98.86l4.84,4.94c-2.39,2.5-7,4.16-11,4.16a13.82,13.82,0,0,1-14.24-14.14,13.55,13.55,0,0,1,13.83-14c8.42,0,13.36,6.4,13.36,16.54h-19.39a6.52,6.52,0,0,0,6.39,4.89A9.73,9.73,0,0,0,2371.72,98.86Zm-12.48-8h12a5.6,5.6,0,0,0-5.77-4.37A6.49,6.49,0,0,0,2359.24,90.91Z"/><path d="M2392.67,80.46h5.83v6.13h-5.83v20.75h-7.28V86.59h-3.69V80.46h3.69V78.12c0-4.84,3.33-8.22,8.07-8.22a9.75,9.75,0,0,1,6.18,2.34l-1.82,4.63a3.91,3.91,0,0,0-2.6-.89,2.76,2.76,0,0,0-2.55,3Z"/><path d="M2403,72.6a4.11,4.11,0,1,1,4.16,4.16A4.15,4.15,0,0,1,2403,72.6Zm.31,7.86h7.6v26.88h-7.6Z"/><path d="M2443.06,90.23v17.11h-7.33V91.84c0-3.32-2.08-5.61-5.1-5.61a5.35,5.35,0,0,0-5.61,5.2l-.05-.16v16.07h-7.6V80.46h7.6v3.37a9.57,9.57,0,0,1,8.11-4C2438.9,79.83,2443.06,84.15,2443.06,90.23Z"/><path d="M2468.33,98.86l4.84,4.94c-2.39,2.5-7,4.16-11,4.16A13.83,13.83,0,0,1,2448,93.82a13.55,13.55,0,0,1,13.83-14c8.43,0,13.37,6.4,13.37,16.54h-19.4a6.53,6.53,0,0,0,6.4,4.89A9.68,9.68,0,0,0,2468.33,98.86Zm-12.48-8h12a5.61,5.61,0,0,0-5.78-4.37A6.49,6.49,0,0,0,2455.85,90.91Z"/><path d="M2522.21,90.23v17.16h-7.28V91.53c0-3.12-2-5.3-4.79-5.3a4.87,4.87,0,0,0-5.2,4.89v16.27h-7.28V91.53c0-3.12-2-5.3-4.73-5.3-3.07,0-5.2,2-5.2,4.89v16.22h-7.59V80.46h7.59V84a7.87,7.87,0,0,1,7.28-4.16,9.57,9.57,0,0,1,8.53,4.89c1.4-3,4.73-4.89,8.73-4.89C2517.89,79.83,2522.21,84.15,2522.21,90.23Z"/><path d="M2547.48,98.86l4.83,4.94c-2.39,2.5-7,4.16-11,4.16a13.83,13.83,0,0,1-14.25-14.14,13.55,13.55,0,0,1,13.83-14c8.43,0,13.37,6.4,13.37,16.54h-19.4a6.54,6.54,0,0,0,6.4,4.89A9.73,9.73,0,0,0,2547.48,98.86Zm-12.48-8h12a5.6,5.6,0,0,0-5.77-4.37A6.49,6.49,0,0,0,2535,90.91Z"/><path d="M2585,90.23v17.11h-7.33V91.84c0-3.32-2.08-5.61-5.1-5.61a5.36,5.36,0,0,0-5.62,5.2l-.05-.16v16.07h-7.59V80.46h7.59v3.37a9.58,9.58,0,0,1,8.11-4C2580.81,79.83,2585,84.15,2585,90.23Z"/><path d="M2607.33,105.62a9.78,9.78,0,0,1-6.19,2.34,7.79,7.79,0,0,1-8.06-8.21V86.59h-3.69V80.46h3.69V73.07h7.28v7.39h5.82v6.13h-5.82v12a2.75,2.75,0,0,0,2.55,3,3.91,3.91,0,0,0,2.6-.89Z"/></g></g></svg>