<svg width="2690" height="398" viewBox="0 0 2690 398" fill="none" xmlns="http://www.w3.org/2000/svg">
<path d="M0 0H498L548 199L498 398H0V0Z" fill="#4848D3"/>
<path d="M548 0H1046L1096 199L1046 398H548L588 199L548 0Z" fill="#4848D3"/>
<path d="M1096 0H1594L1644 199L1594 398H1096L1136 199L1096 0Z" fill="#4848D3"/>
<path d="M1644 0H2142L2192 199L2142 398H1644L1684 199L1644 0Z" fill="#4848D3"/>
<path d="M2192 0H2690V199V398H2192L2232 199L2192 0Z" fill="#4848D3"/>
<text fill="white" xml:space="preserve" style="white-space: pre" font-family="Metropolis" font-size="52" font-weight="bold" letter-spacing="0em"><tspan x="132.094" y="107.34">Research</tspan></text>
<text fill="white" xml:space="preserve" style="white-space: pre" font-family="Metropolis" font-size="45" font-weight="500" letter-spacing="0em"><tspan x="101" y="196.275">Users and the </tspan><tspan x="101" y="246.275">domain</tspan></text>
<text fill="white" xml:space="preserve" style="white-space: pre" font-family="Metropolis" font-size="45" font-weight="500" letter-spacing="0em"><tspan x="628" y="196.275">Of users and their </tspan><tspan x="628" y="246.275">goals</tspan></text>
<text fill="white" xml:space="preserve" style="white-space: pre" font-family="Metropolis" font-size="45" font-weight="500" letter-spacing="0em"><tspan x="1187" y="180.275">Definition of user, </tspan><tspan x="1187" y="230.275">business, and </tspan><tspan x="1187" y="280.275">technical needs</tspan></text>
<text fill="white" xml:space="preserve" style="white-space: pre" font-family="Metropolis" font-size="45" font-weight="500" letter-spacing="0em"><tspan x="1749" y="180.275">Definition of </tspan><tspan x="1749" y="230.275">design structure </tspan><tspan x="1749" y="280.275">and flow</tspan></text>
<text fill="white" xml:space="preserve" style="white-space: pre" font-family="Metropolis" font-size="45" font-weight="500" letter-spacing="0em"><tspan x="2277" y="180.275">Of form, content </tspan><tspan x="2277" y="230.275">and flow</tspan></text>
<text fill="white" xml:space="preserve" style="white-space: pre" font-family="Metropolis" font-size="52" font-weight="bold" letter-spacing="0em"><tspan x="708.35" y="107.34">Modeling</tspan></text>
<text fill="white" xml:space="preserve" style="white-space: pre" font-family="Metropolis" font-size="52" font-weight="bold" letter-spacing="0em"><tspan x="1187.31" y="107.34">Requirements</tspan></text>
<text fill="white" xml:space="preserve" style="white-space: pre" font-family="Metropolis" font-size="52" font-weight="bold" letter-spacing="0em"><tspan x="1769.26" y="107.34">Framework</tspan></text>
<text fill="white" xml:space="preserve" style="white-space: pre" font-family="Metropolis" font-size="52" font-weight="bold" letter-spacing="0em"><tspan x="2314.26" y="107.34">Refinement</tspan></text>
</svg>
