<svg width="50" height="50" viewBox="0 0 50 50" fill="none" xmlns="http://www.w3.org/2000/svg">
<path d="M34.2571 0.221788C33.4357 0.493216 31.8428 0.964645 31.5786 1.0075C31.4786 1.02893 31.3571 1.0575 31.3 1.07893C31.1714 1.12179 29.4143 1.51465 29.0786 1.57179C28.9428 1.59322 28.4786 1.67179 28.0428 1.75036C27.6143 1.82179 27.1 1.9075 26.9 1.92893C26.7071 1.9575 26.4643 1.98607 26.3643 2.00036C26.2643 2.01465 26.0071 2.05036 25.7928 2.07179C25.5786 2.10036 25.3071 2.12893 25.1857 2.14322C24.8786 2.18607 23.4928 2.24322 21.7571 2.29322C20.0786 2.33607 19.6071 2.3575 18.9357 2.42179C18.6786 2.44322 18.2643 2.47893 18.0071 2.50036C17.5928 2.53607 17 2.6075 16.1143 2.72179C15.5143 2.80036 15.3071 2.83607 14.7214 2.94322C14.3857 3.00036 14.0357 3.06465 13.9357 3.07893C13.6857 3.12179 12.6143 3.38607 12.15 3.51465C9.46428 4.27179 7.4 5.31465 5.39285 6.92893C4.67143 7.51465 3.6 8.57179 3.12857 9.17179L2.87857 9.48607L6.76428 13.3718C8.9 15.5004 10.6643 17.2504 10.6857 17.2504C10.7071 17.2504 11.0286 16.9789 11.4 16.6504C12.3857 15.7718 14.0714 14.6789 14.4357 14.6789C14.4714 14.6789 14.5643 14.6504 14.6357 14.6075C14.85 14.4932 16.6214 14.0146 17.1643 13.9361C17.3143 13.9146 17.5714 13.8646 17.7357 13.8289C18.0571 13.7575 18.3714 13.7075 18.9714 13.6432C19.1714 13.6218 19.4428 13.5861 19.5786 13.5718C21.1643 13.3718 23.9071 13.2718 23.95 13.4146C23.9643 13.4575 23.9786 17.6932 23.9714 22.8218C23.9643 30.0075 23.9428 32.2504 23.8714 32.6075C23.7571 33.1789 23.4071 34.2432 23.1786 34.6932C22.3143 36.4075 20.7714 37.7789 18.9928 38.4289C18.7071 38.5361 18.4428 38.6289 18.4 38.6361C18.3643 38.6432 18.1357 38.7004 17.9 38.7504C17.4214 38.8575 15.8071 38.8861 15.2571 38.8004C14.7714 38.7218 14.2714 38.6004 14.1857 38.5361C14.15 38.5075 13.9857 38.4432 13.8286 38.3932C12.6714 38.0361 10.9214 36.6932 9.7 35.2218C9.23571 34.6718 8.32857 33.3289 8.04285 32.7646C7.93571 32.5646 7.83571 32.3932 7.82143 32.3932C7.81428 32.3932 6.04285 34.1504 3.9 36.2932L0 40.1932L0.192857 40.5289C0.292857 40.7075 0.65 41.2575 0.978571 41.7504C3.23571 45.1289 6.54285 47.6504 10.4429 48.9646C11.3714 49.2789 11.7857 49.4004 12.4357 49.5289C13.0857 49.6646 13.1571 49.6718 13.8286 49.7861C14.9429 49.9718 17.7357 49.9718 18.9214 49.7932C22.3214 49.2789 25.3428 47.9932 27.9143 45.9575C30.7928 43.6789 32.9286 40.6432 34.0643 37.2146C34.2571 36.6289 34.4786 35.8504 34.55 35.5146C34.5643 35.4432 34.5857 35.3289 34.6071 35.2646C34.7071 34.9361 34.8714 33.8504 34.9786 32.8218C35.0357 32.2932 35.0643 0.0289306 35.0071 0.000359189C34.9857 -0.00678367 34.65 0.0932163 34.2571 0.221788Z" fill="black"/>
<path d="M43.6143 38.0146C42.1428 38.2861 40.8714 39.1004 40.05 40.3075C39.6071 40.9646 39.4 41.4504 39.1714 42.3575C39.1 42.6432 39.0928 44.0361 39.1643 44.3361C39.2 44.5075 39.25 44.7218 39.2643 44.8147C39.2857 44.9075 39.3786 45.1789 39.4786 45.4218C40.0928 46.9361 41.3714 48.1289 42.9 48.6004C43.5785 48.8147 43.85 48.8504 44.6857 48.8432C45.7428 48.8289 47.0071 48.4147 47.7428 47.8289C49.2714 46.6218 50.0357 45.0432 49.9785 43.2147C49.95 42.3575 49.8071 41.7647 49.4357 41.0004C48.3928 38.8361 45.9571 37.5932 43.6143 38.0146Z" fill="#F55A47"/>
</svg>
