<?xml version="1.0" encoding="utf-8"?>
<!-- Generator: Adobe Illustrator 22.1.0, SVG Export Plug-In . SVG Version: 6.00 Build 0)  -->
<svg version="1.1" id="Layer_1" xmlns="http://www.w3.org/2000/svg" xmlns:xlink="http://www.w3.org/1999/xlink" x="0px" y="0px"
	 viewBox="0 0 50 50" style="enable-background:new 0 0 50 50;" xml:space="preserve">
<style type="text/css">
	.st0{fill:#FFFFFF;}
</style>
<g>
	<path class="st0" d="M15.3,44.7c-3.8,0-7.3-1.9-9.4-5.2l-3.8,2.4c2.9,4.5,7.8,7.3,13.1,7.3c6.9,0,11.7-4.4,13.4-10.6H24
		C22.6,42.2,19.6,44.7,15.3,44.7z"/>
	<path class="st0" d="M29.3,31.7V15.8h8.6c3.5,0,5.8,2.4,5.8,6.1h4.2V10.2h-4.2v3.2c-1.6-1.1-3.6-1.8-5.8-1.8h-8.6V5.2h7.9V0.8H10.9
		c-2.7,0-5,2.2-5,5v3h4.5v-3c0-0.3,0.3-0.6,0.6-0.6h13.9v6.4h-8.6c-5.8,0-10.7,5-10.7,10.9c0,3.3,0,3.9,0,4
		c0,5.9,4.7,10.8,10.6,10.8h21.6c4,0,7.7-2.2,9.5-5.8l-3.7-1.9c-1.1,2.2-3.4,3.6-5.8,3.6H16.2c-3.6,0-6.2-2.9-6.2-6.5v-4
		c0-3.7,2.7-6.8,6.2-6.8h8.6v15.9H29.3z"/>
</g>
</svg>
