<svg id="f8f0922f-ba03-4a83-8754-9526d7a8cc17" data-name="Layer 1" xmlns="http://www.w3.org/2000/svg" viewBox="0 0 183 140"><title>PhotographyIcon</title><rect x="2.5" y="22.5" width="178" height="115" rx="16" stroke-width="5" stroke="#000" stroke-linecap="round" stroke-linejoin="round" fill="none"/><path d="M257.5,255.93l-4-12.86a4.58,4.58,0,0,0-4.57-4.57H196.07a4.58,4.58,0,0,0-4.57,4.57l-4,12.86" transform="translate(-131 -236)" fill="none" stroke="#000" stroke-linecap="round" stroke-linejoin="round" stroke-width="5"/><circle cx="143.5" cy="45.5" r="6" fill="none" stroke="#000" stroke-linecap="round" stroke-linejoin="round" stroke-width="5"/><line x1="4.5" y1="59.5" x2="180.5" y2="59.5" fill="none" stroke="#000" stroke-linecap="round" stroke-linejoin="round" stroke-width="5"/><line x1="4.5" y1="110.5" x2="180.5" y2="110.5" fill="none" stroke="#000" stroke-linecap="round" stroke-linejoin="round" stroke-width="5"/><circle cx="92" cy="85" r="42.5" fill="#fff" stroke="#000" stroke-linecap="round" stroke-linejoin="round" stroke-width="5"/><circle cx="92" cy="85" r="29.5" fill="#fff" stroke="#000" stroke-linecap="round" stroke-linejoin="round" stroke-width="5"/><path d="M203.5,321A19.5,19.5,0,0,1,223,301.5" transform="translate(-131 -236)" fill="none" stroke="#000" stroke-linecap="round" stroke-linejoin="round" stroke-width="5"/><rect x="18.5" y="13.5" width="22" height="9" rx="2.74" stroke-width="5" stroke="#000" stroke-linecap="round" stroke-linejoin="round" fill="none"/></svg>