<svg id="Layer_1" data-name="Layer 1" xmlns="http://www.w3.org/2000/svg" viewBox="0 0 425.48 168.53"><defs><style>.cls-1{fill:#2d2d2d;}.cls-2{fill:#4848d3;}</style></defs><title>planit_Logo</title><path class="cls-1" d="M126.51,269.62c0,23.84-14.7,40.64-35.55,40.64a32.44,32.44,0,0,1-24.75-10.94v34.94H37.26V230.92H66.21v9.15A32.42,32.42,0,0,1,91,229.12C111.81,229.12,126.51,245.92,126.51,269.62Zm-27.6,0c0-9.6-7-16.5-17.1-16.5-9.15,0-15.6,6.9-15.6,16.5s6.45,16.65,15.6,16.65C91.86,286.27,98.91,279.37,98.91,269.62Z" transform="translate(-37.26 -165.74)"/><path class="cls-1" d="M139,203.62h28.95V308.46H139Z" transform="translate(-37.26 -165.74)"/><path class="cls-1" d="M257.16,262.72v45.74H229.41v-5.55a29.79,29.79,0,0,1-19.95,7.35c-16.65,0-29.85-10.2-29.85-24.74,0-15.15,14.7-25.8,33.45-25.8a44.46,44.46,0,0,1,16.35,3.45v-.45c0-7.65-6.9-12.15-15.9-12.15-7.35,0-12.3,2-18.75,5.25l-8.85-17.55c10.8-5.4,22.35-9.15,35.4-9.15C241,229.12,257.16,241.57,257.16,262.72Zm-27.75,22.8v-7.35c-2.7-1.35-7.8-2.4-12.3-2.4-5.85,0-10.05,3.75-10.05,9,0,5,3.9,8.39,9.45,8.39C223.41,293.16,228.81,290,229.41,285.52Z" transform="translate(-37.26 -165.74)"/><path class="cls-1" d="M351.2,259.12v49.34H323.61V265.87c0-7.5-4.8-12.75-11.7-12.75-6.45,0-11.1,4.95-11.1,11.85v43.49H271.86V230.92h28.95v7.8c4.8-6,12.6-9.6,21.9-9.6C339.36,229.12,351.2,241.57,351.2,259.12Z" transform="translate(-37.26 -165.74)"/><path class="cls-2" d="M366.74,231h28.95v77.55H366.74Z" transform="translate(-37.26 -165.74)"/><path class="cls-2" d="M462.74,302.37a31.12,31.12,0,0,1-19.95,7.95c-15.45,0-26.25-10.8-26.25-26.25v-30.3h-9.75V231h9.75v-21.3h27.6V231h15.3v22.8h-15.3v24.6c0,4.65,2.7,7.95,6.6,7.95a11.31,11.31,0,0,0,7.05-2.25Z" transform="translate(-37.26 -165.74)"/><path class="cls-2" d="M354,197.22l13.45-13.45L381,197.32l31.59-31.58L426,179.19l-40.23,40.23a6.8,6.8,0,0,1-9.61,0Z" transform="translate(-37.26 -165.74)"/></svg>