<?xml version="1.0" encoding="utf-8"?>
<!-- Generator: Adobe Illustrator 24.2.1, SVG Export Plug-In . SVG Version: 6.00 Build 0)  -->
<svg version="1.1" id="spotterLogo2" xmlns="http://www.w3.org/2000/svg" xmlns:xlink="http://www.w3.org/1999/xlink" x="0px"
	 y="0px" viewBox="0 0 185.4 233.1" style="enable-background:new 0 0 185.4 233.1;" xml:space="preserve">
<style type="text/css">
	.st0{fill:#FDCC1D;}
</style>
<path class="st0" d="M184.4,3.3v176.8c0,1.8-1.5,3.3-3.3,3.3c0,0,0,0,0,0h-40.7c-2.7,0-5.2-1.3-6.7-3.6L20.6,10.8v0.1l-2-2.7
	c-1.7-2.1-1.4-5.3,0.8-7c0.9-0.7,2-1.1,3.1-1.1h158.7C182.9,0,184.4,1.5,184.4,3.3C184.4,3.3,184.4,3.3,184.4,3.3z M61,177L61,177
	l-4.3-14.1l-1.4-4.7l0,0L12.2,19.6c-0.9-3-4.1-4.8-7.1-3.8c-2.4,0.7-4.1,3-4.1,5.5v158.1c0,2.2,1.8,4,4,4h54.9c1.2,0,2.2-1,2.2-2.2
	c0-0.2,0-0.4-0.1-0.7L61,177z M0,218.1c3,1.9,6.6,3,10.1,2.9c2.1,0,6.4-0.2,9.3-3.2c1.7-1.6,2.6-3.9,2.5-6.3c0-1.9-0.7-3.6-1.9-5
	c-1.1-0.9-2.4-1.6-3.7-2l-1.6-0.4c-1.4-0.4-2.1-0.4-3-0.7c-0.6-0.2-1.1-0.8-1.1-1.4c0-0.5,0.3-1,0.8-1.2c0.6-0.4,1.4-0.5,2.1-0.5
	c1.6,0.1,3.3,0.5,4.7,1.2l3.1-5.8c-2.6-1.1-5.3-1.6-8.1-1.6c-3.7,0-7.1,1.1-9,3.1c-1.5,1.7-2.4,3.9-2.4,6.1
	c-0.1,1.6,0.5,3.2,1.6,4.4c1.2,1.2,2.7,1.9,4.4,2.2l2.4,0.6c0.8,0.1,1.7,0.4,2.4,0.9c0.3,0.3,0.5,0.7,0.5,1.1c0,0.4-0.1,0.9-0.5,1.2
	c-0.7,0.5-1.5,0.7-2.3,0.7c-1.2,0-2.4-0.2-3.5-0.6c-1.3-0.4-2.5-1.1-3.6-1.9L0,218.1z M35.7,217.8c2.1,2.1,4.9,3.3,7.8,3.3
	c3.2,0,6.3-1.2,8.6-3.5c5.3-5.5,5.4-14.2,0.2-19.8c-2.4-2.4-5.6-3.7-9-3.7c-3-0.1-5.9,1.2-7.7,3.6V195h-9v38.1h9L35.7,217.8z
	 M41.2,201.8c1.5,0,3,0.6,4,1.7c1.1,1.1,1.7,2.6,1.8,4.2c-0.1,1.5-0.7,2.9-1.8,4c-1,1.1-2.5,1.7-4,1.7c-1.5,0-3-0.6-4.1-1.7
	c-1.1-1.1-1.7-2.5-1.8-4c0-1.6,0.7-3.1,1.8-4.2C38.2,202.4,39.7,201.8,41.2,201.8L41.2,201.8z M90.7,207.6c0.1-3.5-1.4-6.8-3.9-9.2
	c-3.1-2.8-7.1-4.3-11.3-4.2c-4.1-0.1-8.2,1.4-11.2,4.2c-2.5,2.4-4,5.8-3.9,9.2c-0.1,3.5,1.4,6.9,3.9,9.3c3.5,3.4,7.6,4.2,11.2,4.2
	c4.1,0,8-0.9,11.3-4.2C89.4,214.5,90.8,211.1,90.7,207.6L90.7,207.6z M75.6,201.8c1.5,0.1,2.9,0.6,4,1.6c1.1,1.1,1.7,2.6,1.8,4.1
	c0,1.5-0.6,3-1.8,4c-2.2,2.2-5.8,2.3-8,0.1c0,0,0,0-0.1-0.1c-2.2-2.1-2.3-5.7-0.2-7.9c0.1-0.1,0.1-0.1,0.2-0.2
	C72.6,202.4,74.1,201.9,75.6,201.8L75.6,201.8z M111.1,202.4V195h-5.1v-8.3h-9v8.3H94v7.4h2.9v17.8h9v-17.8L111.1,202.4z M131,202.4
	V195h-5.1v-8.3h-9v8.3H114v7.4h2.9v17.8h9v-17.8L131,202.4z M161.1,208.3c0-2.8-0.4-7.2-4-10.6c-2.7-2.4-6.2-3.6-9.7-3.4
	c-5,0-8.2,1.6-10.3,3.7c-2.5,2.6-3.9,6.1-3.8,9.8c-0.1,3.6,1.3,7,3.7,9.5c2.8,2.6,6.6,4,10.4,3.8c5.5,0,8.4-1.7,10.3-3.5
	c1.5-1.4,2.5-3.2,3.1-5.2h-8.6c-0.4,0.7-0.9,1.3-1.6,1.7c-0.9,0.4-1.9,0.7-2.9,0.7c-1.4,0.1-2.7-0.3-3.7-1.2c-1-1.2-1.6-2.7-1.6-4.2
	h18.8L161.1,208.3z M142.6,204.1c0.2-1,0.6-2,1.4-2.7c1-0.9,2.3-1.4,3.7-1.4c1.4-0.1,2.7,0.4,3.7,1.4c0.7,0.8,1.2,1.7,1.5,2.7H142.6
	z M166.4,220.2h9v-10.8c0-1.4,0.1-4,2-5.8c1.2-1,2.6-1.4,4.1-1.4c1.4,0,2.7,0.3,3.9,0.9v-8.5c-1.2-0.1-1.6-0.1-1.8-0.1
	c-1.6-0.1-3.2,0.3-4.7,1c-1.5,0.8-2.8,2-3.6,3.5V195h-9L166.4,220.2z"/>
</svg>
