<svg xmlns="http://www.w3.org/2000/svg" viewBox="0 0 183.41 231.25"><defs><style>.cls-1{fill:#3abda9;}</style></defs><g id="Layer_2" data-name="Layer 2"><g id="SpotterLogo"><path class="cls-1" d="M.33,211.24h8c0,2.2,1.9,3.65,4.85,3.65,2.2,0,3.75-.95,3.75-2.5,0-1.85-2.2-2.15-4.9-2.4-4.65-.45-11.5-.85-11.5-8,0-5.45,4.85-8.85,12.2-8.85,7.15,0,12.45,3.35,12.45,8.65h-8.3c0-1.8-1.75-3-4.15-3-2.1,0-3.6,1-3.6,2.35,0,2,3.05,2.05,6.5,2.45,4.7.5,10.6,1.65,10.6,7.75,0,5.75-5.05,9.25-13.25,9.25C5.18,220.59.33,217,.33,211.24Z"/><path class="cls-1" d="M58.33,206.84c0,8.2-4.65,13.56-11.4,13.56a8.77,8.77,0,0,1-7.5-3.66h-.5v14.51H29.58V193.94h9.35v3h.5a8.61,8.61,0,0,1,7.45-3.65C53.73,193.29,58.33,198.54,58.33,206.84Zm-19.8,0c0,3.25,2.2,5.7,5.2,5.7s5.2-2.45,5.2-5.7-2.15-5.7-5.2-5.7S38.53,203.59,38.53,206.84Z"/><path class="cls-1" d="M60.93,206.84c0-8.45,5.65-13.55,14.6-13.55s14.55,5.15,14.55,13.55-5.7,13.56-14.55,13.56S60.93,215.24,60.93,206.84Zm19.8,0c0-3.35-2.15-5.7-5.2-5.7s-5.2,2.35-5.2,5.7,2.1,5.7,5.2,5.7S80.73,210.19,80.73,206.84Z"/><path class="cls-1" d="M132.43,206.74c0-8.2,6-13.45,14.55-13.45s14.1,5.3,14.1,13.55a18.92,18.92,0,0,1-.15,2.55H142.08c.6,2.8,2.5,4.55,5.3,4.55a4.94,4.94,0,0,0,4.65-2.8l8.05,1.45c-1.3,4.86-6.6,7.81-13.2,7.81C138.33,220.4,132.43,215,132.43,206.74Zm19.2-2.35a5,5,0,0,0-4.85-4.65c-2.6,0-4.3,1.8-4.8,4.65Z"/><path class="cls-1" d="M164.38,193.94h9.3v3.65h.55a6.56,6.56,0,0,1,6-4.15,6.63,6.63,0,0,1,2.85.65v8.3a12.64,12.64,0,0,0-4.5-1c-2.85,0-4.85,2.25-4.85,5.6v12.8h-9.35Z"/><polygon class="cls-1" points="104.23 193.94 104.23 185.89 96.88 185.89 95.18 193.94 91.53 193.94 91.53 200.59 94.83 200.59 94.83 220.45 104.23 220.45 104.23 200.59 109.63 200.59 109.63 193.94 104.23 193.94"/><polygon class="cls-1" points="124.86 193.94 124.86 185.89 117.51 185.89 115.81 193.94 112.17 193.94 112.17 200.59 115.47 200.59 115.47 220.45 124.86 220.45 124.86 200.59 130.26 200.59 130.26 193.94 124.86 193.94"/><path class="cls-1" d="M55.16,183.41a5,5,0,0,0,4.77-6.48L11.22,19.61a5.75,5.75,0,0,0-6.41-4h0A5.74,5.74,0,0,0,0,21.3V178.41a5,5,0,0,0,5,5Z"/><path class="cls-1" d="M17.55,8.14,146.14,181.39a5,5,0,0,0,4,2h28.26a5,5,0,0,0,5-5V5a5,5,0,0,0-5-5h-157A5,5,0,0,0,17.55,8.14Z"/></g></g></svg>