<?xml version="1.0" encoding="utf-8"?>
<!-- Generator: Adobe Illustrator 24.1.0, SVG Export Plug-In . SVG Version: 6.00 Build 0)  -->
<svg version="1.1" id="Layer_1" xmlns="http://www.w3.org/2000/svg" xmlns:xlink="http://www.w3.org/1999/xlink" x="0px" y="0px"
	 viewBox="0 0 183.4 231.2" style="enable-background:new 0 0 183.4 231.2;" xml:space="preserve">
<style type="text/css">
	.st0{fill:#FECD00;}
</style>
<g id="Layer_2_1_">
	<g id="SpotterLogo">
		<path class="st0" d="M0.3,211.2h8c0,2.2,1.9,3.6,4.9,3.6c2.2,0,3.8-0.9,3.8-2.5c0-1.9-2.2-2.1-4.9-2.4c-4.7-0.4-11.5-0.9-11.5-8
			c0-5.4,4.8-8.9,12.2-8.9c7.2,0,12.4,3.4,12.4,8.6h-8.3c0-1.8-1.8-3-4.1-3c-2.1,0-3.6,1-3.6,2.4c0,2,3.1,2.1,6.5,2.4
			c4.7,0.5,10.6,1.6,10.6,7.8c0,5.8-5.1,9.2-13.2,9.2C5.2,220.6,0.3,217,0.3,211.2z"/>
		<path class="st0" d="M58.3,206.8c0,8.2-4.7,13.6-11.4,13.6c-3,0.1-5.8-1.3-7.5-3.7h-0.5v14.5h-9.4v-37.3h9.4v3h0.5
			c1.7-2.4,4.5-3.8,7.5-3.6C53.7,193.3,58.3,198.5,58.3,206.8z M38.5,206.8c0,3.2,2.2,5.7,5.2,5.7s5.2-2.4,5.2-5.7s-2.2-5.7-5.2-5.7
			S38.5,203.6,38.5,206.8z"/>
		<path class="st0" d="M60.9,206.8c0-8.4,5.7-13.6,14.6-13.6s14.6,5.1,14.6,13.6s-5.7,13.6-14.6,13.6S60.9,215.2,60.9,206.8z
			 M80.7,206.8c0-3.4-2.2-5.7-5.2-5.7s-5.2,2.4-5.2,5.7s2.1,5.7,5.2,5.7S80.7,210.2,80.7,206.8z"/>
		<path class="st0" d="M132.4,206.7c0-8.2,6-13.4,14.6-13.4s14.1,5.3,14.1,13.6c0,0.9,0,1.7-0.1,2.6h-18.9c0.6,2.8,2.5,4.6,5.3,4.6
			c2,0.1,3.8-1,4.6-2.8l8.1,1.4c-1.3,4.9-6.6,7.8-13.2,7.8C138.3,220.4,132.4,215,132.4,206.7z M151.6,204.4
			c-0.2-2.6-2.3-4.6-4.9-4.6c-2.6,0-4.3,1.8-4.8,4.6H151.6z"/>
		<path class="st0" d="M164.4,193.9h9.3v3.6h0.6c1-2.5,3.3-4.1,6-4.1c1,0,2,0.2,2.9,0.6v8.3c-1.4-0.6-3-0.9-4.5-1
			c-2.9,0-4.9,2.2-4.9,5.6v12.8h-9.4V193.9z"/>
		<polygon class="st0" points="104.2,193.9 104.2,185.9 96.9,185.9 95.2,193.9 91.5,193.9 91.5,200.6 94.8,200.6 94.8,220.4 
			104.2,220.4 104.2,200.6 109.6,200.6 109.6,193.9 		"/>
		<polygon class="st0" points="124.9,193.9 124.9,185.9 117.5,185.9 115.8,193.9 112.2,193.9 112.2,200.6 115.5,200.6 115.5,220.4 
			124.9,220.4 124.9,200.6 130.3,200.6 130.3,193.9 		"/>
		<path class="st0" d="M55.2,183.4c2.8,0,5-2.2,5-5c0-0.5-0.1-1-0.2-1.5L11.2,19.6c-0.8-2.7-3.6-4.5-6.4-4l0,0C2,16.1,0,18.5,0,21.3
			v157.1c0,2.8,2.2,5,5,5H55.2z"/>
		<path class="st0" d="M17.5,8.1l128.6,173.2c0.9,1.3,2.4,2,4,2h28.3c2.8,0,5-2.2,5-5V5c0-2.8-2.2-5-5-5h-157c-2.8,0-5,2.3-5,5
			C16.5,6.2,16.8,7.3,17.5,8.1z"/>
	</g>
</g>
</svg>
