<svg id="f70f2471-ad2b-4da1-9017-39d137c77582" data-name="Layer 1" xmlns="http://www.w3.org/2000/svg" viewBox="0 0 280 236"><title>UXIconW</title><path d="M-56.5,109.5h-271" transform="translate(332.5 -61.5)" fill="none" stroke="#fff" stroke-linecap="round" stroke-linejoin="round" stroke-width="8"/><rect x="4" y="4" width="272" height="228" rx="22.74" stroke-width="8" stroke="#fff" stroke-linecap="round" stroke-linejoin="round" fill="none"/><circle cx="28.5" cy="28.5" r="6.5" fill="none" stroke="#fff" stroke-linecap="round" stroke-linejoin="round" stroke-width="5"/><circle cx="50.5" cy="28.5" r="6.5" fill="none" stroke="#fff" stroke-linecap="round" stroke-linejoin="round" stroke-width="5"/><circle cx="72.5" cy="28.5" r="6.5" fill="none" stroke="#fff" stroke-linecap="round" stroke-linejoin="round" stroke-width="5"/><circle cx="89.43" cy="82.5" r="12.98" fill="none" stroke="#fff" stroke-linecap="round" stroke-linejoin="round" stroke-width="7"/><circle cx="50.5" cy="143.92" r="12.98" fill="none" stroke="#fff" stroke-linecap="round" stroke-linejoin="round" stroke-width="7"/><circle cx="89.43" cy="143.92" r="12.98" fill="none" stroke="#fff" stroke-linecap="round" stroke-linejoin="round" stroke-width="7"/><circle cx="127.5" cy="143.92" r="12.98" fill="none" stroke="#fff" stroke-linecap="round" stroke-linejoin="round" stroke-width="7"/><line x1="89.43" y1="95.36" x2="89.43" y2="131.07" fill="none" stroke="#fff" stroke-linecap="round" stroke-linejoin="round" stroke-width="7"/><path d="M-282,191.58s-1.73-16.43,15.58-16.43h22.49" transform="translate(332.5 -61.5)" fill="none" stroke="#fff" stroke-linecap="round" stroke-linejoin="round" stroke-width="7"/><path d="M-205,191.58s1.73-16.43-15.58-16.43h-22.49" transform="translate(332.5 -61.5)" fill="none" stroke="#fff" stroke-linecap="round" stroke-linejoin="round" stroke-width="7"/><rect x="164" y="104" width="85" height="102" rx="16.5" stroke-width="7" stroke="#fff" stroke-linecap="round" stroke-linejoin="round" fill="none"/><line x1="178" y1="128" x2="235" y2="128" fill="none" stroke="#fff" stroke-linecap="round" stroke-linejoin="round" stroke-width="5.5"/><line x1="178" y1="139" x2="235" y2="139" fill="none" stroke="#fff" stroke-linecap="round" stroke-linejoin="round" stroke-width="5.5"/><line x1="178" y1="150" x2="235" y2="150" fill="none" stroke="#fff" stroke-linecap="round" stroke-linejoin="round" stroke-width="5.5"/><line x1="178" y1="161" x2="235" y2="161" fill="none" stroke="#fff" stroke-linecap="round" stroke-linejoin="round" stroke-width="5.5"/><line x1="178" y1="172" x2="235" y2="172" fill="none" stroke="#fff" stroke-linecap="round" stroke-linejoin="round" stroke-width="5.5"/><line x1="178" y1="183" x2="235" y2="183" fill="none" stroke="#fff" stroke-linecap="round" stroke-linejoin="round" stroke-width="5.5"/></svg>