<svg id="b8aab433-62b5-4d01-8bc9-994c511b72e0" data-name="Layer 1" xmlns="http://www.w3.org/2000/svg" viewBox="0 0 277 233"><title>UXIcon</title><path d="M339.5,132.5H68.5" transform="translate(-65 -86)" fill="none" stroke="#000" stroke-linecap="round" stroke-linejoin="round" stroke-width="5"/><rect x="2.5" y="2.5" width="272" height="228" rx="22.74" stroke-width="5" stroke="#000" stroke-linecap="round" stroke-linejoin="round" fill="none"/><circle cx="27" cy="27" r="6.5" fill="none" stroke="#000" stroke-linecap="round" stroke-linejoin="round" stroke-width="5"/><circle cx="49" cy="27" r="6.5" fill="none" stroke="#000" stroke-linecap="round" stroke-linejoin="round" stroke-width="5"/><circle cx="71" cy="27" r="6.5" fill="none" stroke="#000" stroke-linecap="round" stroke-linejoin="round" stroke-width="5"/><circle cx="87.93" cy="81" r="12.98" fill="none" stroke="#000" stroke-linecap="round" stroke-linejoin="round" stroke-width="7"/><circle cx="49" cy="142.42" r="12.98" fill="none" stroke="#000" stroke-linecap="round" stroke-linejoin="round" stroke-width="7"/><circle cx="87.93" cy="142.42" r="12.98" fill="none" stroke="#000" stroke-linecap="round" stroke-linejoin="round" stroke-width="7"/><circle cx="126" cy="142.42" r="12.98" fill="none" stroke="#000" stroke-linecap="round" stroke-linejoin="round" stroke-width="7"/><line x1="87.93" y1="93.86" x2="87.93" y2="129.57" fill="none" stroke="#000" stroke-linecap="round" stroke-linejoin="round" stroke-width="7"/><path d="M114,214.58s-1.73-16.43,15.58-16.43h22.49" transform="translate(-65 -86)" fill="none" stroke="#000" stroke-linecap="round" stroke-linejoin="round" stroke-width="7"/><path d="M191,214.58s1.73-16.43-15.58-16.43H152.93" transform="translate(-65 -86)" fill="none" stroke="#000" stroke-linecap="round" stroke-linejoin="round" stroke-width="7"/><rect x="162.5" y="102.5" width="85" height="102" rx="16.5" stroke-width="7" stroke="#000" stroke-linecap="round" stroke-linejoin="round" fill="none"/><line x1="176.5" y1="126.5" x2="233.5" y2="126.5" fill="none" stroke="#000" stroke-linecap="round" stroke-linejoin="round" stroke-width="5.5"/><line x1="176.5" y1="137.5" x2="233.5" y2="137.5" fill="none" stroke="#000" stroke-linecap="round" stroke-linejoin="round" stroke-width="5.5"/><line x1="176.5" y1="148.5" x2="233.5" y2="148.5" fill="none" stroke="#000" stroke-linecap="round" stroke-linejoin="round" stroke-width="5.5"/><line x1="176.5" y1="159.5" x2="233.5" y2="159.5" fill="none" stroke="#000" stroke-linecap="round" stroke-linejoin="round" stroke-width="5.5"/><line x1="176.5" y1="170.5" x2="233.5" y2="170.5" fill="none" stroke="#000" stroke-linecap="round" stroke-linejoin="round" stroke-width="5.5"/><line x1="176.5" y1="181.5" x2="233.5" y2="181.5" fill="none" stroke="#000" stroke-linecap="round" stroke-linejoin="round" stroke-width="5.5"/></svg>